<svg width="162" height="30" viewBox="0 0 162 30" fill="none" xmlns="http://www.w3.org/2000/svg">
<g clip-path="url(#clip0_17_10679)">
<path d="M2.42373 30.0002C2.17127 30.0002 1.92891 29.9598 1.67645 29.8788C0.676695 29.5549 -0.0100021 28.6237 -0.0100021 27.561V2.42939C9.63556e-05 1.09336 1.09073 0.000243259 2.42373 0.000243259C3.75674 0.000243259 4.84737 1.09336 4.84737 2.42939V20.0002L18.45 1.01239C19.066 0.152065 20.1567 -0.212307 21.1665 0.111579C22.1663 0.435466 22.853 1.36664 22.853 2.42939V19.9699L36.3446 1.02251C37.1222 -0.0706071 38.6369 -0.323643 39.7276 0.455709C40.8182 1.23506 41.0707 2.75328 40.2931 3.8464L22.3986 28.978C21.7825 29.8383 20.6818 30.2027 19.6821 29.8788C18.6823 29.5549 17.9956 28.6237 17.9956 27.561V9.99012L4.39294 28.9881C3.92841 29.6359 3.19122 30.0002 2.42373 30.0002Z" fill="url(#paint0_linear_17_10679)"/>
<path d="M47.7356 30.0001C46.3925 30.0001 45.3119 28.907 45.3119 27.5709V10.6074C45.3119 9.26122 46.4026 8.17822 47.7356 8.17822C49.0686 8.17822 50.1592 9.26122 50.1592 10.6074V27.5608C50.1592 28.907 49.0686 29.99 47.7356 29.99V30.0001Z" fill="#80439A"/>
<path d="M84.1103 30.0001C82.7672 30.0001 81.6867 28.907 81.6867 27.5709V10.6074C81.6867 9.26122 82.7773 8.17822 84.1103 8.17822C85.4433 8.17822 86.534 9.26122 86.534 10.6074V27.5608C86.534 28.907 85.4433 29.99 84.1103 29.99V30.0001Z" fill="#80439A"/>
<path d="M78.5259 26.0123L69.4271 15.071C69.3261 14.9495 69.2151 14.8382 69.0939 14.737L76.7283 3.83615C77.4958 2.73292 77.2333 1.2147 76.1325 0.445466C75.0318 -0.323765 73.517 -0.0606067 72.7495 1.04263L59.571 19.8685V2.42927C59.571 1.09324 58.4905 0.00012207 57.1474 0.00012207C55.8043 0.00012207 54.7237 1.08312 54.7237 2.42927V27.5609C54.7237 28.6236 55.4104 29.5649 56.4203 29.8787C56.6626 29.9596 56.905 29.99 57.1474 29.99C57.9249 29.99 58.6722 29.6155 59.1368 28.9576L66.236 18.8159L74.7995 29.1196C75.2742 29.6965 75.971 29.99 76.6677 29.99C77.2131 29.99 77.7685 29.8078 78.2229 29.4232C79.253 28.5629 79.3943 27.0345 78.536 26.0021L78.5259 26.0123Z" fill="url(#paint1_linear_17_10679)"/>
<path d="M105.62 29.8179H92.4012C91.664 29.8179 91.0783 29.2208 91.0783 28.4819V1.33615C91.0783 0.597288 91.6741 0.00012207 92.4012 0.00012207C93.1283 0.00012207 93.7241 0.597288 93.7241 1.33615V27.1661H105.62C106.357 27.1661 106.943 27.7633 106.943 28.492C106.943 29.2208 106.347 29.8281 105.62 29.8281V29.8179Z" fill="#444444"/>
<path d="M124.615 19.5548C124.282 14.5548 120.122 10.5872 115.052 10.5872C109.983 10.5872 105.459 14.8989 105.459 20.2025C105.459 25.5062 109.761 29.8179 115.052 29.8179C117.789 29.8179 120.243 28.6641 121.99 26.822V28.4819C121.99 29.2208 122.586 29.8179 123.313 29.8179C124.04 29.8179 124.636 29.2208 124.636 28.4819V19.8382C124.636 19.737 124.625 19.6459 124.605 19.5446L124.615 19.5548ZM115.052 27.156C111.225 27.156 108.114 24.0386 108.114 20.2025C108.114 16.3665 111.225 13.2491 115.052 13.2491C118.879 13.2491 121.99 16.3665 121.99 20.2025C121.99 24.0386 118.879 27.156 115.052 27.156Z" fill="#444444"/>
<path d="M137.127 10.5872C134.401 10.5872 131.937 11.741 130.19 13.5831V1.3463C130.19 0.60743 129.594 0.0203857 128.857 0.0203857C128.12 0.0203857 127.534 0.617552 127.534 1.3463V28.4819C127.534 29.2208 128.13 29.818 128.857 29.818C129.584 29.818 130.19 29.2208 130.19 28.4819V26.822C131.937 28.6641 134.401 29.818 137.127 29.818C142.419 29.818 146.721 25.5062 146.721 20.2026C146.721 14.8989 142.419 10.5872 137.127 10.5872ZM137.127 27.1661C133.3 27.1661 130.19 24.0487 130.19 20.2127C130.19 16.3767 133.3 13.2593 137.127 13.2593C140.955 13.2593 144.065 16.3767 144.065 20.2127C144.065 24.0487 140.955 27.1661 137.127 27.1661Z" fill="#444444"/>
<path d="M160.213 20.9414C160.213 20.9414 160.172 20.9009 160.142 20.8807C160.081 20.83 160.011 20.7794 159.95 20.7288C158.991 20.0102 157.839 19.5143 156.86 19.2005L154.164 18.5831C151.922 18.158 150.498 16.8017 150.579 15.658C150.669 14.3726 152.679 13.0669 155.426 13.2592C157.294 13.3908 158.728 14.16 159.425 15.0406C159.647 15.3746 160.011 15.6074 160.445 15.6377C161.182 15.6883 161.818 15.1317 161.869 14.3928C161.899 13.9981 161.748 13.6337 161.495 13.3705C160.293 11.8624 158.152 10.7896 155.598 10.6074C151.498 10.324 148.125 12.4596 147.913 15.4758C147.812 16.9636 148.498 18.3402 149.71 19.3928C149.831 19.494 149.952 19.5851 150.084 19.6863C150.821 20.2126 152.518 21.2147 155.274 21.6398C155.355 21.6398 155.426 21.66 155.507 21.6701C155.567 21.6701 155.618 21.6904 155.678 21.7005C157.93 22.1155 159.374 23.4819 159.294 24.6357C159.203 25.9211 157.193 27.2268 154.446 27.0345C152.568 26.9029 151.124 26.1236 150.427 25.2329C150.205 24.9292 149.852 24.7268 149.458 24.6964C148.72 24.6458 148.074 25.2025 148.024 25.9414C148.003 26.2045 148.064 26.4475 148.185 26.6701C148.185 26.6701 148.195 26.6904 148.205 26.6904C148.276 26.8118 148.367 26.9232 148.468 27.0244C149.69 28.4819 151.77 29.5143 154.265 29.6863C158.365 29.9697 161.737 27.8341 161.949 24.8179C162.05 23.3503 161.374 21.9738 160.182 20.9313L160.213 20.9414Z" fill="#444444"/>
<path d="M50.2097 2.47988C50.2097 3.84628 49.0989 4.95964 47.7356 4.95964C46.3723 4.95964 45.2614 3.84628 45.2614 2.47988C45.2614 1.11348 46.3622 0.00012207 47.7356 0.00012207C49.109 0.00012207 50.2097 1.11348 50.2097 2.47988Z" fill="#80439A"/>
<path d="M86.5946 2.47988C86.5946 3.84628 85.4837 4.95964 84.1204 4.95964C82.7571 4.95964 81.6463 3.84628 81.6463 2.47988C81.6463 1.11348 82.747 0.00012207 84.1103 0.00012207C85.4736 0.00012207 86.5845 1.11348 86.5845 2.47988H86.5946Z" fill="#80439A"/>
</g>
<defs>
<linearGradient id="paint0_linear_17_10679" x1="-1.06025" y1="27.5104" x2="32.9376" y2="-6.40026" gradientUnits="userSpaceOnUse">
<stop stop-color="#D2367D"/>
<stop offset="1" stop-color="#643393"/>
</linearGradient>
<linearGradient id="paint1_linear_17_10679" x1="54.037" y1="27.8949" x2="78.8649" y2="3.12332" gradientUnits="userSpaceOnUse">
<stop stop-color="#D2367D"/>
<stop offset="1" stop-color="#643393"/>
</linearGradient>
<clipPath id="clip0_17_10679">
<rect width="162" height="30" fill="white"/>
</clipPath>
</defs>
</svg>
