<svg width="34" height="34" viewBox="0 0 34 34" fill="none" xmlns="http://www.w3.org/2000/svg">
<g id="arrow.up.circle.fill">
<g id="Group">
<path id="Vector" d="M17 33.9832C26.3001 33.9832 34 26.2705 34 16.9916C34 7.69621 26.2834 0 16.9834 0C7.70001 0 0 7.69621 0 16.9916C0 26.2705 7.71668 33.9832 17 33.9832Z" fill="white"/>
<path id="Vector_2" d="M17.0168 25.5875C16.2669 25.5875 15.7169 25.0544 15.7169 24.288V15.7423L15.8668 12.0941L14.1502 14.1597L12.1169 16.2087C11.8835 16.4419 11.5502 16.5919 11.2002 16.5919C10.4835 16.5919 9.9502 16.0422 9.9502 15.3425C9.9502 14.9761 10.0502 14.6761 10.2835 14.443L16.0169 8.72906C16.3669 8.37924 16.6502 8.24597 17.0168 8.24597C17.4003 8.24597 17.7002 8.3959 18.0336 8.72906L23.7502 14.443C23.9836 14.6761 24.1169 14.9761 24.1169 15.3425C24.1169 16.0422 23.5669 16.5919 22.8502 16.5919C22.4836 16.5919 22.1668 16.4586 21.9336 16.2087L19.9169 14.1597L18.1668 12.0774L18.3169 15.7423V24.288C18.3169 25.0544 17.7835 25.5875 17.0168 25.5875Z" fill="#131442"/>
</g>
</g>
</svg>
