<svg width="20" height="20" viewBox="0 0 20 20" fill="none" xmlns="http://www.w3.org/2000/svg">
<path d="M6.36485 1.68616C5.63709 1.11271 4.57863 1.19721 3.99895 1.92003C3.63611 2.37245 3.42761 2.74018 2.72458 3.6196C1.27702 5.43035 1.27702 8.05225 2.73258 9.85657C3.80709 11.1886 4.93371 12.5326 6.19312 13.792C7.45254 15.0514 8.79657 16.178 10.1286 17.2525C11.9329 18.7081 14.5548 18.7081 16.3655 17.2605C17.2676 16.5394 17.6246 16.3454 18.0927 15.9655C18.7874 15.4017 18.8932 14.3875 18.3512 13.6756C17.5268 12.5925 16.5286 11.5829 15.6034 10.6013C15.2204 10.195 14.5858 10.1755 14.1536 10.529C13.8295 10.7941 13.7244 10.84 13.015 11.505C10.9438 10.2742 9.68848 9.00357 8.48016 6.97009C9.1484 6.2573 9.19339 6.15262 9.46193 5.82484C9.8154 5.39338 9.79626 4.75966 9.38807 4.37955C8.41289 3.47144 7.41789 2.51592 6.36485 1.68616Z" fill="#D8D1B0"/>
</svg>
