<svg width="24" height="24" viewBox="0 0 24 24" fill="none" xmlns="http://www.w3.org/2000/svg">
<path d="M21.393 2.2059C20.2674 1.0803 18.0997 0.84721 9.8957 4.21577C4.17794 6.56348 0.875183 7.95373 1.45369 11.5322C1.70773 13.1036 3.32456 15.5161 5.14279 17.4561V20.9818C5.14279 22.47 6.90902 23.2514 8.01023 22.2503L9.40062 20.9863C10.3852 21.5969 11.3207 22.0246 12.0667 22.1452C15.6451 22.7237 17.0354 19.4209 19.3831 13.7031C22.7516 5.4991 22.5186 3.33149 21.393 2.2059Z" fill="#E3D8C2"/>
<path d="M21.5487 2.37577L4.6832 16.9507C3.05901 15.1111 1.68617 12.9697 1.45378 11.5322C0.875275 7.95373 4.17803 6.56348 9.89579 4.21577C18.0998 0.84721 20.2674 1.0803 21.393 2.2059C21.4471 2.25994 21.4991 2.31638 21.5487 2.37577Z" fill="#F3E7CF"/>
</svg>
