<svg width="24" height="24" viewBox="0 0 24 24" fill="none" xmlns="http://www.w3.org/2000/svg">
<path d="M12.5812 22.2492C14.4562 20.6907 20.2235 15.4166 20.2235 9.50913C20.2235 4.96743 16.5417 1.28564 12 1.28564C7.4583 1.28564 3.77652 4.96743 3.77652 9.50913C3.77652 15.4166 9.54384 20.6907 11.4188 22.2492C11.7598 22.5327 12.2402 22.5327 12.5812 22.2492Z" fill="#E3D8C2"/>
<path d="M12 12.3943C13.8602 12.3943 15.3682 10.8864 15.3682 9.02615C15.3682 7.16595 13.8602 5.65796 12 5.65796C10.1398 5.65796 8.63181 7.16595 8.63181 9.02615C8.63181 10.8864 10.1398 12.3943 12 12.3943Z" fill="white"/>
</svg>
