<svg width="20" height="20" viewBox="0 0 20 20" fill="none" xmlns="http://www.w3.org/2000/svg">
<path d="M1.56181 15.7609C1.68006 16.7188 2.45005 17.4731 3.41021 17.5713C5.52574 17.7874 7.73202 18.0527 9.99998 18.0527C12.2679 18.0527 14.4742 17.7874 16.5898 17.5713C17.5499 17.4731 18.3199 16.7188 18.4382 15.7609C18.6668 13.9088 18.9286 11.9805 18.9286 9.99991C18.9286 8.01929 18.6668 6.09099 18.4382 4.23896C18.3199 3.28107 17.5499 2.52669 16.5898 2.42858C14.4742 2.21239 12.2679 1.94714 9.99998 1.94714C7.73203 1.94714 5.52574 2.21239 3.41021 2.42858C2.45005 2.52669 1.68006 3.28107 1.56181 4.23896C1.33318 6.09099 1.07141 8.01929 1.07141 9.99991C1.07141 11.9805 1.33318 13.9088 1.56181 15.7609Z" fill="#D8D1B0" stroke="white" stroke-width="1.5" stroke-linejoin="round"/>
<path d="M1.51367 4.57764L8.76169 10.2925C9.48793 10.8651 10.5121 10.8651 11.2383 10.2925L18.4863 4.57764" stroke="white" stroke-width="1.5" stroke-linejoin="round"/>
</svg>
