<svg width="17" height="20" viewBox="0 0 17 20" fill="none" xmlns="http://www.w3.org/2000/svg">
<path fill-rule="evenodd" clip-rule="evenodd" d="M11.9299 3.44678C10.6425 2.70352 8.99638 3.1446 8.25313 4.43195L7.48411 5.76393C7.27175 6.13175 6.80143 6.25777 6.43361 6.04541C6.0658 5.83305 5.93978 5.36273 6.15213 4.99491L6.92115 3.66294C8.08912 1.63995 10.6759 0.946827 12.6989 2.1148C14.7219 3.28277 15.415 5.86955 14.247 7.89253L12.3245 11.2225C11.475 12.6937 9.59375 13.1978 8.12249 12.3484L7.12351 11.7716C6.7557 11.5593 6.62967 11.089 6.84203 10.7211C7.05439 10.3533 7.52471 10.2273 7.89253 10.4397L8.89151 11.0164C9.62714 11.4411 10.5678 11.1891 10.9925 10.4535L12.915 7.12352C13.6583 5.83616 13.2172 4.19003 11.9299 3.44678Z" fill="#9E9E9E"/>
<path fill-rule="evenodd" clip-rule="evenodd" d="M4.43195 16.4336C5.7193 17.1769 7.36543 16.7358 8.10869 15.4484L8.8777 14.1164C9.09006 13.7486 9.56039 13.6226 9.9282 13.835C10.296 14.0473 10.422 14.5176 10.2097 14.8855L9.44066 16.2174C8.27269 18.2404 5.68591 18.9335 3.66293 17.7656C1.63995 16.5976 0.94682 14.0108 2.11479 11.9878L4.03733 8.6579C4.88677 7.18663 6.76806 6.68254 8.23932 7.53198L9.23831 8.10874C9.60612 8.3211 9.73214 8.79142 9.51979 9.15924C9.30743 9.52705 8.8371 9.65307 8.46929 9.44072L7.47031 8.86395C6.73467 8.43924 5.79403 8.69128 5.36931 9.42691L3.44677 12.7569C2.70351 14.0442 3.14459 15.6903 4.43195 16.4336Z" fill="#9E9E9E"/>
</svg>
