<svg width="247" height="100" viewBox="0 0 247 100" fill="none" xmlns="http://www.w3.org/2000/svg">
<g filter="url(#filter0_f_109_333)">
<path d="M4.85967 60V56.825H18.4847C19.3347 56.825 19.9847 56.6083 20.4347 56.175C20.9013 55.7417 21.1347 55.1667 21.1347 54.45C21.1347 53.6667 20.9013 53.0833 20.4347 52.7C19.9847 52.3 19.3347 52.1 18.4847 52.1H10.1347C9.28467 52.1 8.50967 51.975 7.80967 51.725C7.12633 51.4583 6.543 51.1 6.05967 50.65C5.593 50.1833 5.22633 49.6333 4.95967 49C4.70967 48.3667 4.58467 47.675 4.58467 46.925C4.58467 46.1917 4.70133 45.5167 4.93467 44.9C5.18467 44.2667 5.543 43.725 6.00967 43.275C6.493 42.825 7.08467 42.475 7.78467 42.225C8.48467 41.9583 9.28467 41.825 10.1847 41.825H23.2347V45H10.1847C9.45133 45 8.88467 45.2 8.48467 45.6C8.08467 45.9833 7.88467 46.525 7.88467 47.225C7.88467 47.925 8.08467 48.4667 8.48467 48.85C8.90133 49.2333 9.45967 49.425 10.1597 49.425H18.4847C20.3347 49.425 21.7347 49.8583 22.6847 50.725C23.6513 51.5917 24.1347 52.9083 24.1347 54.675C24.1347 55.4417 24.018 56.15 23.7847 56.8C23.5513 57.45 23.2013 58.0167 22.7347 58.5C22.268 58.9667 21.6763 59.3333 20.9597 59.6C20.2597 59.8667 19.4347 60 18.4847 60H4.85967ZM26.8567 60V41.825H43.0817V45H30.0067V56.825H43.1067V60H26.8567ZM32.3317 52.1V49.425H42.4067V52.1H32.3317ZM45.8265 60V41.825H62.0515V45H48.9765V56.825H62.0765V60H45.8265ZM51.3015 52.1V49.425H61.3765V52.1H51.3015ZM80.5448 60V53.1L70.8948 41.825H75.1698L82.2448 50.2L89.3448 41.825H93.3948L83.7198 53.1V60H80.5448ZM101.172 60C99.9057 60 98.7307 59.7667 97.6474 59.3C96.5807 58.8167 95.6474 58.1667 94.8474 57.35C94.064 56.5167 93.4474 55.5333 92.9974 54.4C92.564 53.2667 92.3474 52.0417 92.3474 50.725C92.3474 49.3917 92.564 48.175 92.9974 47.075C93.4474 45.975 94.064 45.0417 94.8474 44.275C95.6474 43.4917 96.5807 42.8917 97.6474 42.475C98.7307 42.0417 99.9057 41.825 101.172 41.825H105.597C106.914 41.825 108.114 42.0417 109.197 42.475C110.297 42.9083 111.239 43.5167 112.022 44.3C112.806 45.0833 113.414 46.025 113.847 47.125C114.281 48.2083 114.497 49.4083 114.497 50.725C114.497 52.0417 114.272 53.2667 113.822 54.4C113.389 55.5333 112.772 56.5167 111.972 57.35C111.189 58.1667 110.256 58.8167 109.172 59.3C108.089 59.7667 106.897 60 105.597 60H101.172ZM105.597 56.825C106.431 56.825 107.197 56.675 107.897 56.375C108.597 56.075 109.197 55.6667 109.697 55.15C110.214 54.6167 110.614 53.9833 110.897 53.25C111.181 52.5167 111.322 51.725 111.322 50.875C111.322 50.025 111.181 49.2417 110.897 48.525C110.614 47.7917 110.214 47.1667 109.697 46.65C109.197 46.1333 108.597 45.7333 107.897 45.45C107.197 45.15 106.431 45 105.597 45H101.172C100.356 45 99.5974 45.15 98.8974 45.45C98.214 45.7333 97.6224 46.1333 97.1224 46.65C96.6224 47.1667 96.2307 47.7833 95.9474 48.5C95.664 49.2167 95.5224 50.0083 95.5224 50.875C95.5224 51.725 95.664 52.5167 95.9474 53.25C96.2307 53.9833 96.6224 54.6167 97.1224 55.15C97.6224 55.6667 98.214 56.075 98.8974 56.375C99.5974 56.675 100.356 56.825 101.172 56.825H105.597ZM133.317 41.825H136.417V51.975C136.417 53.375 136.233 54.6 135.867 55.65C135.5 56.6833 134.925 57.5417 134.142 58.225C133.358 58.9083 132.342 59.4167 131.092 59.75C129.858 60.0833 128.358 60.25 126.592 60.25C124.842 60.25 123.342 60.0833 122.092 59.75C120.858 59.4167 119.85 58.9083 119.067 58.225C118.283 57.5417 117.708 56.6833 117.342 55.65C116.975 54.6 116.792 53.375 116.792 51.975V41.825H120.067V51.975C120.067 52.8917 120.175 53.675 120.392 54.325C120.625 54.975 120.992 55.5083 121.492 55.925C122.008 56.3417 122.692 56.65 123.542 56.85C124.392 57.0333 125.442 57.125 126.692 57.125C127.942 57.125 128.992 57.0333 129.842 56.85C130.692 56.65 131.367 56.3417 131.867 55.925C132.383 55.5083 132.75 54.975 132.967 54.325C133.2 53.675 133.317 52.8917 133.317 51.975V41.825ZM146.632 60V56.825H160.257C161.107 56.825 161.757 56.6083 162.207 56.175C162.674 55.7417 162.907 55.1667 162.907 54.45C162.907 53.6667 162.674 53.0833 162.207 52.7C161.757 52.3 161.107 52.1 160.257 52.1H151.907C151.057 52.1 150.282 51.975 149.582 51.725C148.899 51.4583 148.315 51.1 147.832 50.65C147.365 50.1833 146.999 49.6333 146.732 49C146.482 48.3667 146.357 47.675 146.357 46.925C146.357 46.1917 146.474 45.5167 146.707 44.9C146.957 44.2667 147.315 43.725 147.782 43.275C148.265 42.825 148.857 42.475 149.557 42.225C150.257 41.9583 151.057 41.825 151.957 41.825H165.007V45H151.957C151.224 45 150.657 45.2 150.257 45.6C149.857 45.9833 149.657 46.525 149.657 47.225C149.657 47.925 149.857 48.4667 150.257 48.85C150.674 49.2333 151.232 49.425 151.932 49.425H160.257C162.107 49.425 163.507 49.8583 164.457 50.725C165.424 51.5917 165.907 52.9083 165.907 54.675C165.907 55.4417 165.79 56.15 165.557 56.8C165.324 57.45 164.974 58.0167 164.507 58.5C164.04 58.9667 163.449 59.3333 162.732 59.6C162.032 59.8667 161.207 60 160.257 60H146.632ZM176.929 60C175.663 60 174.488 59.7667 173.404 59.3C172.338 58.8167 171.404 58.1667 170.604 57.35C169.821 56.5167 169.204 55.5333 168.754 54.4C168.321 53.2667 168.104 52.0417 168.104 50.725C168.104 49.3917 168.321 48.175 168.754 47.075C169.204 45.975 169.821 45.0417 170.604 44.275C171.404 43.4917 172.338 42.8917 173.404 42.475C174.488 42.0417 175.663 41.825 176.929 41.825H181.354C182.671 41.825 183.871 42.0417 184.954 42.475C186.054 42.9083 186.996 43.5167 187.779 44.3C188.563 45.0833 189.171 46.025 189.604 47.125C190.038 48.2083 190.254 49.4083 190.254 50.725C190.254 52.0417 190.029 53.2667 189.579 54.4C189.146 55.5333 188.529 56.5167 187.729 57.35C186.946 58.1667 186.013 58.8167 184.929 59.3C183.846 59.7667 182.654 60 181.354 60H176.929ZM181.354 56.825C182.188 56.825 182.954 56.675 183.654 56.375C184.354 56.075 184.954 55.6667 185.454 55.15C185.971 54.6167 186.371 53.9833 186.654 53.25C186.938 52.5167 187.079 51.725 187.079 50.875C187.079 50.025 186.938 49.2417 186.654 48.525C186.371 47.7917 185.971 47.1667 185.454 46.65C184.954 46.1333 184.354 45.7333 183.654 45.45C182.954 45.15 182.188 45 181.354 45H176.929C176.113 45 175.354 45.15 174.654 45.45C173.971 45.7333 173.379 46.1333 172.879 46.65C172.379 47.1667 171.988 47.7833 171.704 48.5C171.421 49.2167 171.279 50.0083 171.279 50.875C171.279 51.725 171.421 52.5167 171.704 53.25C171.988 53.9833 172.379 54.6167 172.879 55.15C173.379 55.6667 173.971 56.075 174.654 56.375C175.354 56.675 176.113 56.825 176.929 56.825H181.354ZM201.124 60C199.857 60 198.682 59.7667 197.599 59.3C196.532 58.8167 195.599 58.1667 194.799 57.35C194.015 56.5167 193.399 55.5333 192.949 54.4C192.515 53.2667 192.299 52.0417 192.299 50.725C192.299 49.3917 192.515 48.175 192.949 47.075C193.399 45.975 194.015 45.0417 194.799 44.275C195.599 43.4917 196.532 42.8917 197.599 42.475C198.682 42.0417 199.857 41.825 201.124 41.825H205.549C206.865 41.825 208.065 42.0417 209.149 42.475C210.249 42.9083 211.19 43.5167 211.974 44.3C212.757 45.0833 213.365 46.025 213.799 47.125C214.232 48.2083 214.449 49.4083 214.449 50.725C214.449 52.0417 214.224 53.2667 213.774 54.4C213.34 55.5333 212.724 56.5167 211.924 57.35C211.14 58.1667 210.207 58.8167 209.124 59.3C208.04 59.7667 206.849 60 205.549 60H201.124ZM205.549 56.825C206.382 56.825 207.149 56.675 207.849 56.375C208.549 56.075 209.149 55.6667 209.649 55.15C210.165 54.6167 210.565 53.9833 210.849 53.25C211.132 52.5167 211.274 51.725 211.274 50.875C211.274 50.025 211.132 49.2417 210.849 48.525C210.565 47.7917 210.165 47.1667 209.649 46.65C209.149 46.1333 208.549 45.7333 207.849 45.45C207.149 45.15 206.382 45 205.549 45H201.124C200.307 45 199.549 45.15 198.849 45.45C198.165 45.7333 197.574 46.1333 197.074 46.65C196.574 47.1667 196.182 47.7833 195.899 48.5C195.615 49.2167 195.474 50.0083 195.474 50.875C195.474 51.725 195.615 52.5167 195.899 53.25C196.182 53.9833 196.574 54.6167 197.074 55.15C197.574 55.6667 198.165 56.075 198.849 56.375C199.549 56.675 200.307 56.825 201.124 56.825H205.549ZM219.968 46.7V60H216.943V43.5C216.943 42.9167 217.085 42.4583 217.368 42.125C217.668 41.775 218.068 41.6 218.568 41.6C218.801 41.6 219.026 41.65 219.243 41.75C219.46 41.85 219.685 42.0167 219.918 42.25L232.743 54.975V41.675H235.768V58.325C235.768 58.925 235.618 59.3917 235.318 59.725C235.035 60.0583 234.66 60.225 234.193 60.225C233.676 60.225 233.193 60 232.743 59.55L219.968 46.7ZM239.494 54.15V41.8H242.494V54.15H239.494ZM241.044 60.225C240.561 60.225 240.152 60.0667 239.819 59.75C239.502 59.4333 239.344 59.0167 239.344 58.5C239.344 58.0167 239.502 57.6167 239.819 57.3C240.152 56.9833 240.561 56.825 241.044 56.825C241.544 56.825 241.952 56.9833 242.269 57.3C242.586 57.6167 242.744 58.0167 242.744 58.5C242.744 59.0167 242.586 59.4333 242.269 59.75C241.952 60.0667 241.544 60.225 241.044 60.225Z" fill="#53FFD5"/>
</g>
<path d="M4.85967 60V56.825H18.4847C19.3347 56.825 19.9847 56.6083 20.4347 56.175C20.9013 55.7417 21.1347 55.1667 21.1347 54.45C21.1347 53.6667 20.9013 53.0833 20.4347 52.7C19.9847 52.3 19.3347 52.1 18.4847 52.1H10.1347C9.28467 52.1 8.50967 51.975 7.80967 51.725C7.12633 51.4583 6.543 51.1 6.05967 50.65C5.593 50.1833 5.22633 49.6333 4.95967 49C4.70967 48.3667 4.58467 47.675 4.58467 46.925C4.58467 46.1917 4.70133 45.5167 4.93467 44.9C5.18467 44.2667 5.543 43.725 6.00967 43.275C6.493 42.825 7.08467 42.475 7.78467 42.225C8.48467 41.9583 9.28467 41.825 10.1847 41.825H23.2347V45H10.1847C9.45133 45 8.88467 45.2 8.48467 45.6C8.08467 45.9833 7.88467 46.525 7.88467 47.225C7.88467 47.925 8.08467 48.4667 8.48467 48.85C8.90133 49.2333 9.45967 49.425 10.1597 49.425H18.4847C20.3347 49.425 21.7347 49.8583 22.6847 50.725C23.6513 51.5917 24.1347 52.9083 24.1347 54.675C24.1347 55.4417 24.018 56.15 23.7847 56.8C23.5513 57.45 23.2013 58.0167 22.7347 58.5C22.268 58.9667 21.6763 59.3333 20.9597 59.6C20.2597 59.8667 19.4347 60 18.4847 60H4.85967ZM26.8567 60V41.825H43.0817V45H30.0067V56.825H43.1067V60H26.8567ZM32.3317 52.1V49.425H42.4067V52.1H32.3317ZM45.8265 60V41.825H62.0515V45H48.9765V56.825H62.0765V60H45.8265ZM51.3015 52.1V49.425H61.3765V52.1H51.3015ZM80.5448 60V53.1L70.8948 41.825H75.1698L82.2448 50.2L89.3448 41.825H93.3948L83.7198 53.1V60H80.5448ZM101.172 60C99.9057 60 98.7307 59.7667 97.6474 59.3C96.5807 58.8167 95.6474 58.1667 94.8474 57.35C94.064 56.5167 93.4474 55.5333 92.9974 54.4C92.564 53.2667 92.3474 52.0417 92.3474 50.725C92.3474 49.3917 92.564 48.175 92.9974 47.075C93.4474 45.975 94.064 45.0417 94.8474 44.275C95.6474 43.4917 96.5807 42.8917 97.6474 42.475C98.7307 42.0417 99.9057 41.825 101.172 41.825H105.597C106.914 41.825 108.114 42.0417 109.197 42.475C110.297 42.9083 111.239 43.5167 112.022 44.3C112.806 45.0833 113.414 46.025 113.847 47.125C114.281 48.2083 114.497 49.4083 114.497 50.725C114.497 52.0417 114.272 53.2667 113.822 54.4C113.389 55.5333 112.772 56.5167 111.972 57.35C111.189 58.1667 110.256 58.8167 109.172 59.3C108.089 59.7667 106.897 60 105.597 60H101.172ZM105.597 56.825C106.431 56.825 107.197 56.675 107.897 56.375C108.597 56.075 109.197 55.6667 109.697 55.15C110.214 54.6167 110.614 53.9833 110.897 53.25C111.181 52.5167 111.322 51.725 111.322 50.875C111.322 50.025 111.181 49.2417 110.897 48.525C110.614 47.7917 110.214 47.1667 109.697 46.65C109.197 46.1333 108.597 45.7333 107.897 45.45C107.197 45.15 106.431 45 105.597 45H101.172C100.356 45 99.5974 45.15 98.8974 45.45C98.214 45.7333 97.6224 46.1333 97.1224 46.65C96.6224 47.1667 96.2307 47.7833 95.9474 48.5C95.664 49.2167 95.5224 50.0083 95.5224 50.875C95.5224 51.725 95.664 52.5167 95.9474 53.25C96.2307 53.9833 96.6224 54.6167 97.1224 55.15C97.6224 55.6667 98.214 56.075 98.8974 56.375C99.5974 56.675 100.356 56.825 101.172 56.825H105.597ZM133.317 41.825H136.417V51.975C136.417 53.375 136.233 54.6 135.867 55.65C135.5 56.6833 134.925 57.5417 134.142 58.225C133.358 58.9083 132.342 59.4167 131.092 59.75C129.858 60.0833 128.358 60.25 126.592 60.25C124.842 60.25 123.342 60.0833 122.092 59.75C120.858 59.4167 119.85 58.9083 119.067 58.225C118.283 57.5417 117.708 56.6833 117.342 55.65C116.975 54.6 116.792 53.375 116.792 51.975V41.825H120.067V51.975C120.067 52.8917 120.175 53.675 120.392 54.325C120.625 54.975 120.992 55.5083 121.492 55.925C122.008 56.3417 122.692 56.65 123.542 56.85C124.392 57.0333 125.442 57.125 126.692 57.125C127.942 57.125 128.992 57.0333 129.842 56.85C130.692 56.65 131.367 56.3417 131.867 55.925C132.383 55.5083 132.75 54.975 132.967 54.325C133.2 53.675 133.317 52.8917 133.317 51.975V41.825ZM146.632 60V56.825H160.257C161.107 56.825 161.757 56.6083 162.207 56.175C162.674 55.7417 162.907 55.1667 162.907 54.45C162.907 53.6667 162.674 53.0833 162.207 52.7C161.757 52.3 161.107 52.1 160.257 52.1H151.907C151.057 52.1 150.282 51.975 149.582 51.725C148.899 51.4583 148.315 51.1 147.832 50.65C147.365 50.1833 146.999 49.6333 146.732 49C146.482 48.3667 146.357 47.675 146.357 46.925C146.357 46.1917 146.474 45.5167 146.707 44.9C146.957 44.2667 147.315 43.725 147.782 43.275C148.265 42.825 148.857 42.475 149.557 42.225C150.257 41.9583 151.057 41.825 151.957 41.825H165.007V45H151.957C151.224 45 150.657 45.2 150.257 45.6C149.857 45.9833 149.657 46.525 149.657 47.225C149.657 47.925 149.857 48.4667 150.257 48.85C150.674 49.2333 151.232 49.425 151.932 49.425H160.257C162.107 49.425 163.507 49.8583 164.457 50.725C165.424 51.5917 165.907 52.9083 165.907 54.675C165.907 55.4417 165.79 56.15 165.557 56.8C165.324 57.45 164.974 58.0167 164.507 58.5C164.04 58.9667 163.449 59.3333 162.732 59.6C162.032 59.8667 161.207 60 160.257 60H146.632ZM176.929 60C175.663 60 174.488 59.7667 173.404 59.3C172.338 58.8167 171.404 58.1667 170.604 57.35C169.821 56.5167 169.204 55.5333 168.754 54.4C168.321 53.2667 168.104 52.0417 168.104 50.725C168.104 49.3917 168.321 48.175 168.754 47.075C169.204 45.975 169.821 45.0417 170.604 44.275C171.404 43.4917 172.338 42.8917 173.404 42.475C174.488 42.0417 175.663 41.825 176.929 41.825H181.354C182.671 41.825 183.871 42.0417 184.954 42.475C186.054 42.9083 186.996 43.5167 187.779 44.3C188.563 45.0833 189.171 46.025 189.604 47.125C190.038 48.2083 190.254 49.4083 190.254 50.725C190.254 52.0417 190.029 53.2667 189.579 54.4C189.146 55.5333 188.529 56.5167 187.729 57.35C186.946 58.1667 186.013 58.8167 184.929 59.3C183.846 59.7667 182.654 60 181.354 60H176.929ZM181.354 56.825C182.188 56.825 182.954 56.675 183.654 56.375C184.354 56.075 184.954 55.6667 185.454 55.15C185.971 54.6167 186.371 53.9833 186.654 53.25C186.938 52.5167 187.079 51.725 187.079 50.875C187.079 50.025 186.938 49.2417 186.654 48.525C186.371 47.7917 185.971 47.1667 185.454 46.65C184.954 46.1333 184.354 45.7333 183.654 45.45C182.954 45.15 182.188 45 181.354 45H176.929C176.113 45 175.354 45.15 174.654 45.45C173.971 45.7333 173.379 46.1333 172.879 46.65C172.379 47.1667 171.988 47.7833 171.704 48.5C171.421 49.2167 171.279 50.0083 171.279 50.875C171.279 51.725 171.421 52.5167 171.704 53.25C171.988 53.9833 172.379 54.6167 172.879 55.15C173.379 55.6667 173.971 56.075 174.654 56.375C175.354 56.675 176.113 56.825 176.929 56.825H181.354ZM201.124 60C199.857 60 198.682 59.7667 197.599 59.3C196.532 58.8167 195.599 58.1667 194.799 57.35C194.015 56.5167 193.399 55.5333 192.949 54.4C192.515 53.2667 192.299 52.0417 192.299 50.725C192.299 49.3917 192.515 48.175 192.949 47.075C193.399 45.975 194.015 45.0417 194.799 44.275C195.599 43.4917 196.532 42.8917 197.599 42.475C198.682 42.0417 199.857 41.825 201.124 41.825H205.549C206.865 41.825 208.065 42.0417 209.149 42.475C210.249 42.9083 211.19 43.5167 211.974 44.3C212.757 45.0833 213.365 46.025 213.799 47.125C214.232 48.2083 214.449 49.4083 214.449 50.725C214.449 52.0417 214.224 53.2667 213.774 54.4C213.34 55.5333 212.724 56.5167 211.924 57.35C211.14 58.1667 210.207 58.8167 209.124 59.3C208.04 59.7667 206.849 60 205.549 60H201.124ZM205.549 56.825C206.382 56.825 207.149 56.675 207.849 56.375C208.549 56.075 209.149 55.6667 209.649 55.15C210.165 54.6167 210.565 53.9833 210.849 53.25C211.132 52.5167 211.274 51.725 211.274 50.875C211.274 50.025 211.132 49.2417 210.849 48.525C210.565 47.7917 210.165 47.1667 209.649 46.65C209.149 46.1333 208.549 45.7333 207.849 45.45C207.149 45.15 206.382 45 205.549 45H201.124C200.307 45 199.549 45.15 198.849 45.45C198.165 45.7333 197.574 46.1333 197.074 46.65C196.574 47.1667 196.182 47.7833 195.899 48.5C195.615 49.2167 195.474 50.0083 195.474 50.875C195.474 51.725 195.615 52.5167 195.899 53.25C196.182 53.9833 196.574 54.6167 197.074 55.15C197.574 55.6667 198.165 56.075 198.849 56.375C199.549 56.675 200.307 56.825 201.124 56.825H205.549ZM219.968 46.7V60H216.943V43.5C216.943 42.9167 217.085 42.4583 217.368 42.125C217.668 41.775 218.068 41.6 218.568 41.6C218.801 41.6 219.026 41.65 219.243 41.75C219.46 41.85 219.685 42.0167 219.918 42.25L232.743 54.975V41.675H235.768V58.325C235.768 58.925 235.618 59.3917 235.318 59.725C235.035 60.0583 234.66 60.225 234.193 60.225C233.676 60.225 233.193 60 232.743 59.55L219.968 46.7ZM239.494 54.15V41.8H242.494V54.15H239.494ZM241.044 60.225C240.561 60.225 240.152 60.0667 239.819 59.75C239.502 59.4333 239.344 59.0167 239.344 58.5C239.344 58.0167 239.502 57.6167 239.819 57.3C240.152 56.9833 240.561 56.825 241.044 56.825C241.544 56.825 241.952 56.9833 242.269 57.3C242.586 57.6167 242.744 58.0167 242.744 58.5C242.744 59.0167 242.586 59.4333 242.269 59.75C241.952 60.0667 241.544 60.225 241.044 60.225Z" fill="white"/>
<defs>
<filter id="filter0_f_109_333" x="0.584656" y="37.6" width="246.159" height="26.65" filterUnits="userSpaceOnUse" color-interpolation-filters="sRGB">
<feFlood flood-opacity="0" result="BackgroundImageFix"/>
<feBlend mode="normal" in="SourceGraphic" in2="BackgroundImageFix" result="shape"/>
<feGaussianBlur stdDeviation="2" result="effect1_foregroundBlur_109_333"/>
</filter>
</defs>
</svg>
