<svg width="275" height="100" viewBox="0 0 275 100" fill="none" xmlns="http://www.w3.org/2000/svg">
<rect x="0.372349" y="0.372349" width="274.255" height="99.2553" fill="white"/>
<rect x="0.372349" y="0.372349" width="274.255" height="99.2553" stroke="#C8C9C4" stroke-width="0.744697"/>
<g clip-path="url(#clip0_10_4064)">
<path d="M206.558 38.6584V59.9088C206.558 59.9088 206.435 60.1445 206.312 60.1445H199.359C199.359 60.1445 199.196 60.1052 199.114 60.0267L191.466 46.5144V59.9088C191.466 59.9088 191.343 60.1445 191.221 60.1445H186.026C186.026 60.1445 185.781 60.0267 185.781 59.9088V38.6584C185.781 38.6584 185.904 38.4227 186.026 38.4227H192.979C192.979 38.4227 193.143 38.462 193.225 38.5406L200.873 52.1314V38.6584C200.873 38.6584 200.995 38.4227 201.118 38.4227H206.312C206.312 38.4227 206.558 38.5406 206.558 38.6584Z" fill="#DA2730"/>
<path d="M170.362 38.0692C160.137 38.0692 158.133 45.336 158.133 49.3033C158.133 53.2705 160.137 60.5373 170.362 60.5373C180.587 60.5373 182.591 53.2705 182.591 49.3033C182.591 45.336 180.587 38.0692 170.362 38.0692ZM170.362 55.7452C166.436 55.7452 164.841 52.7599 164.841 49.3033C164.841 45.8466 166.436 42.8614 170.362 42.8614C174.288 42.8614 175.843 45.8466 175.843 49.3033C175.843 52.7599 174.248 55.7452 170.362 55.7452Z" fill="#DA2730"/>
<path d="M154.453 60.1838H148.604C148.604 60.1838 148.359 60.0659 148.359 59.9481V38.6584C148.359 38.6584 148.481 38.3834 148.604 38.3834H154.453C154.453 38.3834 154.739 38.5013 154.739 38.6584V59.9088C154.739 59.9088 154.616 60.1445 154.453 60.1445" fill="#DA2730"/>
<path d="M145.741 38.3834H128.482C128.482 38.3834 128.277 38.462 128.277 38.5798V42.822C128.277 42.822 128.359 43.0184 128.482 43.0184H133.921V59.9874C133.921 59.9874 134.003 60.1838 134.126 60.1838H140.097C140.097 60.1838 140.302 60.1052 140.302 59.9874V43.0184H145.741C145.741 43.0184 145.946 42.9399 145.946 42.822V38.5798C145.946 38.5798 145.864 38.3834 145.741 38.3834Z" fill="#DA2730"/>
<path d="M120.793 42.7435C123.901 42.7435 125.169 43.2541 125.619 43.4898C125.701 43.5291 125.823 43.4898 125.823 43.3719V38.8548C125.823 38.8548 125.823 38.7369 125.742 38.7369C125.333 38.5798 123.492 37.9906 120.302 37.9906C116.662 37.9906 106.724 39.2476 106.724 49.3032C106.724 59.3589 116.703 60.6158 120.302 60.6158C123.492 60.6158 125.333 60.0266 125.742 59.8695C125.783 59.8695 125.823 59.7909 125.823 59.7516V55.2345C125.823 55.2345 125.701 55.0773 125.619 55.1166C125.169 55.3523 123.901 55.8629 120.793 55.8629C117.03 55.8629 113.39 54.331 113.39 49.3425C113.39 44.3539 117.03 42.822 120.793 42.822" fill="#DA2730"/>
<path d="M97.1942 38.462C97.1942 38.462 96.9079 38.5799 96.9079 38.737V51.503C96.9079 51.503 96.9488 55.9023 92.9817 55.9023C89.0145 55.9023 89.0554 51.503 89.0554 51.503V38.737C89.0554 38.737 88.9327 38.462 88.7691 38.462H82.9206C82.9206 38.462 82.6343 38.5799 82.6343 38.737V52.0922C82.6343 57.9841 87.2149 60.5766 93.0226 60.5766C98.8302 60.5766 103.411 57.9841 103.411 52.0922V38.737C103.411 38.737 103.288 38.462 103.125 38.462H97.276H97.1942Z" fill="#DA2730"/>
<path d="M218.5 56.4915C218.5 58.7697 216.578 60.6158 214.206 60.6158C211.834 60.6158 209.911 58.7697 209.911 56.4915C209.911 54.2132 211.834 52.3671 214.206 52.3671C216.578 52.3671 218.5 54.2132 218.5 56.4915Z" fill="#DA2730"/>
<path d="M72.8595 36.6158H59.7719C59.7719 36.6158 59.5674 36.6944 59.5674 36.8122V41.2116C59.5674 41.2116 59.6492 41.408 59.7719 41.408H63.0029L56.5 59.9874C56.5 59.9874 56.5409 60.2623 56.7045 60.2623H62.8802C62.8802 60.2623 63.0438 60.1838 63.0847 60.1052L64.3935 55.8237H73.064L74.3319 60.1052C74.3319 60.1052 74.4546 60.2623 74.5364 60.2623H80.9575C80.9575 60.2623 81.2029 60.1052 81.162 59.9874L73.064 36.773C73.064 36.773 72.9413 36.6158 72.8595 36.6158ZM65.8249 51.0316L68.7287 41.408L71.6325 51.0316H65.8249Z" fill="#DA2730"/>
</g>
<defs>
<clipPath id="clip0_10_4064">
<rect width="162" height="24" fill="white" transform="translate(56.5 36.6158)"/>
</clipPath>
</defs>
</svg>
