<svg width="275" height="100" viewBox="0 0 275 100" fill="none" xmlns="http://www.w3.org/2000/svg">
<rect x="0.372349" y="0.372349" width="274.255" height="99.2553" fill="white"/>
<rect x="0.372349" y="0.372349" width="274.255" height="99.2553" stroke="#C8C9C4" stroke-width="0.744697"/>
<g clip-path="url(#clip0_10_4016)">
<path d="M73.1364 38.0795H82.2271C82.2271 38.0795 90.477 50.9911 90.7271 51.3379C90.9748 51.6871 91.0034 51.3379 91.0034 51.3379C90.6176 49.3413 90.2079 48.4429 90.2079 45.2494V38.0795H99.2629V62H90.2079C90.2079 62 82.1246 49.7748 81.8793 49.4376C81.6388 49.1004 81.6031 49.4376 81.6031 49.4376C81.9151 51.0898 82.189 51.362 82.189 54.228V62H73.1364V38.0795Z" fill="#2EB34A"/>
<path d="M113.536 53.3393L114.77 48.4863C115.034 47.5037 115.222 46.0923 115.222 46.0923C115.256 45.8756 115.548 45.8756 115.601 46.0995C115.656 46.4343 115.796 47.4507 116.075 48.4622L117.337 53.3393H113.536ZM111.84 59.0184H118.995L119.859 62H129.886L120.586 38.0795H110.111L101.059 62H111.083L111.84 59.0184Z" fill="#2EB34A"/>
<path d="M153.736 38.0795L143.645 62H135.623L125.532 38.0795H135.416L138.872 48.9656C139.25 50.1337 139.527 52.7131 139.527 52.7131C139.596 52.9178 139.827 52.8985 139.865 52.7131C139.865 52.7131 140.141 50.1337 140.515 48.9656L143.849 38.0795H153.736Z" fill="#2EB34A"/>
<path d="M155.7 38.0795H173.224V44.6159H165.239V46.8991H172.531V53.1177H165.239V55.4635H173.498V62H155.698V38.0795H155.7Z" fill="#2EB34A"/>
<path d="M186.619 44.534H187.343C188.974 44.534 190.389 44.7532 190.389 46.5957C190.389 48.4381 188.829 48.5922 187.279 48.5922H186.619V44.5316V44.534ZM177.357 61.9181H186.619V54.2424C186.619 54.2424 186.676 53.9679 186.85 54.2424L190.937 61.9181H201.864L196.193 54.1437C195.674 53.4476 194.797 52.8528 194.604 52.7179C194.409 52.5806 194.604 52.5228 194.604 52.5228C198.127 51.439 199.651 49.9241 199.651 46.3042C199.651 40.2832 194.671 37.9976 188.798 37.9976H177.357V61.9157V61.9181Z" fill="#2EB34A"/>
</g>
<defs>
<clipPath id="clip0_10_4016">
<rect width="128.727" height="24" fill="white" transform="translate(73.1364 38)"/>
</clipPath>
</defs>
</svg>
