<svg width="275" height="100" viewBox="0 0 275 100" fill="none" xmlns="http://www.w3.org/2000/svg">
<rect x="0.372349" y="0.372349" width="274.255" height="99.2553" fill="white"/>
<rect x="0.372349" y="0.372349" width="274.255" height="99.2553" stroke="#C8C9C4" stroke-width="0.744697"/>
<g clip-path="url(#clip0_10_4079)">
<path d="M97.7385 45.1523H87.3833C85.4436 45.1523 83.8693 46.752 83.8693 48.7355C83.8693 50.719 85.4436 52.3215 87.3833 52.3215H94.5213V57.4288C92.62 58.6251 90.3781 59.2975 88.0345 59.2975C81.6905 59.2975 77.1627 54.5936 77.1627 48.8083C77.1627 43.0231 81.6905 38.322 88.0345 38.322C90.8232 38.322 93.5239 39.2437 95.6175 40.9219C97.1451 42.1462 99.3541 41.8688 100.549 40.314C101.75 38.7591 101.483 36.5094 99.9585 35.2823C96.6258 32.6208 92.3947 31.8083 88.0345 31.8083C77.8139 31.8083 69.5 39.0729 69.5 48.8083C69.5 58.5438 77.8139 65.8083 88.0345 65.8083C92.5376 65.8083 96.8841 64.9034 100.266 62.0766C101.079 61.3931 102.189 60.3845 102.189 59.3031V49.1613C102.189 45.0738 97.7358 45.1467 97.7358 45.1467L97.7385 45.1523Z" fill="#0FA53D"/>
<path d="M90.9001 48.7328C90.9001 50.7107 89.3285 52.3188 87.3833 52.3188C85.4381 52.3188 83.8693 50.7107 83.8693 48.7328C83.8693 46.7548 85.4436 45.1495 87.3833 45.1495C89.323 45.1495 90.9001 46.7492 90.9001 48.7328Z" fill="#173F77"/>
<path d="M146.589 49.4331C146.589 47.1162 144.745 45.2363 142.473 45.2363H132.217V48.5786H140.094C141.11 48.5786 141.934 49.4163 141.934 50.4557V51.0776H135.395C132.835 51.0776 130.763 53.19 130.763 55.7983V57.6249C130.763 60.2304 132.835 62.3456 135.395 62.3456H146.589V49.4303V49.4331ZM135.31 56.8825V56.5799C135.31 55.4145 136.231 54.4675 137.376 54.4675H141.932V58.9977H137.376C136.231 58.9977 135.31 58.0508 135.31 56.8825Z" fill="#173F77"/>
<path d="M186.048 55.8347C188.603 55.8347 190.677 53.8428 190.677 51.3942V49.6796C190.677 47.2283 188.603 45.2391 186.048 45.2391H179.099C176.833 45.2391 174.989 47.119 174.989 49.4359V57.1375V58.1544C174.989 60.4713 176.833 62.3512 179.099 62.3512H189.353V59.0089H181.482C180.468 59.0089 179.641 58.1656 179.641 57.1347V55.8375H186.051L186.048 55.8347ZM186.13 50.3744V50.6602C186.13 51.7556 185.204 52.6493 184.059 52.6493H179.638V48.3881H184.059C185.204 48.3881 186.13 49.279 186.13 50.3744Z" fill="#173F77"/>
<path d="M111.089 50.4557C111.089 49.4163 111.916 48.5786 112.932 48.5786H115.493V62.3484H120.152V48.5786H122.669C123.686 48.5786 124.51 49.4163 124.51 50.4557V62.3484H129.172V49.4331C129.172 47.1162 127.329 45.2363 125.054 45.2363H110.547C108.275 45.2363 106.434 47.1162 106.434 49.4331V62.3484H111.089V50.4557Z" fill="#173F77"/>
<path d="M155.482 48.5786H159.491V45.2363H153.095C150.825 45.2363 148.982 47.1162 148.982 49.4331V62.3484H153.633V50.4557C153.633 49.4163 154.46 48.5786 155.479 48.5786H155.482Z" fill="#173F77"/>
<path d="M191.106 45.2363V48.5786H196.032V62.3484H200.684V48.5786H201.486H202.75H205.5V45.2363H191.106Z" fill="#173F77"/>
<path d="M175.451 62.3484L167.472 52.9351L174.767 45.2363H170.113L165.178 50.6154V45.2363H160.521V62.3484H165.178V55.8459L170.527 62.3484H175.451Z" fill="#173F77"/>
</g>
<defs>
<clipPath id="clip0_10_4079">
<rect width="136" height="34" fill="white" transform="translate(69.5 31.8083)"/>
</clipPath>
</defs>
</svg>
