<svg width="275" height="100" viewBox="0 0 275 100" fill="none" xmlns="http://www.w3.org/2000/svg">
<rect x="0.372349" y="0.372349" width="274.255" height="99.2553" fill="white"/>
<rect x="0.372349" y="0.372349" width="274.255" height="99.2553" stroke="#C8C9C4" stroke-width="0.744697"/>
<g clip-path="url(#clip0_10_4028)">
<path fill-rule="evenodd" clip-rule="evenodd" d="M81.8051 40.8008L78.9086 43.2627C78.9086 43.2627 77.7442 40.3883 74.5399 40.3883C71.3356 40.3883 69.432 41.6034 69.432 45.1916V50.198C69.432 51.5463 69.9872 55.0996 73.6167 55.0996C77.2461 55.0996 78.8483 52.2697 78.8483 52.2697L81.9257 54.6079C81.9257 54.6079 79.5114 59.04 73.7404 59.04C67.9695 59.04 64.9999 54.8617 64.9999 50.7024C64.9999 47.0571 65.1237 47.7361 65.1237 44.1891C65.1237 40.6421 67.9473 37.1142 72.5697 36.632C77.1922 36.1529 80.5583 38.3801 81.802 40.8008H81.8051Z" fill="#5B2E2A"/>
<path fill-rule="evenodd" clip-rule="evenodd" d="M105.254 37H109.622C109.622 37 109.559 46.8985 109.559 49.3699C109.559 51.8414 110.527 55.2202 113.867 55.2202C117.208 55.2202 118.547 53.6846 118.547 49.4937V37.1237H122.912V58.9162H119.162V56.9429C119.162 56.9429 116.58 59.1605 112.76 59.1605C108.94 59.1605 105.251 55.8388 105.251 51.2798C105.251 46.7208 105.187 37 105.251 37H105.254Z" fill="#5B2E2A"/>
<path fill-rule="evenodd" clip-rule="evenodd" d="M186.97 59.1605H182.601C182.601 59.1605 182.665 49.2621 182.665 46.7874C182.665 44.3128 181.7 40.9404 178.357 40.9404C175.013 40.9404 173.68 43.25 173.68 47.2062V59.0368H169.312V37.2475H173.065V39.2176C173.065 39.2176 174.258 36.8477 179.001 37.0032C183.747 37.1586 186.97 40.3217 186.97 44.8807C186.97 49.4397 187.034 59.1605 186.97 59.1605Z" fill="#BECD3A"/>
<path fill-rule="evenodd" clip-rule="evenodd" d="M91.5101 36.5718H93.7595C97.9156 36.5718 101.313 39.9791 101.313 44.1511V51.3338C101.313 55.5026 97.9156 58.9131 93.7595 58.9131H91.5101C87.3572 58.9131 83.9562 55.5026 83.9562 51.3338V44.1511C83.9562 39.9791 87.3572 36.5718 91.5101 36.5718ZM91.821 40.3852C89.7303 40.3852 88.0203 42.4855 88.0203 45.0458V50.436C88.0203 52.9963 89.7303 55.0965 91.821 55.0965H93.5723C95.6662 55.0965 97.3731 52.9994 97.3731 50.436V45.0458C97.3731 42.4855 95.663 40.3852 93.5723 40.3852H91.821Z" fill="#5B2E2A"/>
<path fill-rule="evenodd" clip-rule="evenodd" d="M127.164 37.1237V67.6536H131.904V57.4981C131.904 57.4981 132.881 59.0368 137.195 59.0368C141.51 59.0368 145.073 55.3439 145.073 51.5273V44.2018C145.073 42.0476 143.233 37.0571 138.363 36.816C133.496 36.5749 132.018 37.8598 131.348 39.1574V37.0634L127.161 37.1269L127.164 37.1237ZM135.33 40.3852H137.491C139.581 40.3852 141.291 42.4854 141.291 45.0457V50.4359C141.291 52.9962 139.578 55.0964 137.491 55.0964H135.33C133.239 55.0964 131.526 52.9994 131.526 50.4359V45.0457C131.526 42.4854 133.239 40.3852 135.33 40.3852Z" fill="#EE303B"/>
<path fill-rule="evenodd" clip-rule="evenodd" d="M149.388 38.6022L151.171 41.5559C151.171 41.5559 153.081 40.0806 156.526 40.3884C159.971 40.6961 160.774 43.0343 160.714 45.0648C160.714 45.0648 159.112 43.8338 155.727 43.8338C152.341 43.8338 149.08 46.0483 148.404 48.7577C147.728 51.4671 147.789 57.8059 153.204 58.8497C158.623 59.8966 161.145 56.9398 161.145 56.9398V58.9702H164.838V43.4626C164.838 35.7183 154.074 34.4049 149.388 38.6022ZM155.971 47.3617H156.529C158.556 47.3617 160.216 49.021 160.216 51.0483V51.7875C160.216 53.8148 158.556 55.4772 156.529 55.4772H155.971C153.944 55.4772 152.284 53.818 152.284 51.7875V51.0483C152.284 49.021 153.944 47.3617 155.971 47.3617Z" fill="#FDBA4C"/>
<path fill-rule="evenodd" clip-rule="evenodd" d="M204.375 38.5324C205.251 37.7012 206.78 36.1276 209.94 37.1873L210 40.4487C210 40.4487 207.877 39.7095 206.409 41.1403C206.903 42.1714 207.179 43.3357 207.179 44.5635C207.179 48.7577 203.934 52.1873 199.971 52.1873C197.44 52.1873 196.608 52.3554 194.34 55.5692C193.985 56.2514 194.619 55.9753 194.619 55.9753C196.012 55.1632 200.6 54.8395 203.569 55.4233C206.494 55.9404 209.451 58.5642 209.559 62.1492C209.664 65.7374 204.166 69.0242 204.166 69.0242L202.284 65.8833C204.093 64.0718 206.497 62.8535 204.2 60.3376C201.903 57.8281 196.259 59.1955 193.614 59.7856C190.968 60.3789 190.384 57.4982 190.619 55.325C190.857 53.1517 192.96 51.5876 193.785 51.0007C191.77 49.6428 190.431 47.2634 190.431 44.5667C190.431 40.3725 193.677 36.9398 197.64 36.9398H199.975C201.627 36.9398 203.153 37.5362 204.378 38.5356L204.375 38.5324ZM198.49 40.4233C196.123 40.4233 194.188 42.1682 194.188 44.3002V45.0807C194.188 47.2126 196.123 48.9576 198.49 48.9576H199.14C201.51 48.9576 203.442 47.2126 203.442 45.0807V44.3002C203.442 42.1682 201.51 40.4233 199.14 40.4233H198.49Z" fill="#52BEE3"/>
<path d="M141.164 72.4187C140.955 73.3102 140.593 73.9765 140.076 74.4143C139.559 74.8521 138.937 75.071 138.21 75.071C137.04 75.071 136.19 74.6649 135.653 73.8496C135.117 73.0342 134.851 72.0571 134.851 70.9117C134.851 69.6459 135.165 68.6529 135.793 67.9359C136.421 67.2189 137.23 66.8604 138.217 66.8604C138.912 66.8604 139.508 67.0571 140 67.4505C140.495 67.8439 140.841 68.4181 141.037 69.1763L140.111 69.4206C139.955 68.8686 139.717 68.453 139.4 68.177C139.083 67.8978 138.683 67.7614 138.207 67.7614C137.427 67.7614 136.837 68.0469 136.434 68.6148C136.031 69.1827 135.828 69.9473 135.828 70.9022C135.828 72.0063 136.04 72.828 136.466 73.3642C136.891 73.9035 137.443 74.17 138.125 74.17C138.683 74.17 139.137 74.0018 139.486 73.6656C139.835 73.3293 140.079 72.8248 140.219 72.1491L141.161 72.4156L141.164 72.4187Z" fill="#BCBEC0"/>
<path d="M144.15 69.062C144.848 69.062 145.428 69.3158 145.888 69.8203C146.348 70.3247 146.577 71.0449 146.577 71.9744C146.577 73.1039 146.329 73.9034 145.831 74.3698C145.333 74.8361 144.775 75.0709 144.15 75.0709C143.525 75.0709 142.928 74.8298 142.449 74.3507C141.967 73.8717 141.729 73.1102 141.729 72.0665C141.729 71.0227 141.961 70.3025 142.427 69.8076C142.89 69.3126 143.468 69.062 144.153 69.062H144.15ZM144.15 74.2714C144.651 74.2714 145.032 74.0652 145.292 73.6527C145.552 73.2403 145.682 72.701 145.682 72.0284C145.682 71.3114 145.536 70.7689 145.241 70.404C144.946 70.0392 144.584 69.8583 144.153 69.8583C143.721 69.8583 143.341 70.0423 143.055 70.4135C142.77 70.7847 142.627 71.3336 142.627 72.0665C142.627 72.7993 142.773 73.345 143.065 73.7162C143.356 74.0874 143.718 74.2714 144.153 74.2714H144.15Z" fill="#BCBEC0"/>
<path d="M148.29 74.9377H147.411V66.9999H148.29V74.9377Z" fill="#BCBEC0"/>
<path d="M151.554 69.062C152.252 69.062 152.833 69.3158 153.293 69.8203C153.753 70.3247 153.981 71.0449 153.981 71.9744C153.981 73.1039 153.734 73.9034 153.236 74.3698C152.738 74.8361 152.179 75.0709 151.554 75.0709C150.929 75.0709 150.333 74.8298 149.854 74.3507C149.372 73.8717 149.134 73.1102 149.134 72.0665C149.134 71.0227 149.365 70.3025 149.832 69.8076C150.295 69.3126 150.872 69.062 151.558 69.062H151.554ZM151.554 74.2714C152.056 74.2714 152.436 74.0652 152.697 73.6527C152.957 73.2403 153.087 72.701 153.087 72.0284C153.087 71.3114 152.941 70.7689 152.646 70.404C152.351 70.0392 151.989 69.8583 151.558 69.8583C151.126 69.8583 150.745 70.0423 150.46 70.4135C150.174 70.7847 150.032 71.3336 150.032 72.0665C150.032 72.7993 150.178 73.345 150.469 73.7162C150.761 74.0874 151.123 74.2714 151.558 74.2714H151.554Z" fill="#BCBEC0"/>
<path d="M156.707 69.062C157.005 69.062 157.306 69.1635 157.608 69.3698L157.306 70.2676C157.087 70.128 156.875 70.055 156.669 70.055C156.342 70.055 156.091 70.2168 155.923 70.5436C155.755 70.8704 155.669 71.3272 155.669 71.9173V74.9313H154.79V69.1857H155.59V70.0519H155.609C155.888 69.3888 156.253 69.0557 156.707 69.0557V69.062Z" fill="#BCBEC0"/>
<path d="M165.882 66.9999L163.036 71.5748V74.9377H162.084V71.5748L159.33 66.9999H160.482L162.053 69.668C162.211 69.9377 162.402 70.293 162.617 70.734C162.754 70.439 163.474 69.1921 164.781 66.9999H165.882Z" fill="#BCBEC0"/>
<path d="M168.534 69.062C169.232 69.062 169.813 69.3158 170.273 69.8203C170.733 70.3247 170.961 71.0449 170.961 71.9744C170.961 73.1039 170.714 73.9034 170.216 74.3698C169.717 74.8361 169.159 75.0709 168.534 75.0709C167.909 75.0709 167.313 74.8298 166.834 74.3507C166.351 73.8717 166.113 73.1102 166.113 72.0665C166.113 71.0227 166.345 70.3025 166.811 69.8076C167.275 69.3126 167.852 69.062 168.537 69.062H168.534ZM168.534 74.2714C169.035 74.2714 169.416 74.0652 169.676 73.6527C169.936 73.2403 170.066 72.701 170.066 72.0284C170.066 71.3114 169.921 70.7689 169.625 70.404C169.33 70.0392 168.969 69.8583 168.537 69.8583C168.106 69.8583 167.725 70.0423 167.44 70.4135C167.154 70.7847 167.011 71.3336 167.011 72.0665C167.011 72.7993 167.157 73.345 167.449 73.7162C167.741 74.0874 168.103 74.2714 168.537 74.2714H168.534Z" fill="#BCBEC0"/>
<path d="M175.99 74.9377H175.206V74.0938H175.181C174.784 74.7473 174.242 75.0741 173.556 75.0741C173.195 75.0741 172.861 74.9821 172.554 74.7949C172.246 74.6077 172.043 74.3539 171.938 74.0272C171.837 73.7004 171.786 73.2784 171.786 72.7581V69.1953H172.665V72.3774C172.665 72.885 172.687 73.2499 172.731 73.472C172.776 73.6909 172.89 73.8749 173.074 74.0145C173.258 74.1572 173.48 74.227 173.737 74.227C174.067 74.227 174.381 74.1001 174.673 73.8463C174.965 73.5925 175.111 73.0627 175.111 72.2632V69.1921H175.99V74.9377Z" fill="#BCBEC0"/>
<path d="M179.054 69.062C179.353 69.062 179.654 69.1635 179.955 69.3698L179.654 70.2676C179.435 70.128 179.223 70.055 179.016 70.055C178.69 70.055 178.439 70.2168 178.271 70.5436C178.103 70.8704 178.017 71.3272 178.017 71.9173V74.9313H177.138V69.1857H177.938V70.0519H177.957C178.236 69.3888 178.601 69.0557 179.054 69.0557V69.062Z" fill="#BCBEC0"/>
<path d="M182.427 66.9999H184.895C185.327 66.9999 185.701 67.0253 186.012 67.0728C186.323 67.1204 186.621 67.241 186.907 67.4314C187.192 67.6217 187.44 67.8819 187.652 68.215C187.865 68.5481 188.033 68.9288 188.153 69.3603C188.274 69.7918 188.337 70.3152 188.337 70.9275C188.337 72.0982 188.087 73.0564 187.585 73.8114C187.084 74.5633 186.224 74.9409 185.003 74.9409H182.43V67.003L182.427 66.9999ZM183.372 73.9954H184.905C185.216 73.9954 185.495 73.9732 185.742 73.932C185.986 73.8876 186.237 73.7702 186.488 73.5798C186.738 73.3895 186.948 73.0754 187.113 72.6376C187.278 72.1998 187.36 71.6223 187.36 70.9053C187.36 70.5088 187.328 70.1376 187.265 69.7918C187.202 69.4459 187.084 69.1319 186.913 68.8495C186.742 68.5671 186.545 68.3577 186.326 68.2277C186.104 68.0944 185.888 68.0151 185.679 67.9866C185.469 67.958 185.2 67.9421 184.873 67.9421H183.372V73.9954Z" fill="#BCBEC0"/>
<path d="M193.81 74.9376H192.89C192.804 74.7568 192.744 74.522 192.709 74.227C192.122 74.7885 191.485 75.0709 190.803 75.0709C190.257 75.0709 189.825 74.9186 189.511 74.6172C189.197 74.3126 189.039 73.9129 189.039 73.4148C189.039 72.9167 189.191 72.5455 189.495 72.2378C189.8 71.93 190.327 71.7238 191.079 71.6223L191.897 71.4859C192.202 71.4319 192.456 71.3653 192.652 71.286C192.652 70.9941 192.643 70.7879 192.627 70.6673C192.611 70.5468 192.563 70.4199 192.484 70.2898C192.405 70.1597 192.278 70.055 192.1 69.9757C191.926 69.8964 191.688 69.8552 191.393 69.8552C191.015 69.8552 190.717 69.9313 190.498 70.0868C190.279 70.2422 190.127 70.5309 190.048 70.9529L189.191 70.8291C189.286 70.2422 189.527 69.7981 189.917 69.503C190.308 69.208 190.844 69.0588 191.526 69.0588C192.148 69.0588 192.601 69.1604 192.893 69.3634C193.185 69.5665 193.363 69.8139 193.429 70.1026C193.496 70.3913 193.528 70.7625 193.528 71.2194V72.5297C193.528 73.326 193.541 73.8621 193.569 74.135C193.598 74.4078 193.677 74.6743 193.81 74.9345V74.9376ZM192.649 72.4091V72.0569C192.192 72.2251 191.631 72.3615 190.968 72.4599C190.304 72.5582 189.975 72.8691 189.975 73.3926C189.975 73.6559 190.063 73.8748 190.244 74.0461C190.422 74.2175 190.679 74.3031 191.015 74.3031C191.447 74.3031 191.827 74.1604 192.157 73.8717C192.487 73.5861 192.652 73.0975 192.652 72.4059L192.649 72.4091Z" fill="#BCBEC0"/>
<path d="M198.943 69.1921L196.964 75.0329C196.964 75.0329 196.957 75.0519 196.954 75.0709C196.767 75.7213 196.545 76.248 196.294 76.6541C196.044 77.0602 195.685 77.2632 195.219 77.2632C195.063 77.2632 194.873 77.2283 194.648 77.1553L194.559 76.2353C194.727 76.2924 194.892 76.3209 195.057 76.3209C195.381 76.3209 195.606 76.2226 195.733 76.0227C195.856 75.8228 195.999 75.4643 196.155 74.944L194.191 69.189H195.136L196.355 72.9517C196.427 73.1833 196.504 73.4815 196.583 73.8463H196.602C196.684 73.4275 196.786 73.0278 196.913 72.6503L198.049 69.1921H198.94H198.943Z" fill="#BCBEC0"/>
<path d="M202.392 70.8006C202.354 70.4865 202.24 70.2517 202.049 70.0931C201.859 69.9345 201.596 69.8583 201.256 69.8583C200.917 69.8583 200.65 69.9218 200.444 70.0487C200.238 70.1756 200.133 70.3596 200.133 70.6007C200.133 70.8291 200.216 70.9909 200.381 71.0893C200.546 71.1876 200.869 71.305 201.355 71.4478C201.9 71.6033 202.309 71.7397 202.579 71.8602C202.852 71.9808 203.061 72.1458 203.214 72.3615C203.366 72.5772 203.439 72.8755 203.439 73.2562C203.439 73.7701 203.252 74.2016 202.874 74.5506C202.497 74.8996 201.992 75.0772 201.364 75.0772C200.736 75.0772 200.193 74.9218 199.825 74.614C199.457 74.3063 199.229 73.8431 199.146 73.2244L200.019 73.0785C200.063 73.4783 200.2 73.7797 200.422 73.9764C200.644 74.1762 200.955 74.2746 201.355 74.2746C201.754 74.2746 202.033 74.1857 202.237 74.0081C202.44 73.8304 202.544 73.6115 202.544 73.3545C202.544 73.18 202.497 73.0436 202.402 72.9389C202.306 72.8342 202.189 72.7549 202.049 72.7041C201.907 72.6534 201.589 72.5582 201.098 72.425C200.362 72.2314 199.879 71.9935 199.641 71.7143C199.407 71.4351 199.289 71.1052 199.289 70.7181C199.289 70.239 199.461 69.8425 199.806 69.5316C200.152 69.2206 200.615 69.0652 201.196 69.0652C201.815 69.0652 202.294 69.1984 202.636 69.4681C202.979 69.7378 203.185 70.1375 203.252 70.6737L202.395 70.8038L202.392 70.8006Z" fill="#BCBEC0"/>
<path fill-rule="evenodd" clip-rule="evenodd" d="M81.8018 40.7942L78.9053 43.253C78.9053 43.253 77.7441 40.3786 74.5398 40.3786C71.3355 40.3786 69.4319 41.5906 69.4319 45.1788V50.1851C69.4319 51.5303 69.9871 55.0868 73.6166 55.0868C77.246 55.0868 78.8482 52.2568 78.8482 52.2568L81.9256 54.595C81.9256 54.595 79.5112 59.0271 73.7403 59.0271C67.9694 59.0271 64.9998 54.8583 64.9998 50.6927C64.9998 47.0474 65.1235 47.7264 65.1235 44.1826C65.1235 40.6388 67.9472 37.1077 72.5696 36.6255C77.1921 36.1432 80.5582 38.3704 81.8018 40.7942Z" fill="#5B2E2A"/>
<path fill-rule="evenodd" clip-rule="evenodd" d="M105.254 36.9935H109.625C109.625 36.9935 109.562 46.892 109.562 49.3635C109.562 51.8349 110.526 55.2105 113.87 55.2105C117.214 55.2105 118.547 53.675 118.547 49.4872V37.1173H122.919V58.9098H119.162V56.9364C119.162 56.9364 116.58 59.1541 112.76 59.1541C108.94 59.1541 105.25 55.8324 105.25 51.2765C105.25 46.7207 105.19 36.9967 105.25 36.9967L105.254 36.9935Z" fill="#5B2E2A"/>
<path fill-rule="evenodd" clip-rule="evenodd" d="M186.973 59.154H182.601C182.601 59.154 182.662 49.2555 182.662 46.7809C182.662 44.3063 181.697 40.9338 178.353 40.9338C175.009 40.9338 173.674 43.2403 173.674 47.1997V59.0303H169.305V37.2378H173.058V39.2111C173.058 39.2111 174.251 36.8412 178.997 36.9935C183.74 37.1489 186.97 40.3152 186.97 44.871C186.97 49.4269 187.03 59.1508 186.97 59.1508L186.973 59.154Z" fill="#BECD3A"/>
<path fill-rule="evenodd" clip-rule="evenodd" d="M91.5131 36.5653H93.7625C97.9186 36.5653 101.316 39.9758 101.316 44.1478V51.3274C101.316 55.4961 97.9186 58.9067 93.7625 58.9067H91.5131C87.357 58.9067 83.9592 55.4961 83.9592 51.3274V44.1478C83.9592 39.979 87.357 36.5653 91.5131 36.5653ZM91.8208 40.3788C89.7301 40.3788 88.0201 42.4758 88.0201 45.0393V50.4295C88.0201 52.993 89.7301 55.0901 91.8208 55.0901H93.5721C95.6628 55.0901 97.3729 52.993 97.3729 50.4295V45.0393C97.3729 42.4758 95.6628 40.3788 93.5721 40.3788H91.8208Z" fill="#5B2E2A"/>
<path fill-rule="evenodd" clip-rule="evenodd" d="M127.167 37.1173V67.6471H131.907V57.4917C131.907 57.4917 132.884 59.0304 137.198 59.0304C141.513 59.0304 145.076 55.3407 145.076 51.5209V44.1954C145.076 42.0412 143.236 37.0507 138.366 36.8096C133.496 36.5685 132.021 37.8502 131.348 39.1478V37.0539L127.164 37.1173H127.167ZM135.33 40.3787H137.49C139.581 40.3787 141.291 42.4758 141.291 45.0393V50.4295C141.291 52.9898 139.581 55.09 137.49 55.09H135.33C133.239 55.09 131.529 52.993 131.529 50.4295V45.0393C131.529 42.4758 133.239 40.3787 135.33 40.3787Z" fill="#EE303B"/>
<path fill-rule="evenodd" clip-rule="evenodd" d="M149.384 38.5957L151.171 41.5494C151.171 41.5494 153.077 40.0741 156.526 40.3818C159.974 40.6896 160.774 43.0246 160.71 45.0582C160.71 45.0582 159.112 43.8273 155.723 43.8273C152.335 43.8273 149.077 46.0417 148.398 48.7511C147.722 51.4605 147.782 57.7994 153.198 58.8463C158.613 59.8933 161.139 56.9396 161.139 56.9396V58.97H164.835V43.4561C164.835 35.7118 154.067 34.3952 149.384 38.5957ZM155.971 47.3552H156.529C158.556 47.3552 160.216 49.0145 160.216 51.0417V51.781C160.216 53.8082 158.556 55.4675 156.529 55.4675H155.971C153.943 55.4675 152.284 53.8082 152.284 51.781V51.0417C152.284 49.0145 153.943 47.3552 155.971 47.3552Z" fill="#FDBA4C"/>
<path fill-rule="evenodd" clip-rule="evenodd" d="M204.375 38.5259C205.254 37.6915 206.783 36.1211 209.943 37.1807L210 40.4421C210 40.4421 207.881 39.7029 206.408 41.1338C206.903 42.1649 207.179 43.3292 207.179 44.557C207.179 48.7511 203.937 52.1839 199.971 52.1839C197.443 52.1839 196.611 52.3552 194.34 55.5659C193.988 56.2448 194.619 55.972 194.619 55.972C196.012 55.1598 200.603 54.8362 203.569 55.4168C206.494 55.9339 209.454 58.5576 209.559 62.1426C209.664 65.7277 204.162 69.0176 204.162 69.0176L202.281 65.8768C204.092 64.0652 206.494 62.847 204.197 60.3343C201.9 57.8216 196.259 59.189 193.613 59.7791C190.967 60.3692 190.381 57.4916 190.618 55.3184C190.856 53.1452 192.96 51.5779 193.785 50.991C191.773 49.6331 190.431 47.2537 190.431 44.557C190.431 40.3628 193.677 36.9301 197.639 36.9301H199.974C201.627 36.9301 203.153 37.5265 204.375 38.5259ZM198.493 40.4168C196.126 40.4168 194.191 42.1617 194.191 44.2937V45.0709C194.191 47.2029 196.126 48.9478 198.493 48.9478H199.143C201.51 48.9478 203.445 47.2029 203.445 45.0709V44.2937C203.445 42.1617 201.51 40.4168 199.143 40.4168H198.493Z" fill="#52BEE3"/>
</g>
<defs>
<clipPath id="clip0_10_4028">
<rect width="145" height="41.0184" fill="white" transform="translate(65 36.245)"/>
</clipPath>
</defs>
</svg>
