<svg width="275" height="80" viewBox="0 0 275 80" fill="none" xmlns="http://www.w3.org/2000/svg">
<rect x="0.372349" y="0.372349" width="274.255" height="79.2553" fill="white"/>
<rect x="0.372349" y="0.372349" width="274.255" height="79.2553" stroke="#C8C9C4" stroke-width="0.744697"/>
<g clip-path="url(#clip0_359_1747)">
<path d="M100.077 35.3671H90.3314C88.5057 35.3671 87.024 36.8727 87.024 38.7395C87.024 40.6064 88.5057 42.1146 90.3314 42.1146H97.0494V46.9215C95.26 48.0474 93.1499 48.6802 90.9442 48.6802C84.9735 48.6802 80.712 44.2531 80.712 38.8081C80.712 33.3631 84.9735 28.9386 90.9442 28.9386C93.5688 28.9386 96.1107 29.8061 98.0812 31.3856C99.5189 32.5378 101.598 32.2768 102.723 30.8134C103.853 29.35 103.602 27.2326 102.167 26.0777C99.0302 23.5728 95.048 22.8081 90.9442 22.8081C81.3248 22.8081 73.5 29.6453 73.5 38.8081C73.5 47.9709 81.3248 54.8081 90.9442 54.8081C95.1824 54.8081 99.2733 53.9564 102.456 51.2959C103.222 50.6525 104.267 49.7033 104.267 48.6855V39.1403C104.267 35.2933 100.075 35.3618 100.075 35.3618L100.077 35.3671Z" fill="#0FA53D"/>
<path d="M93.6406 38.7367C93.6406 40.5983 92.1615 42.1118 90.3307 42.1118C88.5 42.1118 87.0234 40.5983 87.0234 38.7367C87.0234 36.8751 88.5051 35.3643 90.3307 35.3643C92.1564 35.3643 93.6406 36.8699 93.6406 38.7367Z" fill="#173F77"/>
<path d="M146.055 39.3962C146.055 37.2156 144.32 35.4463 142.181 35.4463H132.528V38.592H139.942C140.899 38.592 141.674 39.3804 141.674 40.3586V40.944H135.52C133.11 40.944 131.16 42.9321 131.16 45.387V47.1061C131.16 49.5584 133.11 51.5491 135.52 51.5491H146.055V39.3936V39.3962ZM135.44 46.4074V46.1226C135.44 45.0257 136.306 44.1345 137.384 44.1345H141.672V48.3982H137.384C136.306 48.3982 135.44 47.5069 135.44 46.4074Z" fill="#173F77"/>
<path d="M183.191 45.421C185.596 45.421 187.548 43.5463 187.548 41.2417V39.628C187.548 37.3208 185.596 35.4487 183.191 35.4487H176.652C174.518 35.4487 172.783 37.218 172.783 39.3986V46.6471V47.6043C172.783 49.7849 174.518 51.5542 176.652 51.5542H186.302V48.4085H178.894C177.939 48.4085 177.161 47.6148 177.161 46.6445V45.4237H183.194L183.191 45.421ZM183.269 40.282V40.5509C183.269 41.5819 182.397 42.423 181.319 42.423H177.158V38.4125H181.319C182.397 38.4125 183.269 39.251 183.269 40.282Z" fill="#173F77"/>
<path d="M112.642 40.3586C112.642 39.3804 113.421 38.592 114.377 38.592H116.787V51.5518H121.173V38.592H123.542C124.498 38.592 125.274 39.3804 125.274 40.3586V51.5518H129.662V39.3962C129.662 37.2156 127.927 35.4463 125.786 35.4463H112.133C109.994 35.4463 108.262 37.2156 108.262 39.3962V51.5518H112.642V40.3586Z" fill="#173F77"/>
<path d="M154.425 38.592H158.198V35.4463H152.178C150.042 35.4463 148.307 37.2156 148.307 39.3962V51.5518H152.684V40.3586C152.684 39.3804 153.463 38.592 154.422 38.592H154.425Z" fill="#173F77"/>
<path d="M187.953 35.4463V38.592H192.59V51.5518H196.967V38.592H197.723H198.912H201.5V35.4463H187.953Z" fill="#173F77"/>
<path d="M173.218 51.5518L165.708 42.6922L172.574 35.4463H168.193L163.549 40.5089V35.4463H159.166V51.5518H163.549V45.4318L168.584 51.5518H173.218Z" fill="#173F77"/>
</g>
<defs>
<clipPath id="clip0_359_1747">
<rect width="128" height="32" fill="white" transform="translate(73.5 22.8081)"/>
</clipPath>
</defs>
</svg>
