<svg width="275" height="80" viewBox="0 0 275 80" fill="none" xmlns="http://www.w3.org/2000/svg">
<rect x="0.372349" y="0.372349" width="274.255" height="79.2553" fill="white"/>
<rect x="0.372349" y="0.372349" width="274.255" height="79.2553" stroke="#C8C9C4" stroke-width="0.744697"/>
<g clip-path="url(#clip0_359_1732)">
<path d="M200.803 29.488V48.9676C200.803 48.9676 200.691 49.1836 200.578 49.1836H194.205C194.205 49.1836 194.055 49.1476 193.98 49.0756L186.969 36.6893V48.9676C186.969 48.9676 186.857 49.1836 186.744 49.1836H181.983C181.983 49.1836 181.758 49.0756 181.758 48.9676V29.488C181.758 29.488 181.87 29.272 181.983 29.272H188.356C188.356 29.272 188.506 29.308 188.581 29.38L195.592 41.8383V29.488C195.592 29.488 195.704 29.272 195.817 29.272H200.578C200.578 29.272 200.803 29.38 200.803 29.488Z" fill="#DA2730"/>
<path d="M167.624 28.9478C158.251 28.9478 156.414 35.609 156.414 39.2456C156.414 42.8823 158.251 49.5435 167.624 49.5435C176.996 49.5435 178.833 42.8823 178.833 39.2456C178.833 35.609 176.996 28.9478 167.624 28.9478ZM167.624 45.1507C164.025 45.1507 162.563 42.4142 162.563 39.2456C162.563 36.077 164.025 33.3406 167.624 33.3406C171.223 33.3406 172.647 36.077 172.647 39.2456C172.647 42.4142 171.185 45.1507 167.624 45.1507Z" fill="#DA2730"/>
<path d="M153.039 49.2195H147.678C147.678 49.2195 147.453 49.1115 147.453 49.0034V29.4879C147.453 29.4879 147.566 29.2358 147.678 29.2358H153.039C153.039 29.2358 153.302 29.3439 153.302 29.4879V48.9674C153.302 48.9674 153.189 49.1835 153.039 49.1835" fill="#DA2730"/>
<path d="M145.053 29.2358H129.232C129.232 29.2358 129.045 29.3079 129.045 29.4159V33.3046C129.045 33.3046 129.12 33.4846 129.232 33.4846H134.219V49.0394C134.219 49.0394 134.294 49.2195 134.406 49.2195H139.88C139.88 49.2195 140.067 49.1475 140.067 49.0394V33.4846H145.053C145.053 33.4846 145.241 33.4126 145.241 33.3046V29.4159C145.241 29.4159 145.166 29.2358 145.053 29.2358Z" fill="#DA2730"/>
<path d="M122.186 33.2328C125.035 33.2328 126.197 33.7009 126.61 33.9169C126.685 33.9529 126.797 33.9169 126.797 33.8089V29.6681C126.797 29.6681 126.797 29.5601 126.722 29.5601C126.347 29.4161 124.66 28.876 121.736 28.876C118.399 28.876 109.289 30.0282 109.289 39.2459C109.289 48.4635 118.437 49.6157 121.736 49.6157C124.66 49.6157 126.347 49.0757 126.722 48.9316C126.76 48.9316 126.797 48.8596 126.797 48.8236V44.6829C126.797 44.6829 126.685 44.5388 126.61 44.5748C126.197 44.7909 125.035 45.259 122.186 45.259C118.737 45.259 115.4 43.8547 115.4 39.2819C115.4 34.709 118.737 33.3048 122.186 33.3048" fill="#DA2730"/>
<path d="M100.554 29.3081C100.554 29.3081 100.291 29.4161 100.291 29.5602V41.2623C100.291 41.2623 100.329 45.295 96.6921 45.295C93.0556 45.295 93.093 41.2623 93.093 41.2623V29.5602C93.093 29.5602 92.9806 29.3081 92.8306 29.3081H87.4695C87.4695 29.3081 87.207 29.4161 87.207 29.5602V41.8024C87.207 47.2034 91.406 49.5798 96.7296 49.5798C102.053 49.5798 106.252 47.2034 106.252 41.8024V29.5602C106.252 29.5602 106.14 29.3081 105.99 29.3081H100.629H100.554Z" fill="#DA2730"/>
<path d="M211.75 45.8349C211.75 47.9233 209.988 49.6156 207.813 49.6156C205.639 49.6156 203.877 47.9233 203.877 45.8349C203.877 43.7465 205.639 42.0542 207.813 42.0542C209.988 42.0542 211.75 43.7465 211.75 45.8349Z" fill="#DA2730"/>
<path d="M78.2462 27.6157H66.2492C66.2492 27.6157 66.0618 27.6877 66.0618 27.7958V31.8285C66.0618 31.8285 66.1368 32.0085 66.2492 32.0085H69.211L63.25 49.0396C63.25 49.0396 63.2875 49.2917 63.4375 49.2917H69.0985C69.0985 49.2917 69.2485 49.2197 69.286 49.1476L70.4857 45.2229H78.4337L79.5959 49.1476C79.5959 49.1476 79.7083 49.2917 79.7833 49.2917H85.6693C85.6693 49.2917 85.8943 49.1476 85.8568 49.0396L78.4337 27.7597C78.4337 27.7597 78.3212 27.6157 78.2462 27.6157ZM71.7978 40.8301L74.4597 32.0085L77.1215 40.8301H71.7978Z" fill="#DA2730"/>
</g>
<defs>
<clipPath id="clip0_359_1732">
<rect width="148.5" height="22" fill="white" transform="translate(63.25 27.6157)"/>
</clipPath>
</defs>
</svg>
