<svg width="275" height="80" viewBox="0 0 275 80" fill="none" xmlns="http://www.w3.org/2000/svg">
<rect x="0.372349" y="0.372349" width="274.255" height="79.2553" fill="white"/>
<rect x="0.372349" y="0.372349" width="274.255" height="79.2553" stroke="#C8C9C4" stroke-width="0.744697"/>
<g clip-path="url(#clip0_359_1695)">
<path fill-rule="evenodd" clip-rule="evenodd" d="M88.6183 32.7523L86.0761 34.9131C86.0761 34.9131 85.0542 32.3904 82.2419 32.3904C79.4297 32.3904 77.759 33.4568 77.759 36.606V40.9998C77.759 42.1832 78.2463 45.3018 81.4317 45.3018C84.6171 45.3018 86.0232 42.8181 86.0232 42.8181L88.7241 44.8702C88.7241 44.8702 86.6052 48.7601 81.5403 48.7601C76.4754 48.7601 73.8691 45.093 73.8691 41.4426C73.8691 38.2433 73.9777 38.8391 73.9777 35.7261C73.9777 32.6131 76.4559 29.5168 80.5128 29.0936C84.5697 28.6731 87.524 30.6278 88.6155 32.7523H88.6183Z" fill="#5B2E2A"/>
<path fill-rule="evenodd" clip-rule="evenodd" d="M109.197 29.4165H113.032C113.032 29.4165 112.976 38.104 112.976 40.273C112.976 42.4421 113.825 45.4075 116.757 45.4075C119.689 45.4075 120.864 44.0599 120.864 40.3816V29.5251H124.696V48.6514H121.404V46.9195C121.404 46.9195 119.138 48.8658 115.785 48.8658C112.433 48.8658 109.195 45.9505 109.195 41.9493C109.195 37.948 109.139 29.4165 109.195 29.4165H109.197Z" fill="#5B2E2A"/>
<path fill-rule="evenodd" clip-rule="evenodd" d="M180.916 48.8655H177.082C177.082 48.8655 177.138 40.1781 177.138 38.0062C177.138 35.8344 176.291 32.8745 173.356 32.8745C170.422 32.8745 169.252 34.9016 169.252 38.3738V48.757H165.418V29.6334H168.712V31.3626C168.712 31.3626 169.759 29.2826 173.922 29.419C178.087 29.5555 180.916 32.3316 180.916 36.3328C180.916 40.334 180.972 48.8655 180.916 48.8655Z" fill="#BECD3A"/>
<path fill-rule="evenodd" clip-rule="evenodd" d="M97.1356 29.0405H99.1098C102.757 29.0405 105.74 32.031 105.74 35.6925V41.9965C105.74 45.6553 102.757 48.6485 99.1098 48.6485H97.1356C93.4908 48.6485 90.5059 45.6553 90.5059 41.9965V35.6925C90.5059 32.031 93.4908 29.0405 97.1356 29.0405ZM97.4085 32.3874C95.5735 32.3874 94.0727 34.2307 94.0727 36.4778V41.2085C94.0727 43.4556 95.5735 45.2989 97.4085 45.2989H98.9455C100.783 45.2989 102.281 43.4583 102.281 41.2085V36.4778C102.281 34.2307 100.78 32.3874 98.9455 32.3874H97.4085Z" fill="#5B2E2A"/>
<path fill-rule="evenodd" clip-rule="evenodd" d="M128.427 29.5249V56.3195H132.587V47.4065C132.587 47.4065 133.444 48.757 137.231 48.757C141.018 48.757 144.145 45.5159 144.145 42.1662V35.737C144.145 33.8463 142.53 29.4664 138.256 29.2548C133.984 29.0432 132.687 30.1709 132.099 31.3097V29.472L128.424 29.5277L128.427 29.5249ZM135.594 32.3873H137.49C139.325 32.3873 140.826 34.2306 140.826 36.4776V41.2084C140.826 43.4554 139.322 45.2987 137.49 45.2987H135.594C133.759 45.2987 132.255 43.4582 132.255 41.2084V36.4776C132.255 34.2306 133.759 32.3873 135.594 32.3873Z" fill="#EE303B"/>
<path fill-rule="evenodd" clip-rule="evenodd" d="M147.932 30.8225L149.497 33.4148C149.497 33.4148 151.173 32.12 154.197 32.3901C157.221 32.6602 157.926 34.7124 157.873 36.4944C157.873 36.4944 156.467 35.414 153.496 35.414C150.525 35.414 147.662 37.3576 147.069 39.7355C146.476 42.1134 146.529 47.6767 151.282 48.5928C156.038 49.5116 158.251 46.9166 158.251 46.9166V48.6986H161.492V35.0883C161.492 28.2914 152.045 27.1387 147.932 30.8225ZM153.71 38.5103H154.2C155.979 38.5103 157.436 39.9666 157.436 41.7458V42.3946C157.436 44.1739 155.979 45.6329 154.2 45.6329H153.71C151.931 45.6329 150.474 44.1767 150.474 42.3946V41.7458C150.474 39.9666 151.931 38.5103 153.71 38.5103Z" fill="#FDBA4C"/>
<path fill-rule="evenodd" clip-rule="evenodd" d="M196.193 30.7614C196.961 30.0318 198.303 28.6508 201.077 29.5808L201.129 32.4432C201.129 32.4432 199.267 31.7944 197.978 33.0502C198.412 33.9551 198.654 34.977 198.654 36.0546C198.654 39.7356 195.806 42.7456 192.328 42.7456C190.106 42.7456 189.376 42.8932 187.386 45.7138C187.074 46.3125 187.631 46.0702 187.631 46.0702C188.853 45.3574 192.879 45.0734 195.485 45.5857C198.053 46.0396 200.648 48.3423 200.742 51.4887C200.834 54.6379 196.009 57.5226 196.009 57.5226L194.358 54.766C195.945 53.1761 198.055 52.1069 196.04 49.8988C194.024 47.6963 189.07 48.8964 186.748 49.4143C184.426 49.935 183.913 47.4067 184.119 45.4994C184.328 43.5921 186.174 42.2193 186.898 41.7042C185.13 40.5125 183.955 38.4241 183.955 36.0574C183.955 32.3763 186.804 29.3636 190.281 29.3636H192.331C193.781 29.3636 195.121 29.8871 196.195 30.7642L196.193 30.7614ZM191.028 32.4209C188.95 32.4209 187.252 33.9523 187.252 35.8235V36.5085C187.252 38.3796 188.95 39.911 191.028 39.911H191.598C193.678 39.911 195.374 38.3796 195.374 36.5085V35.8235C195.374 33.9523 193.678 32.4209 191.598 32.4209H191.028Z" fill="#52BEE3"/>
<path d="M140.715 60.5019C140.531 61.2843 140.214 61.869 139.76 62.2533C139.306 62.6375 138.76 62.8297 138.123 62.8297C137.095 62.8297 136.349 62.4733 135.878 61.7577C135.408 61.0421 135.174 60.1844 135.174 59.1793C135.174 58.0683 135.449 57.1967 136.001 56.5675C136.552 55.9382 137.262 55.6235 138.128 55.6235C138.738 55.6235 139.261 55.7962 139.693 56.1414C140.127 56.4867 140.431 56.9907 140.603 57.6562L139.79 57.8706C139.654 57.3861 139.445 57.0213 139.167 56.7791C138.888 56.534 138.537 56.4143 138.12 56.4143C137.435 56.4143 136.917 56.6649 136.563 57.1633C136.21 57.6617 136.031 58.3328 136.031 59.1709C136.031 60.1399 136.218 60.8611 136.591 61.3316C136.964 61.805 137.449 62.0389 138.047 62.0389C138.537 62.0389 138.936 61.8913 139.242 61.5962C139.548 61.301 139.763 60.8583 139.885 60.2652L140.712 60.4991L140.715 60.5019Z" fill="#BCBEC0"/>
<path d="M143.335 57.5557C143.948 57.5557 144.458 57.7784 144.861 58.2211C145.265 58.6639 145.466 59.2959 145.466 60.1118C145.466 61.103 145.248 61.8047 144.811 62.214C144.374 62.6233 143.884 62.8294 143.335 62.8294C142.787 62.8294 142.263 62.6178 141.843 62.1973C141.42 61.7769 141.211 61.1086 141.211 60.1925C141.211 59.2764 141.414 58.6444 141.824 58.21C142.23 57.7756 142.737 57.5557 143.338 57.5557H143.335ZM143.335 62.1277C143.775 62.1277 144.11 61.9467 144.338 61.5847C144.566 61.2228 144.68 60.7494 144.68 60.1591C144.68 59.5298 144.552 59.0537 144.293 58.7335C144.034 58.4133 143.717 58.2546 143.338 58.2546C142.96 58.2546 142.625 58.4161 142.375 58.7418C142.124 59.0676 141.999 59.5493 141.999 60.1925C141.999 60.8357 142.127 61.3147 142.383 61.6404C142.639 61.9662 142.957 62.1277 143.338 62.1277H143.335Z" fill="#BCBEC0"/>
<path d="M146.969 62.7128H146.197V55.7461H146.969V62.7128Z" fill="#BCBEC0"/>
<path d="M149.834 57.5557C150.446 57.5557 150.956 57.7784 151.359 58.2211C151.763 58.6639 151.964 59.2959 151.964 60.1118C151.964 61.103 151.746 61.8047 151.309 62.214C150.872 62.6233 150.382 62.8294 149.834 62.8294C149.285 62.8294 148.761 62.6178 148.341 62.1973C147.918 61.7769 147.709 61.1086 147.709 60.1925C147.709 59.2764 147.912 58.6444 148.322 58.21C148.728 57.7756 149.235 57.5557 149.836 57.5557H149.834ZM149.834 62.1277C150.273 62.1277 150.608 61.9467 150.836 61.5847C151.064 61.2228 151.178 60.7494 151.178 60.1591C151.178 59.5298 151.05 59.0537 150.791 58.7335C150.532 58.4133 150.215 58.2546 149.836 58.2546C149.458 58.2546 149.123 58.4161 148.873 58.7418C148.622 59.0676 148.497 59.5493 148.497 60.1925C148.497 60.8357 148.625 61.3147 148.881 61.6404C149.137 61.9662 149.455 62.1277 149.836 62.1277H149.834Z" fill="#BCBEC0"/>
<path d="M154.356 57.5559C154.617 57.5559 154.882 57.645 155.146 57.826L154.882 58.6139C154.69 58.4914 154.503 58.4274 154.322 58.4274C154.035 58.4274 153.815 58.5694 153.668 58.8562C153.52 59.143 153.445 59.544 153.445 60.0619V62.7071H152.674V57.6645H153.376V58.4246H153.392C153.637 57.8427 153.957 57.5503 154.356 57.5503V57.5559Z" fill="#BCBEC0"/>
<path d="M162.408 55.7461L159.91 59.7613V62.7128H159.075V59.7613L156.658 55.7461H157.669L159.047 58.0878C159.186 58.3245 159.354 58.6363 159.543 59.0234C159.663 58.7644 160.295 57.6701 161.442 55.7461H162.408Z" fill="#BCBEC0"/>
<path d="M164.736 57.5557C165.348 57.5557 165.858 57.7784 166.262 58.2211C166.665 58.6639 166.866 59.2959 166.866 60.1118C166.866 61.103 166.649 61.8047 166.212 62.214C165.774 62.6233 165.284 62.8294 164.736 62.8294C164.187 62.8294 163.664 62.6178 163.243 62.1973C162.82 61.7769 162.611 61.1086 162.611 60.1925C162.611 59.2764 162.815 58.6444 163.224 58.21C163.63 57.7756 164.137 57.5557 164.739 57.5557H164.736ZM164.736 62.1277C165.176 62.1277 165.51 61.9467 165.738 61.5847C165.967 61.2228 166.081 60.7494 166.081 60.1591C166.081 59.5298 165.953 59.0537 165.694 58.7335C165.435 58.4133 165.117 58.2546 164.739 58.2546C164.36 58.2546 164.026 58.4161 163.775 58.7418C163.525 59.0676 163.399 59.5493 163.399 60.1925C163.399 60.8357 163.527 61.3147 163.784 61.6404C164.04 61.9662 164.357 62.1277 164.739 62.1277H164.736Z" fill="#BCBEC0"/>
<path d="M171.279 62.7125H170.591V61.9719H170.569C170.221 62.5455 169.745 62.8323 169.144 62.8323C168.826 62.8323 168.534 62.7515 168.264 62.5872C167.994 62.423 167.815 62.2002 167.723 61.9134C167.634 61.6266 167.59 61.2563 167.59 60.7996V57.6727H168.361V60.4655C168.361 60.911 168.381 61.2312 168.42 61.4261C168.459 61.6183 168.559 61.7798 168.72 61.9023C168.882 62.0276 169.077 62.0888 169.302 62.0888C169.592 62.0888 169.868 61.9774 170.124 61.7547C170.38 61.5319 170.508 61.0669 170.508 60.3653V57.6699H171.279V62.7125Z" fill="#BCBEC0"/>
<path d="M173.969 57.5559C174.231 57.5559 174.495 57.645 174.76 57.826L174.495 58.6139C174.303 58.4914 174.116 58.4274 173.936 58.4274C173.649 58.4274 173.429 58.5694 173.281 58.8562C173.134 59.143 173.058 59.544 173.058 60.0619V62.7071H172.287V57.6645H172.989V58.4246H173.005C173.251 57.8427 173.571 57.5503 173.969 57.5503V57.5559Z" fill="#BCBEC0"/>
<path d="M176.93 55.7461H179.096C179.475 55.7461 179.803 55.7684 180.076 55.8101C180.349 55.8519 180.611 55.9577 180.861 56.1248C181.112 56.2918 181.329 56.5202 181.516 56.8125C181.702 57.1049 181.85 57.439 181.956 57.8177C182.061 58.1964 182.117 58.6558 182.117 59.1932C182.117 60.2207 181.897 61.0616 181.457 61.7243C181.017 62.3842 180.263 62.7155 179.191 62.7155H176.932V55.7489L176.93 55.7461ZM177.759 61.8858H179.104C179.377 61.8858 179.622 61.8663 179.839 61.8301C180.054 61.7911 180.274 61.6881 180.494 61.521C180.714 61.354 180.898 61.0783 181.042 60.694C181.187 60.3098 181.259 59.803 181.259 59.1737C181.259 58.8257 181.232 58.4999 181.176 58.1964C181.12 57.8929 181.017 57.6172 180.867 57.3694C180.717 57.1216 180.544 56.9378 180.352 56.8237C180.157 56.7067 179.968 56.6371 179.784 56.6121C179.6 56.587 179.363 56.5731 179.076 56.5731H177.759V61.8858Z" fill="#BCBEC0"/>
<path d="M186.92 62.7128H186.113C186.038 62.5541 185.985 62.348 185.954 62.0891C185.439 62.5819 184.879 62.8297 184.281 62.8297C183.802 62.8297 183.423 62.6961 183.147 62.4316C182.872 62.1643 182.732 61.8134 182.732 61.3763C182.732 60.9391 182.866 60.6133 183.133 60.3432C183.401 60.0731 183.863 59.8922 184.523 59.803L185.241 59.6833C185.509 59.636 185.731 59.5775 185.904 59.5079C185.904 59.2517 185.896 59.0707 185.882 58.9649C185.868 58.8591 185.826 58.7477 185.756 58.6336C185.687 58.5194 185.575 58.4275 185.419 58.3579C185.266 58.2883 185.057 58.2521 184.798 58.2521C184.467 58.2521 184.205 58.3189 184.013 58.4554C183.821 58.5918 183.687 58.8452 183.618 59.2155L182.866 59.1069C182.95 58.5918 183.161 58.202 183.504 57.943C183.846 57.6841 184.317 57.5532 184.915 57.5532C185.461 57.5532 185.859 57.6423 186.116 57.8205C186.372 57.9987 186.528 58.2159 186.586 58.4693C186.645 58.7227 186.672 59.0485 186.672 59.4494V60.5994C186.672 61.2983 186.684 61.7689 186.709 62.0083C186.734 62.2478 186.803 62.4817 186.92 62.71V62.7128ZM185.901 60.4936V60.1845C185.5 60.3321 185.007 60.4518 184.425 60.5381C183.843 60.6245 183.554 60.8973 183.554 61.3568C183.554 61.5879 183.632 61.78 183.791 61.9304C183.946 62.0807 184.172 62.1559 184.467 62.1559C184.846 62.1559 185.18 62.0306 185.47 61.7772C185.759 61.5266 185.904 61.0978 185.904 60.4908L185.901 60.4936Z" fill="#BCBEC0"/>
<path d="M191.425 57.6698L189.688 62.7959C189.688 62.7959 189.682 62.8126 189.679 62.8293C189.515 63.4002 189.32 63.8624 189.1 64.2188C188.88 64.5752 188.565 64.7534 188.156 64.7534C188.02 64.7534 187.853 64.7228 187.655 64.6587L187.577 63.8512C187.724 63.9014 187.869 63.9264 188.014 63.9264C188.298 63.9264 188.496 63.8401 188.607 63.6647C188.716 63.4893 188.841 63.1746 188.977 62.718L187.254 57.667H188.084L189.153 60.9693C189.217 61.1726 189.284 61.4343 189.353 61.7545H189.37C189.442 61.387 189.532 61.0362 189.643 60.7048L190.64 57.6698H191.422H191.425Z" fill="#BCBEC0"/>
<path d="M194.452 59.0817C194.419 58.806 194.318 58.6 194.151 58.4608C193.984 58.3215 193.753 58.2547 193.455 58.2547C193.157 58.2547 192.923 58.3104 192.742 58.4218C192.561 58.5331 192.469 58.6946 192.469 58.9063C192.469 59.1067 192.542 59.2487 192.687 59.3351C192.831 59.4214 193.115 59.5244 193.541 59.6497C194.02 59.7861 194.38 59.9059 194.616 60.0117C194.856 60.1175 195.04 60.2623 195.173 60.4516C195.307 60.641 195.371 60.9027 195.371 61.2368C195.371 61.6879 195.207 62.0666 194.875 62.3729C194.544 62.6792 194.101 62.8351 193.55 62.8351C192.999 62.8351 192.522 62.6987 192.199 62.4286C191.876 62.1585 191.676 61.752 191.604 61.209L192.369 61.0809C192.408 61.4317 192.528 61.6963 192.723 61.8689C192.918 62.0443 193.191 62.1306 193.541 62.1306C193.892 62.1306 194.137 62.0527 194.316 61.8967C194.494 61.7408 194.586 61.5487 194.586 61.3232C194.586 61.17 194.544 61.0503 194.46 60.9584C194.377 60.8665 194.274 60.7969 194.151 60.7523C194.026 60.7078 193.748 60.6243 193.316 60.5073C192.67 60.3375 192.247 60.1286 192.038 59.8836C191.832 59.6386 191.729 59.349 191.729 59.0093C191.729 58.5888 191.879 58.2408 192.183 57.9679C192.486 57.695 192.893 57.5586 193.402 57.5586C193.945 57.5586 194.366 57.6755 194.666 57.9122C194.967 58.1489 195.148 58.4997 195.207 58.9703L194.455 59.0845L194.452 59.0817Z" fill="#BCBEC0"/>
<path fill-rule="evenodd" clip-rule="evenodd" d="M88.6155 32.7467L86.0733 34.9046C86.0733 34.9046 85.0542 32.3819 82.2419 32.3819C79.4297 32.3819 77.759 33.4456 77.759 36.5948V40.9886C77.759 42.1692 78.2463 45.2906 81.4317 45.2906C84.6171 45.2906 86.0232 42.8069 86.0232 42.8069L88.7241 44.859C88.7241 44.859 86.6052 48.7489 81.5403 48.7489C76.4754 48.7489 73.8691 45.0901 73.8691 41.4341C73.8691 38.2348 73.9777 38.8307 73.9777 35.7205C73.9777 32.6103 76.4559 29.5112 80.5128 29.0879C84.5697 28.6647 87.524 30.6194 88.6155 32.7467Z" fill="#5B2E2A"/>
<path fill-rule="evenodd" clip-rule="evenodd" d="M109.198 29.4106H113.035C113.035 29.4106 112.979 38.0981 112.979 40.2672C112.979 42.4362 113.826 45.3989 116.761 45.3989C119.696 45.3989 120.865 44.0512 120.865 40.3758V29.5192H124.702V48.6455H121.405V46.9136C121.405 46.9136 119.139 48.8599 115.786 48.8599C112.434 48.8599 109.195 45.9446 109.195 41.9462C109.195 37.9477 109.142 29.4134 109.195 29.4134L109.198 29.4106Z" fill="#5B2E2A"/>
<path fill-rule="evenodd" clip-rule="evenodd" d="M180.921 48.8598H177.084C177.084 48.8598 177.137 40.1723 177.137 38.0005C177.137 35.8286 176.29 32.8687 173.355 32.8687C170.42 32.8687 169.248 34.893 169.248 38.368V48.7512H165.414V29.6249H168.708V31.3568C168.708 31.3568 169.755 29.2768 173.921 29.4105C178.083 29.5469 180.918 32.3258 180.918 36.3242C180.918 40.3227 180.971 48.857 180.918 48.857L180.921 48.8598Z" fill="#BECD3A"/>
<path fill-rule="evenodd" clip-rule="evenodd" d="M97.1395 29.0347H99.1137C102.761 29.0347 105.743 32.0279 105.743 35.6895V41.9907C105.743 45.6494 102.761 48.6427 99.1137 48.6427H97.1395C93.4919 48.6427 90.5098 45.6494 90.5098 41.9907V35.6895C90.5098 32.0307 93.4919 29.0347 97.1395 29.0347ZM97.4096 32.3816C95.5747 32.3816 94.0738 34.2221 94.0738 36.4719V41.2027C94.0738 43.4525 95.5747 45.293 97.4096 45.293H98.9466C100.782 45.293 102.282 43.4525 102.282 41.2027V36.4719C102.282 34.2221 100.782 32.3816 98.9466 32.3816H97.4096Z" fill="#5B2E2A"/>
<path fill-rule="evenodd" clip-rule="evenodd" d="M128.431 29.5196V56.3142H132.59V47.4012C132.59 47.4012 133.448 48.7517 137.235 48.7517C141.022 48.7517 144.149 45.5134 144.149 42.1609V35.7316C144.149 33.841 142.534 29.4611 138.26 29.2495C133.985 29.0378 132.691 30.1628 132.1 31.3016V29.4639L128.428 29.5196H128.431ZM135.595 32.382H137.491C139.326 32.382 140.827 34.2225 140.827 36.4723V41.2031C140.827 43.4501 139.326 45.2934 137.491 45.2934H135.595C133.76 45.2934 132.259 43.4529 132.259 41.2031V36.4723C132.259 34.2225 133.76 32.382 135.595 32.382Z" fill="#EE303B"/>
<path fill-rule="evenodd" clip-rule="evenodd" d="M147.929 30.8169L149.497 33.4092C149.497 33.4092 151.17 32.1144 154.197 32.3845C157.224 32.6546 157.925 34.704 157.87 36.4888C157.87 36.4888 156.466 35.4084 153.492 35.4084C150.519 35.4084 147.659 37.352 147.063 39.7299C146.47 42.1078 146.523 47.6711 151.276 48.59C156.029 49.5088 158.246 46.9165 158.246 46.9165V48.6985H161.489V35.0826C161.489 28.2858 152.039 27.1303 147.929 30.8169ZM153.71 38.5047H154.2C155.979 38.5047 157.435 39.961 157.435 41.7402V42.389C157.435 44.1683 155.979 45.6245 154.2 45.6245H153.71C151.93 45.6245 150.474 44.1683 150.474 42.389V41.7402C150.474 39.961 151.93 38.5047 153.71 38.5047Z" fill="#FDBA4C"/>
<path fill-rule="evenodd" clip-rule="evenodd" d="M196.193 30.7554C196.964 30.0231 198.306 28.6448 201.079 29.5748L201.129 32.4372C201.129 32.4372 199.269 31.7884 197.978 33.0442C198.412 33.9491 198.654 34.971 198.654 36.0486C198.654 39.7296 195.808 42.7424 192.328 42.7424C190.109 42.7424 189.379 42.8927 187.386 45.7106C187.076 46.3065 187.631 46.067 187.631 46.067C188.853 45.3542 192.882 45.0702 195.485 45.5797C198.053 46.0336 200.651 48.3363 200.742 51.4827C200.834 54.6292 196.006 57.5166 196.006 57.5166L194.355 54.76C195.945 53.1701 198.053 52.1009 196.037 49.8956C194.021 47.6903 189.07 48.8904 186.748 49.4083C184.426 49.9262 183.911 47.4008 184.119 45.4934C184.328 43.5861 186.174 42.2106 186.898 41.6954C185.133 40.5037 183.955 38.4154 183.955 36.0486C183.955 32.3676 186.804 29.3548 190.281 29.3548H192.331C193.781 29.3548 195.121 29.8783 196.193 30.7554ZM191.03 32.4149C188.953 32.4149 187.255 33.9463 187.255 35.8175V36.4997C187.255 38.3708 188.953 39.9023 191.03 39.9023H191.601C193.678 39.9023 195.377 38.3708 195.377 36.4997V35.8175C195.377 33.9463 193.678 32.4149 191.601 32.4149H191.03Z" fill="#52BEE3"/>
</g>
<defs>
<clipPath id="clip0_359_1695">
<rect width="127.26" height="36" fill="white" transform="translate(73.8691 28.7539)"/>
</clipPath>
</defs>
</svg>
