<svg width="275" height="80" viewBox="0 0 275 80" fill="none" xmlns="http://www.w3.org/2000/svg">
<rect x="0.372349" y="0.372349" width="274.255" height="79.2553" fill="white"/>
<rect x="0.372349" y="0.372349" width="274.255" height="79.2553" stroke="#C8C9C4" stroke-width="0.744697"/>
<g clip-path="url(#clip0_359_1683)">
<path d="M78.5 29.0728H86.8331C86.8331 29.0728 94.3956 40.9084 94.6248 41.2263C94.8519 41.5464 94.8781 41.2263 94.8781 41.2263C94.5244 39.3961 94.1489 38.5726 94.1489 35.6452V29.0728H102.449V50.9999H94.1489C94.1489 50.9999 86.7393 39.7935 86.5144 39.4844C86.2939 39.1753 86.2611 39.4844 86.2611 39.4844C86.5471 40.9989 86.7982 41.2484 86.7982 43.8756V50.9999H78.5V29.0728Z" fill="#2EB34A"/>
<path d="M115.533 43.0609L116.664 38.6123C116.907 37.7116 117.079 36.4179 117.079 36.4179C117.11 36.2192 117.378 36.2192 117.426 36.4245C117.476 36.7314 117.605 37.663 117.861 38.5903L119.018 43.0609H115.533ZM113.979 48.2667H120.537L121.33 50.9999H130.521L121.995 29.0728H112.394L104.096 50.9999H113.285L113.979 48.2667Z" fill="#2EB34A"/>
<path d="M152.382 29.0728L143.132 50.9999H135.779L126.529 29.0728H135.589L138.757 39.0517C139.104 40.1224 139.358 42.4869 139.358 42.4869C139.421 42.6746 139.633 42.6569 139.668 42.4869C139.668 42.4869 139.921 40.1224 140.264 39.0517L143.32 29.0728H152.382Z" fill="#2EB34A"/>
<path d="M154.184 29.0728H170.248V35.0645H162.927V37.1574H169.612V42.8578H162.927V45.0081H170.499V50.9999H154.182V29.0728H154.184Z" fill="#2EB34A"/>
<path d="M182.525 34.9893H183.189C184.685 34.9893 185.981 35.1902 185.981 36.8791C185.981 38.5681 184.551 38.7093 183.13 38.7093H182.525V34.9871V34.9893ZM174.035 50.9247H182.525V43.8887C182.525 43.8887 182.578 43.637 182.737 43.8887L186.484 50.9247H196.5L191.302 43.7982C190.826 43.1601 190.022 42.6148 189.846 42.4912C189.667 42.3653 189.846 42.3124 189.846 42.3124C193.075 41.3189 194.472 39.9302 194.472 36.612C194.472 31.0927 189.907 28.9976 184.523 28.9976H174.035V50.9225V50.9247Z" fill="#2EB34A"/>
</g>
<defs>
<clipPath id="clip0_359_1683">
<rect width="118" height="22" fill="white" transform="translate(78.5 29)"/>
</clipPath>
</defs>
</svg>
