<svg width="182" height="182" viewBox="0 0 182 182" fill="none" xmlns="http://www.w3.org/2000/svg">
<mask id="mask0_30_1258" style="mask-type:alpha" maskUnits="userSpaceOnUse" x="0" y="0" width="182" height="182">
<rect width="182" height="182" fill="#D9D9D9"/>
</mask>
<g mask="url(#mask0_30_1258)">
<g clip-path="url(#clip0_30_1258)">
<path d="M71.944 178.375L63.3304 175.72L55.7788 173.139L66.7375 176.516L71.944 178.375Z" stroke="white" stroke-width="0.7" stroke-linecap="round" stroke-linejoin="round"/>
<path d="M81.2803 180.012L71.944 178.375L66.7375 176.516L78.6401 178.611L81.2803 180.012Z" stroke="white" stroke-width="0.7" stroke-linecap="round" stroke-linejoin="round"/>
<path d="M91 180.572L81.2803 180.012L78.6401 178.611L91 179.304V180.572Z" stroke="white" stroke-width="0.7" stroke-linecap="round" stroke-linejoin="round"/>
<path d="M100.72 180.012L91.0001 180.572V179.304L103.36 178.611L100.72 180.012Z" stroke="white" stroke-width="0.7" stroke-linecap="round" stroke-linejoin="round"/>
<path d="M110.056 178.375L100.72 180.012L103.36 178.611L115.248 176.516L110.056 178.375Z" stroke="white" stroke-width="0.7" stroke-linecap="round" stroke-linejoin="round"/>
<path d="M118.67 175.72L110.056 178.375L115.248 176.516L126.207 173.139L118.67 175.72Z" stroke="white" stroke-width="0.7" stroke-linecap="round" stroke-linejoin="round"/>
<path d="M46.1917 168.581L38.3009 163.05L29.0383 155.528L38.3009 162.047L46.1917 168.581Z" stroke="white" stroke-width="0.7" stroke-linecap="round" stroke-linejoin="round"/>
<path d="M55.7788 173.139L46.1918 168.581L38.3009 162.047L49.5988 167.401L55.7788 173.139Z" stroke="white" stroke-width="0.7" stroke-linecap="round" stroke-linejoin="round"/>
<path d="M66.7375 176.516L55.7788 173.139L49.5989 167.401L62.475 171.384L66.7375 176.516Z" stroke="white" stroke-width="0.7" stroke-linecap="round" stroke-linejoin="round"/>
<path d="M78.6402 178.611L66.7375 176.516L62.475 171.384L76.4573 173.832L78.6402 178.611Z" stroke="white" stroke-width="0.7" stroke-linecap="round" stroke-linejoin="round"/>
<path d="M91 179.304L78.6402 178.611L76.4573 173.832L91 174.658V179.304Z" stroke="white" stroke-width="0.7" stroke-linecap="round" stroke-linejoin="round"/>
<path d="M103.36 178.611L91.0001 179.304V174.658L105.543 173.832L103.36 178.611Z" stroke="white" stroke-width="0.7" stroke-linecap="round" stroke-linejoin="round"/>
<path d="M115.248 176.516L103.36 178.611L105.543 173.832L119.525 171.384L115.248 176.516Z" stroke="white" stroke-width="0.7" stroke-linecap="round" stroke-linejoin="round"/>
<path d="M126.207 173.139L115.248 176.516L119.525 171.384L132.401 167.401L126.207 173.139Z" stroke="white" stroke-width="0.7" stroke-linecap="round" stroke-linejoin="round"/>
<path d="M135.808 168.581L126.207 173.139L132.401 167.401L143.699 162.047L135.808 168.581Z" stroke="white" stroke-width="0.7" stroke-linecap="round" stroke-linejoin="round"/>
<path d="M143.699 163.05L135.808 168.581L143.699 162.047L152.962 155.528L143.699 163.05Z" stroke="white" stroke-width="0.7" stroke-linecap="round" stroke-linejoin="round"/>
<path d="M29.0384 155.528L22.1505 148.094L14.4956 137.268L22.1505 145.543L29.0384 155.528Z" stroke="white" stroke-width="0.7" stroke-linecap="round" stroke-linejoin="round"/>
<path d="M38.301 162.047L29.0384 155.528L22.1505 145.543L32.4455 152.785L38.301 162.047Z" stroke="white" stroke-width="0.7" stroke-linecap="round" stroke-linejoin="round"/>
<path d="M49.5988 167.401L38.3009 162.047L32.4454 152.785L44.9971 158.729L49.5988 167.401Z" stroke="white" stroke-width="0.7" stroke-linecap="round" stroke-linejoin="round"/>
<path d="M62.4749 171.383L49.5988 167.401L44.9971 158.729L59.3186 163.139L62.4749 171.383Z" stroke="white" stroke-width="0.7" stroke-linecap="round" stroke-linejoin="round"/>
<path d="M76.4572 173.832L62.4749 171.384L59.3186 163.139L74.8496 165.867L76.4572 173.832Z" stroke="white" stroke-width="0.7" stroke-linecap="round" stroke-linejoin="round"/>
<path d="M91.0001 174.658L76.4573 173.832L74.8496 165.867L91.0001 166.782V174.658Z" stroke="white" stroke-width="0.7" stroke-linecap="round" stroke-linejoin="round"/>
<path d="M105.543 173.832L91.0001 174.658V166.782L107.151 165.867L105.543 173.832Z" stroke="white" stroke-width="0.7" stroke-linecap="round" stroke-linejoin="round"/>
<path d="M119.525 171.384L105.543 173.832L107.15 165.867L122.696 163.139L119.525 171.384Z" stroke="white" stroke-width="0.7" stroke-linecap="round" stroke-linejoin="round"/>
<path d="M132.401 167.401L119.525 171.383L122.696 163.139L137.003 158.729L132.401 167.401Z" stroke="white" stroke-width="0.7" stroke-linecap="round" stroke-linejoin="round"/>
<path d="M143.699 162.047L132.401 167.401L137.003 158.729L149.555 152.785L143.699 162.047Z" stroke="white" stroke-width="0.7" stroke-linecap="round" stroke-linejoin="round"/>
<path d="M152.962 155.528L143.699 162.047L149.555 152.785L159.85 145.543L152.962 155.528Z" stroke="white" stroke-width="0.7" stroke-linecap="round" stroke-linejoin="round"/>
<path d="M159.85 148.094L152.962 155.528L159.85 145.543L167.504 137.268L159.85 148.094Z" stroke="white" stroke-width="0.7" stroke-linecap="round" stroke-linejoin="round"/>
<path d="M14.4956 137.268L9.77588 128.301L4.77588 115.145L9.77588 124.673L14.4956 137.268Z" stroke="white" stroke-width="0.7" stroke-linecap="round" stroke-linejoin="round"/>
<path d="M22.1505 145.543L14.4956 137.268L9.77588 124.673L17.9027 133.448L22.1505 145.543Z" stroke="white" stroke-width="0.7" stroke-linecap="round" stroke-linejoin="round"/>
<path d="M32.4455 152.785L22.1505 145.543L17.9027 133.448L28.8319 141.133L32.4455 152.785Z" stroke="white" stroke-width="0.7" stroke-linecap="round" stroke-linejoin="round"/>
<path d="M44.9971 158.729L32.4455 152.785L28.8319 141.133L42.1652 147.445L44.9971 158.729Z" stroke="white" stroke-width="0.7" stroke-linecap="round" stroke-linejoin="round"/>
<path d="M59.3186 163.139L44.9971 158.729L42.1652 147.445L57.357 152.136L59.3186 163.139Z" stroke="white" stroke-width="0.7" stroke-linecap="round" stroke-linejoin="round"/>
<path d="M74.8496 165.867L59.3186 163.139L57.357 152.136L73.8467 155.027L74.8496 165.867Z" stroke="white" stroke-width="0.7" stroke-linecap="round" stroke-linejoin="round"/>
<path d="M91.0001 166.782L74.8496 165.867L73.8467 155.027L91.0001 156V166.782Z" stroke="white" stroke-width="0.7" stroke-linecap="round" stroke-linejoin="round"/>
<path d="M107.151 165.867L91.0001 166.782V156L108.153 155.027L107.151 165.867Z" stroke="white" stroke-width="0.7" stroke-linecap="round" stroke-linejoin="round"/>
<path d="M122.696 163.139L107.151 165.867L108.153 155.027L124.643 152.136L122.696 163.139Z" stroke="white" stroke-width="0.7" stroke-linecap="round" stroke-linejoin="round"/>
<path d="M137.003 158.729L122.696 163.139L124.643 152.136L139.835 147.445L137.003 158.729Z" stroke="white" stroke-width="0.7" stroke-linecap="round" stroke-linejoin="round"/>
<path d="M149.555 152.785L137.003 158.729L139.835 147.445L153.153 141.133L149.555 152.785Z" stroke="white" stroke-width="0.7" stroke-linecap="round" stroke-linejoin="round"/>
<path d="M159.85 145.543L149.555 152.785L153.153 141.133L164.097 133.448L159.85 145.543Z" stroke="white" stroke-width="0.7" stroke-linecap="round" stroke-linejoin="round"/>
<path d="M167.504 137.268L159.85 145.543L164.097 133.448L172.224 124.673L167.504 137.268Z" stroke="white" stroke-width="0.7" stroke-linecap="round" stroke-linejoin="round"/>
<path d="M172.224 128.301L167.504 137.268L172.224 124.673L177.209 115.145L172.224 128.301Z" stroke="white" stroke-width="0.7" stroke-linecap="round" stroke-linejoin="round"/>
<path d="M4.77585 115.145L3.09444 105.248L1.36877 90.9706L3.09444 101.059L4.77585 115.145Z" stroke="white" stroke-width="0.7" stroke-linecap="round" stroke-linejoin="round"/>
<path d="M9.7759 124.673L4.7759 115.145L3.09448 101.059L8.19773 110.779L9.7759 124.673Z" stroke="white" stroke-width="0.7" stroke-linecap="round" stroke-linejoin="round"/>
<path d="M17.9026 133.448L9.7758 124.673L8.19763 110.779L16.472 119.717L17.9026 133.448Z" stroke="white" stroke-width="0.7" stroke-linecap="round" stroke-linejoin="round"/>
<path d="M28.8319 141.133L17.9027 133.448L16.472 119.717L27.6225 127.563L28.8319 141.133Z" stroke="white" stroke-width="0.7" stroke-linecap="round" stroke-linejoin="round"/>
<path d="M42.1652 147.445L28.8319 141.133L27.6224 127.563L41.2065 133.994L42.1652 147.445Z" stroke="white" stroke-width="0.7" stroke-linecap="round" stroke-linejoin="round"/>
<path d="M57.357 152.136L42.1652 147.445L41.2065 133.994L56.6933 138.773L57.357 152.136Z" stroke="white" stroke-width="0.7" stroke-linecap="round" stroke-linejoin="round"/>
<path d="M73.8466 155.027L57.357 152.136L56.6932 138.773L73.5074 141.723L73.8466 155.027Z" stroke="white" stroke-width="0.7" stroke-linecap="round" stroke-linejoin="round"/>
<path d="M91.0001 156L73.8467 155.027L73.5074 141.723L91.0001 142.711V156Z" stroke="white" stroke-width="0.7" stroke-linecap="round" stroke-linejoin="round"/>
<path d="M108.153 155.027L91.0001 156V142.711L108.478 141.723L108.153 155.027Z" stroke="white" stroke-width="0.7" stroke-linecap="round" stroke-linejoin="round"/>
<path d="M124.643 152.136L108.153 155.027L108.478 141.723L125.292 138.773L124.643 152.136Z" stroke="white" stroke-width="0.7" stroke-linecap="round" stroke-linejoin="round"/>
<path d="M139.835 147.445L124.643 152.136L125.292 138.773L140.794 133.994L139.835 147.445Z" stroke="white" stroke-width="0.7" stroke-linecap="round" stroke-linejoin="round"/>
<path d="M153.153 141.133L139.835 147.445L140.794 133.994L154.378 127.563L153.153 141.133Z" stroke="white" stroke-width="0.7" stroke-linecap="round" stroke-linejoin="round"/>
<path d="M164.097 133.448L153.153 141.133L154.378 127.563L165.528 119.717L164.097 133.448Z" stroke="white" stroke-width="0.7" stroke-linecap="round" stroke-linejoin="round"/>
<path d="M172.224 124.673L164.097 133.448L165.528 119.717L173.802 110.779L172.224 124.673Z" stroke="white" stroke-width="0.7" stroke-linecap="round" stroke-linejoin="round"/>
<path d="M177.21 115.145L172.224 124.673L173.802 110.779L178.906 101.059L177.21 115.145Z" stroke="white" stroke-width="0.7" stroke-linecap="round" stroke-linejoin="round"/>
<path d="M178.906 105.248L177.209 115.145L178.906 101.059L180.631 90.9706L178.906 105.248Z" stroke="white" stroke-width="0.7" stroke-linecap="round" stroke-linejoin="round"/>
<path d="M3.09444 101.059L1.36877 90.9705L3.09444 76.6932L4.77585 86.59L3.09444 101.059Z" stroke="white" stroke-width="0.7" stroke-linecap="round" stroke-linejoin="round"/>
<path d="M8.19773 110.779L3.09448 101.059L4.7759 86.59L9.7759 96.118L8.19773 110.779Z" stroke="white" stroke-width="0.7" stroke-linecap="round" stroke-linejoin="round"/>
<path d="M16.472 119.717L8.19763 110.779L9.7758 96.118L17.9026 104.894L16.472 119.717Z" stroke="white" stroke-width="0.7" stroke-linecap="round" stroke-linejoin="round"/>
<path d="M27.6225 127.563L16.472 119.717L17.9027 104.894L28.8319 112.578L27.6225 127.563Z" stroke="white" stroke-width="0.7" stroke-linecap="round" stroke-linejoin="round"/>
<path d="M41.2065 133.994L27.6224 127.563L28.8319 112.578L42.1652 118.891L41.2065 133.994Z" stroke="white" stroke-width="0.7" stroke-linecap="round" stroke-linejoin="round"/>
<path d="M56.6933 138.773L41.2065 133.994L42.1652 118.891L57.357 123.581L56.6933 138.773Z" stroke="white" stroke-width="0.7" stroke-linecap="round" stroke-linejoin="round"/>
<path d="M73.5074 141.723L56.6932 138.773L57.357 123.581L73.8466 126.472L73.5074 141.723Z" stroke="white" stroke-width="0.7" stroke-linecap="round" stroke-linejoin="round"/>
<path d="M91.0001 142.711L73.5074 141.723L73.8467 126.472L91.0001 127.446V142.711Z" stroke="white" stroke-width="0.7" stroke-linecap="round" stroke-linejoin="round"/>
<path d="M108.478 141.723L91.0001 142.711V127.446L108.153 126.472L108.478 141.723Z" stroke="white" stroke-width="0.7" stroke-linecap="round" stroke-linejoin="round"/>
<path d="M125.292 138.773L108.478 141.723L108.153 126.472L124.643 123.581L125.292 138.773Z" stroke="white" stroke-width="0.7" stroke-linecap="round" stroke-linejoin="round"/>
<path d="M140.794 133.994L125.292 138.773L124.643 123.581L139.835 118.891L140.794 133.994Z" stroke="white" stroke-width="0.7" stroke-linecap="round" stroke-linejoin="round"/>
<path d="M154.378 127.563L140.794 133.994L139.835 118.891L153.153 112.578L154.378 127.563Z" stroke="white" stroke-width="0.7" stroke-linecap="round" stroke-linejoin="round"/>
<path d="M165.528 119.717L154.378 127.563L153.153 112.578L164.097 104.894L165.528 119.717Z" stroke="white" stroke-width="0.7" stroke-linecap="round" stroke-linejoin="round"/>
<path d="M173.802 110.779L165.528 119.717L164.097 104.894L172.224 96.118L173.802 110.779Z" stroke="white" stroke-width="0.7" stroke-linecap="round" stroke-linejoin="round"/>
<path d="M178.906 101.059L173.802 110.779L172.224 96.118L177.21 86.59L178.906 101.059Z" stroke="white" stroke-width="0.7" stroke-linecap="round" stroke-linejoin="round"/>
<path d="M180.631 90.9705L178.906 101.059L177.209 86.59L178.906 76.6932L180.631 90.9705Z" stroke="white" stroke-width="0.7" stroke-linecap="round" stroke-linejoin="round"/>
<path d="M3.09448 76.6932L4.7759 66.7817L9.7759 53.6401L8.19773 62.9617L3.09448 76.6932Z" stroke="white" stroke-width="0.7" stroke-linecap="round" stroke-linejoin="round"/>
<path d="M4.7759 86.59L3.09448 76.6932L8.19773 62.9617L9.7759 72.298L4.7759 86.59Z" stroke="white" stroke-width="0.7" stroke-linecap="round" stroke-linejoin="round"/>
<path d="M9.77588 96.118L4.77588 86.59L9.77588 72.298L14.4956 81.2508L9.77588 96.118Z" stroke="white" stroke-width="0.7" stroke-linecap="round" stroke-linejoin="round"/>
<path d="M17.9027 104.894L9.77588 96.118L14.4956 81.2507L22.1505 89.5251L17.9027 104.894Z" stroke="white" stroke-width="0.7" stroke-linecap="round" stroke-linejoin="round"/>
<path d="M28.8319 112.578L17.9027 104.894L22.1505 89.5251L32.4455 96.767L28.8319 112.578Z" stroke="white" stroke-width="0.7" stroke-linecap="round" stroke-linejoin="round"/>
<path d="M42.1652 118.891L28.8319 112.578L32.4455 96.767L44.9971 102.711L42.1652 118.891Z" stroke="white" stroke-width="0.7" stroke-linecap="round" stroke-linejoin="round"/>
<path d="M57.357 123.581L42.1652 118.891L44.9971 102.711L59.3186 107.136L57.357 123.581Z" stroke="white" stroke-width="0.7" stroke-linecap="round" stroke-linejoin="round"/>
<path d="M73.8467 126.472L57.357 123.581L59.3186 107.136L74.8496 109.85L73.8467 126.472Z" stroke="white" stroke-width="0.7" stroke-linecap="round" stroke-linejoin="round"/>
<path d="M91.0001 127.445L73.8467 126.472L74.8496 109.85L91.0001 110.779V127.445Z" stroke="white" stroke-width="0.7" stroke-linecap="round" stroke-linejoin="round"/>
<path d="M108.153 126.472L91.0001 127.445V110.779L107.151 109.85L108.153 126.472Z" stroke="white" stroke-width="0.7" stroke-linecap="round" stroke-linejoin="round"/>
<path d="M124.643 123.581L108.153 126.472L107.151 109.85L122.696 107.136L124.643 123.581Z" stroke="white" stroke-width="0.7" stroke-linecap="round" stroke-linejoin="round"/>
<path d="M139.835 118.891L124.643 123.581L122.696 107.136L137.003 102.711L139.835 118.891Z" stroke="white" stroke-width="0.7" stroke-linecap="round" stroke-linejoin="round"/>
<path d="M153.153 112.578L139.835 118.891L137.003 102.711L149.555 96.767L153.153 112.578Z" stroke="white" stroke-width="0.7" stroke-linecap="round" stroke-linejoin="round"/>
<path d="M164.097 104.894L153.153 112.578L149.555 96.767L159.85 89.5251L164.097 104.894Z" stroke="white" stroke-width="0.7" stroke-linecap="round" stroke-linejoin="round"/>
<path d="M172.224 96.118L164.097 104.894L159.85 89.5251L167.504 81.2507L172.224 96.118Z" stroke="white" stroke-width="0.7" stroke-linecap="round" stroke-linejoin="round"/>
<path d="M177.209 86.59L172.224 96.118L167.504 81.2508L172.224 72.298L177.209 86.59Z" stroke="white" stroke-width="0.7" stroke-linecap="round" stroke-linejoin="round"/>
<path d="M178.906 76.6932L177.21 86.59L172.224 72.298L173.802 62.9617L178.906 76.6932Z" stroke="white" stroke-width="0.7" stroke-linecap="round" stroke-linejoin="round"/>
<path d="M177.21 66.7817L178.906 76.6932L173.802 62.9617L172.224 53.6401L177.21 66.7817Z" stroke="white" stroke-width="0.7" stroke-linecap="round" stroke-linejoin="round"/>
<path d="M9.77588 53.6402L14.4956 44.6726L22.1505 33.8467L17.9027 41.9145L9.77588 53.6402Z" stroke="white" stroke-width="0.7" stroke-linecap="round" stroke-linejoin="round"/>
<path d="M8.19763 62.9617L9.7758 53.6402L17.9026 41.9146L16.472 50.3069L8.19763 62.9617Z" stroke="white" stroke-width="0.7" stroke-linecap="round" stroke-linejoin="round"/>
<path d="M9.7758 72.298L8.19763 62.9617L16.472 50.3069L17.9026 58.714L9.7758 72.298Z" stroke="white" stroke-width="0.7" stroke-linecap="round" stroke-linejoin="round"/>
<path d="M14.4956 81.2507L9.77588 72.2979L17.9027 58.7139L22.1505 66.7817L14.4956 81.2507Z" stroke="white" stroke-width="0.7" stroke-linecap="round" stroke-linejoin="round"/>
<path d="M22.1505 89.5251L14.4956 81.2508L22.1505 66.7817L29.0384 74.2154L22.1505 89.5251Z" stroke="white" stroke-width="0.7" stroke-linecap="round" stroke-linejoin="round"/>
<path d="M32.4455 96.767L22.1505 89.5251L29.0384 74.2153L38.301 80.7345L32.4455 96.767Z" stroke="white" stroke-width="0.7" stroke-linecap="round" stroke-linejoin="round"/>
<path d="M44.9971 102.711L32.4454 96.7671L38.3009 80.7346L49.5988 86.0886L44.9971 102.711Z" stroke="white" stroke-width="0.7" stroke-linecap="round" stroke-linejoin="round"/>
<path d="M59.3186 107.136L44.9971 102.711L49.5988 86.0885L62.4749 90.0561L59.3186 107.136Z" stroke="white" stroke-width="0.7" stroke-linecap="round" stroke-linejoin="round"/>
<path d="M74.8496 109.85L59.3186 107.136L62.4749 90.056L76.4572 92.5192L74.8496 109.85Z" stroke="white" stroke-width="0.7" stroke-linecap="round" stroke-linejoin="round"/>
<path d="M91.0001 110.779L74.8496 109.85L76.4573 92.5192L91.0001 93.3304V110.779Z" stroke="white" stroke-width="0.7" stroke-linecap="round" stroke-linejoin="round"/>
<path d="M107.151 109.85L91.0001 110.779V93.3304L105.543 92.5192L107.151 109.85Z" stroke="white" stroke-width="0.7" stroke-linecap="round" stroke-linejoin="round"/>
<path d="M122.696 107.136L107.15 109.85L105.543 92.5192L119.525 90.056L122.696 107.136Z" stroke="white" stroke-width="0.7" stroke-linecap="round" stroke-linejoin="round"/>
<path d="M137.003 102.711L122.696 107.136L119.525 90.0561L132.401 86.0885L137.003 102.711Z" stroke="white" stroke-width="0.7" stroke-linecap="round" stroke-linejoin="round"/>
<path d="M149.555 96.7671L137.003 102.711L132.401 86.0886L143.699 80.7346L149.555 96.7671Z" stroke="white" stroke-width="0.7" stroke-linecap="round" stroke-linejoin="round"/>
<path d="M159.85 89.5251L149.555 96.767L143.699 80.7345L152.962 74.2153L159.85 89.5251Z" stroke="white" stroke-width="0.7" stroke-linecap="round" stroke-linejoin="round"/>
<path d="M167.504 81.2508L159.85 89.5251L152.962 74.2154L159.85 66.7817L167.504 81.2508Z" stroke="white" stroke-width="0.7" stroke-linecap="round" stroke-linejoin="round"/>
<path d="M172.224 72.2979L167.504 81.2507L159.85 66.7817L164.097 58.7139L172.224 72.2979Z" stroke="white" stroke-width="0.7" stroke-linecap="round" stroke-linejoin="round"/>
<path d="M173.802 62.9617L172.224 72.298L164.097 58.714L165.528 50.3069L173.802 62.9617Z" stroke="white" stroke-width="0.7" stroke-linecap="round" stroke-linejoin="round"/>
<path d="M172.224 53.6402L173.802 62.9617L165.528 50.3069L164.097 41.9146L172.224 53.6402Z" stroke="white" stroke-width="0.7" stroke-linecap="round" stroke-linejoin="round"/>
<path d="M167.504 44.6726L172.224 53.6402L164.097 41.9145L159.85 33.8467L167.504 44.6726Z" stroke="white" stroke-width="0.7" stroke-linecap="round" stroke-linejoin="round"/>
<path d="M22.1505 33.8466L29.0384 26.413L38.301 18.8909L32.4455 25.2183L22.1505 33.8466Z" stroke="white" stroke-width="0.7" stroke-linecap="round" stroke-linejoin="round"/>
<path d="M17.9027 41.9145L22.1505 33.8467L32.4455 25.2184L28.8319 32.0768L17.9027 41.9145Z" stroke="white" stroke-width="0.7" stroke-linecap="round" stroke-linejoin="round"/>
<path d="M16.472 50.3069L17.9027 41.9145L28.8319 32.0768L27.6225 39.2154L16.472 50.3069Z" stroke="white" stroke-width="0.7" stroke-linecap="round" stroke-linejoin="round"/>
<path d="M17.9027 58.7139L16.472 50.3068L27.6225 39.2153L28.8319 46.354L17.9027 58.7139Z" stroke="white" stroke-width="0.7" stroke-linecap="round" stroke-linejoin="round"/>
<path d="M22.1505 66.7817L17.9027 58.7139L28.8319 46.354L32.4455 53.2272L22.1505 66.7817Z" stroke="white" stroke-width="0.7" stroke-linecap="round" stroke-linejoin="round"/>
<path d="M29.0384 74.2154L22.1505 66.7817L32.4455 53.2272L38.301 59.5546L29.0384 74.2154Z" stroke="white" stroke-width="0.7" stroke-linecap="round" stroke-linejoin="round"/>
<path d="M38.3009 80.7345L29.0383 74.2153L38.3009 59.5546L46.1917 65.0855L38.3009 80.7345Z" stroke="white" stroke-width="0.7" stroke-linecap="round" stroke-linejoin="round"/>
<path d="M49.5988 86.0885L38.3009 80.7345L46.1918 65.0856L55.7788 69.6431L49.5988 86.0885Z" stroke="white" stroke-width="0.7" stroke-linecap="round" stroke-linejoin="round"/>
<path d="M62.475 90.056L49.5989 86.0885L55.7788 69.6431L66.7375 73.0206L62.475 90.056Z" stroke="white" stroke-width="0.7" stroke-linecap="round" stroke-linejoin="round"/>
<path d="M76.4573 92.5193L62.475 90.0561L66.7375 73.0208L78.6402 75.1151L76.4573 92.5193Z" stroke="white" stroke-width="0.7" stroke-linecap="round" stroke-linejoin="round"/>
<path d="M91 93.3304L76.4573 92.5192L78.6402 75.1151L91 75.8083V93.3304Z" stroke="white" stroke-width="0.7" stroke-linecap="round" stroke-linejoin="round"/>
<path d="M105.543 92.5192L91.0001 93.3304V75.8083L103.36 75.1151L105.543 92.5192Z" stroke="white" stroke-width="0.7" stroke-linecap="round" stroke-linejoin="round"/>
<path d="M119.525 90.0561L105.543 92.5193L103.36 75.1151L115.248 73.0208L119.525 90.0561Z" stroke="white" stroke-width="0.7" stroke-linecap="round" stroke-linejoin="round"/>
<path d="M132.401 86.0885L119.525 90.056L115.248 73.0206L126.207 69.6431L132.401 86.0885Z" stroke="white" stroke-width="0.7" stroke-linecap="round" stroke-linejoin="round"/>
<path d="M143.699 80.7345L132.401 86.0885L126.207 69.6431L135.808 65.0856L143.699 80.7345Z" stroke="white" stroke-width="0.7" stroke-linecap="round" stroke-linejoin="round"/>
<path d="M152.962 74.2153L143.699 80.7345L135.808 65.0855L143.699 59.5546L152.962 74.2153Z" stroke="white" stroke-width="0.7" stroke-linecap="round" stroke-linejoin="round"/>
<path d="M159.85 66.7817L152.962 74.2154L143.699 59.5546L149.555 53.2272L159.85 66.7817Z" stroke="white" stroke-width="0.7" stroke-linecap="round" stroke-linejoin="round"/>
<path d="M164.097 58.7139L159.85 66.7817L149.555 53.2272L153.153 46.354L164.097 58.7139Z" stroke="white" stroke-width="0.7" stroke-linecap="round" stroke-linejoin="round"/>
<path d="M165.528 50.3068L164.097 58.7139L153.153 46.354L154.378 39.2153L165.528 50.3068Z" stroke="white" stroke-width="0.7" stroke-linecap="round" stroke-linejoin="round"/>
<path d="M164.097 41.9145L165.528 50.3069L154.378 39.2154L153.153 32.0768L164.097 41.9145Z" stroke="white" stroke-width="0.7" stroke-linecap="round" stroke-linejoin="round"/>
<path d="M159.85 33.8467L164.097 41.9145L153.153 32.0768L149.555 25.2184L159.85 33.8467Z" stroke="white" stroke-width="0.7" stroke-linecap="round" stroke-linejoin="round"/>
<path d="M152.962 26.413L159.85 33.8466L149.555 25.2183L143.699 18.8909L152.962 26.413Z" stroke="white" stroke-width="0.7" stroke-linecap="round" stroke-linejoin="round"/>
<path d="M38.3009 18.8909L46.1918 13.3452L55.7788 9.79065L49.5988 14.1417L38.3009 18.8909Z" stroke="white" stroke-width="0.7" stroke-linecap="round" stroke-linejoin="round"/>
<path d="M32.4454 25.2183L38.3009 18.8909L49.5988 14.1416L44.9971 19.1121L32.4454 25.2183Z" stroke="white" stroke-width="0.7" stroke-linecap="round" stroke-linejoin="round"/>
<path d="M28.8319 32.0768L32.4455 25.2184L44.9971 19.1122L42.1652 24.5104L28.8319 32.0768Z" stroke="white" stroke-width="0.7" stroke-linecap="round" stroke-linejoin="round"/>
<path d="M27.6224 39.2154L28.8319 32.0767L42.1652 24.5104L41.2065 30.1151L27.6224 39.2154Z" stroke="white" stroke-width="0.7" stroke-linecap="round" stroke-linejoin="round"/>
<path d="M28.8319 46.354L27.6224 39.2154L41.2065 30.1151L42.1652 35.7346L28.8319 46.354Z" stroke="white" stroke-width="0.7" stroke-linecap="round" stroke-linejoin="round"/>
<path d="M32.4455 53.2271L28.8319 46.354L42.1652 35.7345L44.9971 41.118L32.4455 53.2271Z" stroke="white" stroke-width="0.7" stroke-linecap="round" stroke-linejoin="round"/>
<path d="M38.3009 59.5546L32.4454 53.2272L44.9971 41.118L49.5988 46.0885L38.3009 59.5546Z" stroke="white" stroke-width="0.7" stroke-linecap="round" stroke-linejoin="round"/>
<path d="M46.1918 65.0856L38.3009 59.5546L49.5988 46.0885L55.7788 50.4543L46.1918 65.0856Z" stroke="white" stroke-width="0.7" stroke-linecap="round" stroke-linejoin="round"/>
<path d="M55.7788 69.6431L46.1918 65.0856L55.7788 50.4543L63.3304 54.0237L55.7788 69.6431Z" stroke="white" stroke-width="0.7" stroke-linecap="round" stroke-linejoin="round"/>
<path d="M66.7375 73.0207L55.7788 69.6432L63.3304 54.0237L71.944 56.6785L66.7375 73.0207Z" stroke="white" stroke-width="0.7" stroke-linecap="round" stroke-linejoin="round"/>
<path d="M78.6401 75.115L66.7375 73.0207L71.944 56.6785L81.2803 58.3156L78.6401 75.115Z" stroke="white" stroke-width="0.7" stroke-linecap="round" stroke-linejoin="round"/>
<path d="M91 75.8083L78.6401 75.1151L81.2803 58.3157L91 58.8761V75.8083Z" stroke="white" stroke-width="0.7" stroke-linecap="round" stroke-linejoin="round"/>
<path d="M103.36 75.1151L91.0001 75.8083V58.8761L100.72 58.3157L103.36 75.1151Z" stroke="white" stroke-width="0.7" stroke-linecap="round" stroke-linejoin="round"/>
<path d="M115.248 73.0207L103.36 75.115L100.72 58.3156L110.056 56.6785L115.248 73.0207Z" stroke="white" stroke-width="0.7" stroke-linecap="round" stroke-linejoin="round"/>
<path d="M126.207 69.6432L115.248 73.0207L110.056 56.6785L118.67 54.0237L126.207 69.6432Z" stroke="white" stroke-width="0.7" stroke-linecap="round" stroke-linejoin="round"/>
<path d="M135.808 65.0856L126.207 69.6431L118.67 54.0237L126.207 50.4543L135.808 65.0856Z" stroke="white" stroke-width="0.7" stroke-linecap="round" stroke-linejoin="round"/>
<path d="M143.699 59.5546L135.808 65.0856L126.207 50.4543L132.401 46.0885L143.699 59.5546Z" stroke="white" stroke-width="0.7" stroke-linecap="round" stroke-linejoin="round"/>
<path d="M149.555 53.2272L143.699 59.5546L132.401 46.0885L137.003 41.118L149.555 53.2272Z" stroke="white" stroke-width="0.7" stroke-linecap="round" stroke-linejoin="round"/>
<path d="M153.153 46.354L149.555 53.2271L137.003 41.118L139.835 35.7345L153.153 46.354Z" stroke="white" stroke-width="0.7" stroke-linecap="round" stroke-linejoin="round"/>
<path d="M154.378 39.2154L153.153 46.354L139.835 35.7346L140.794 30.1151L154.378 39.2154Z" stroke="white" stroke-width="0.7" stroke-linecap="round" stroke-linejoin="round"/>
<path d="M153.153 32.0767L154.378 39.2154L140.794 30.1151L139.835 24.5104L153.153 32.0767Z" stroke="white" stroke-width="0.7" stroke-linecap="round" stroke-linejoin="round"/>
<path d="M149.555 25.2184L153.153 32.0768L139.835 24.5104L137.003 19.1122L149.555 25.2184Z" stroke="white" stroke-width="0.7" stroke-linecap="round" stroke-linejoin="round"/>
<path d="M143.699 18.8909L149.555 25.2183L137.003 19.1121L132.401 14.1416L143.699 18.8909Z" stroke="white" stroke-width="0.7" stroke-linecap="round" stroke-linejoin="round"/>
<path d="M135.808 13.3452L143.699 18.8909L132.401 14.1417L126.207 9.79065L135.808 13.3452Z" stroke="white" stroke-width="0.7" stroke-linecap="round" stroke-linejoin="round"/>
<path d="M126.207 8.80243L135.808 13.3452L126.207 9.79063L118.67 6.22131L126.207 8.80243Z" stroke="white" stroke-width="0.7" stroke-linecap="round" stroke-linejoin="round"/>
<path d="M46.1918 13.3452L55.7788 8.80243L63.3304 6.22131L55.7788 9.79063L46.1918 13.3452Z" stroke="white" stroke-width="0.7" stroke-linecap="round" stroke-linejoin="round"/>
<path d="M49.5989 14.1417L55.7788 9.79064L66.7375 9.36292L62.475 12.357L49.5989 14.1417Z" stroke="white" stroke-width="0.7" stroke-linecap="round" stroke-linejoin="round"/>
<path d="M44.9971 19.1121L49.5988 14.1416L62.4749 12.3569L59.3186 15.7788L44.9971 19.1121Z" stroke="white" stroke-width="0.7" stroke-linecap="round" stroke-linejoin="round"/>
<path d="M42.1652 24.5104L44.9971 19.1121L59.3186 15.7788L57.357 19.4956L42.1652 24.5104Z" stroke="white" stroke-width="0.7" stroke-linecap="round" stroke-linejoin="round"/>
<path d="M41.2065 30.1151L42.1652 24.5104L57.357 19.4956L56.6933 23.3599L41.2065 30.1151Z" stroke="white" stroke-width="0.7" stroke-linecap="round" stroke-linejoin="round"/>
<path d="M42.1652 35.7345L41.2065 30.115L56.6933 23.3599L57.357 27.2242L42.1652 35.7345Z" stroke="white" stroke-width="0.7" stroke-linecap="round" stroke-linejoin="round"/>
<path d="M44.9971 41.118L42.1652 35.7346L57.357 27.2242L59.3186 30.9411L44.9971 41.118Z" stroke="white" stroke-width="0.7" stroke-linecap="round" stroke-linejoin="round"/>
<path d="M49.5988 46.0885L44.9971 41.118L59.3186 30.941L62.4749 34.3629L49.5988 46.0885Z" stroke="white" stroke-width="0.7" stroke-linecap="round" stroke-linejoin="round"/>
<path d="M55.7788 50.4544L49.5989 46.0886L62.475 34.3629L66.7375 37.357L55.7788 50.4544Z" stroke="white" stroke-width="0.7" stroke-linecap="round" stroke-linejoin="round"/>
<path d="M63.3304 54.0236L55.7788 50.4543L66.7375 37.3569L71.944 39.8201L63.3304 54.0236Z" stroke="white" stroke-width="0.7" stroke-linecap="round" stroke-linejoin="round"/>
<path d="M71.944 56.6785L63.3304 54.0236L71.944 39.8201L77.8732 41.649L71.944 56.6785Z" stroke="white" stroke-width="0.7" stroke-linecap="round" stroke-linejoin="round"/>
<path d="M81.2803 58.3157L71.944 56.6785L77.8732 41.649L84.3039 42.7847L81.2803 58.3157Z" stroke="white" stroke-width="0.7" stroke-linecap="round" stroke-linejoin="round"/>
<path d="M91 58.8761L81.2803 58.3156L84.3039 42.7847L91 43.1681V58.8761Z" stroke="white" stroke-width="0.7" stroke-linecap="round" stroke-linejoin="round"/>
<path d="M100.72 58.3156L91.0001 58.8761V43.1681L97.6962 42.7847L100.72 58.3156Z" stroke="white" stroke-width="0.7" stroke-linecap="round" stroke-linejoin="round"/>
<path d="M110.056 56.6785L100.72 58.3157L97.6962 42.7847L104.127 41.649L110.056 56.6785Z" stroke="white" stroke-width="0.7" stroke-linecap="round" stroke-linejoin="round"/>
<path d="M118.67 54.0236L110.056 56.6785L104.127 41.649L110.056 39.8201L118.67 54.0236Z" stroke="white" stroke-width="0.7" stroke-linecap="round" stroke-linejoin="round"/>
<path d="M126.207 50.4543L118.67 54.0236L110.056 39.8201L115.248 37.3569L126.207 50.4543Z" stroke="white" stroke-width="0.7" stroke-linecap="round" stroke-linejoin="round"/>
<path d="M132.401 46.0886L126.207 50.4544L115.248 37.357L119.525 34.3629L132.401 46.0886Z" stroke="white" stroke-width="0.7" stroke-linecap="round" stroke-linejoin="round"/>
<path d="M137.003 41.118L132.401 46.0885L119.525 34.3629L122.696 30.941L137.003 41.118Z" stroke="white" stroke-width="0.7" stroke-linecap="round" stroke-linejoin="round"/>
<path d="M139.835 35.7346L137.003 41.118L122.696 30.9411L124.643 27.2242L139.835 35.7346Z" stroke="white" stroke-width="0.7" stroke-linecap="round" stroke-linejoin="round"/>
<path d="M140.794 30.115L139.835 35.7345L124.643 27.2242L125.292 23.3599L140.794 30.115Z" stroke="white" stroke-width="0.7" stroke-linecap="round" stroke-linejoin="round"/>
<path d="M139.835 24.5104L140.794 30.1151L125.292 23.3599L124.643 19.4956L139.835 24.5104Z" stroke="white" stroke-width="0.7" stroke-linecap="round" stroke-linejoin="round"/>
<path d="M137.003 19.1121L139.835 24.5104L124.643 19.4956L122.696 15.7788L137.003 19.1121Z" stroke="white" stroke-width="0.7" stroke-linecap="round" stroke-linejoin="round"/>
<path d="M132.401 14.1416L137.003 19.1121L122.696 15.7788L119.525 12.3569L132.401 14.1416Z" stroke="white" stroke-width="0.7" stroke-linecap="round" stroke-linejoin="round"/>
<path d="M126.207 9.79064L132.401 14.1417L119.525 12.357L115.248 9.36292L126.207 9.79064Z" stroke="white" stroke-width="0.7" stroke-linecap="round" stroke-linejoin="round"/>
<path d="M118.67 6.22131L126.207 9.79063L115.248 9.36291L110.056 6.88503L118.67 6.22131Z" stroke="white" stroke-width="0.7" stroke-linecap="round" stroke-linejoin="round"/>
<path d="M110.056 3.56641L118.67 6.22127L110.056 6.88499L104.127 5.05608L110.056 3.56641Z" stroke="white" stroke-width="0.7" stroke-linecap="round" stroke-linejoin="round"/>
<path d="M100.72 1.9292L110.056 3.56637L104.127 5.05604L97.6962 3.9351L100.72 1.9292Z" stroke="white" stroke-width="0.7" stroke-linecap="round" stroke-linejoin="round"/>
<path d="M91.0001 1.36877L100.72 1.92925L97.6962 3.93515L91.0001 3.55167V1.36877Z" stroke="white" stroke-width="0.7" stroke-linecap="round" stroke-linejoin="round"/>
<path d="M81.2803 1.92925L91 1.36877V3.55167L84.3039 3.93515L81.2803 1.92925Z" stroke="white" stroke-width="0.7" stroke-linecap="round" stroke-linejoin="round"/>
<path d="M71.944 3.56637L81.2803 1.9292L84.3039 3.9351L77.8732 5.05604L71.944 3.56637Z" stroke="white" stroke-width="0.7" stroke-linecap="round" stroke-linejoin="round"/>
<path d="M63.3304 6.22127L71.944 3.56641L77.8732 5.05608L71.944 6.88499L63.3304 6.22127Z" stroke="white" stroke-width="0.7" stroke-linecap="round" stroke-linejoin="round"/>
<path d="M55.7788 9.79063L63.3304 6.22131L71.944 6.88503L66.7375 9.36291L55.7788 9.79063Z" stroke="white" stroke-width="0.7" stroke-linecap="round" stroke-linejoin="round"/>
<path d="M62.475 12.357L66.7375 9.36292L78.6402 12.0473L76.4573 13.5812L62.475 12.357Z" stroke="white" stroke-width="0.7" stroke-linecap="round" stroke-linejoin="round"/>
<path d="M59.3186 15.7788L62.4749 12.3569L76.4572 13.5811L74.8496 15.3363L59.3186 15.7788Z" stroke="white" stroke-width="0.7" stroke-linecap="round" stroke-linejoin="round"/>
<path d="M57.357 19.4956L59.3186 15.7788L74.8496 15.3363L73.8467 17.2242L57.357 19.4956Z" stroke="white" stroke-width="0.7" stroke-linecap="round" stroke-linejoin="round"/>
<path d="M56.6932 23.3599L57.357 19.4956L73.8466 17.2242L73.5074 19.2006L56.6932 23.3599Z" stroke="white" stroke-width="0.7" stroke-linecap="round" stroke-linejoin="round"/>
<path d="M57.357 27.2243L56.6932 23.36L73.5074 19.2007L73.8466 21.1623L57.357 27.2243Z" stroke="white" stroke-width="0.7" stroke-linecap="round" stroke-linejoin="round"/>
<path d="M59.3186 30.941L57.357 27.2242L73.8467 21.1622L74.8496 23.0501L59.3186 30.941Z" stroke="white" stroke-width="0.7" stroke-linecap="round" stroke-linejoin="round"/>
<path d="M62.4749 34.3629L59.3186 30.941L74.8496 23.0502L76.4572 24.8053L62.4749 34.3629Z" stroke="white" stroke-width="0.7" stroke-linecap="round" stroke-linejoin="round"/>
<path d="M66.7375 37.3569L62.475 34.3628L76.4573 24.8053L78.6402 26.3245L66.7375 37.3569Z" stroke="white" stroke-width="0.7" stroke-linecap="round" stroke-linejoin="round"/>
<path d="M71.944 39.8202L66.7375 37.357L78.6401 26.3246L81.2803 27.593L71.944 39.8202Z" stroke="white" stroke-width="0.7" stroke-linecap="round" stroke-linejoin="round"/>
<path d="M77.8732 41.6491L71.944 39.8202L81.2803 27.593L84.3039 28.5222L77.8732 41.6491Z" stroke="white" stroke-width="0.7" stroke-linecap="round" stroke-linejoin="round"/>
<path d="M84.3038 42.7848L77.8732 41.6491L84.3038 28.5222L87.5929 29.0974L84.3038 42.7848Z" stroke="white" stroke-width="0.7" stroke-linecap="round" stroke-linejoin="round"/>
<path d="M91.0001 43.1682L84.3039 42.7847L87.593 29.0974L91.0001 29.2892V43.1682Z" stroke="white" stroke-width="0.7" stroke-linecap="round" stroke-linejoin="round"/>
<path d="M97.6962 42.7847L91.0001 43.1682V29.2892L94.4071 29.0974L97.6962 42.7847Z" stroke="white" stroke-width="0.7" stroke-linecap="round" stroke-linejoin="round"/>
<path d="M104.127 41.6491L97.6962 42.7848L94.4071 29.0974L97.6962 28.5222L104.127 41.6491Z" stroke="white" stroke-width="0.7" stroke-linecap="round" stroke-linejoin="round"/>
<path d="M110.056 39.8202L104.127 41.6491L97.6962 28.5222L100.72 27.593L110.056 39.8202Z" stroke="white" stroke-width="0.7" stroke-linecap="round" stroke-linejoin="round"/>
<path d="M115.248 37.357L110.056 39.8202L100.72 27.593L103.36 26.3246L115.248 37.357Z" stroke="white" stroke-width="0.7" stroke-linecap="round" stroke-linejoin="round"/>
<path d="M119.525 34.3628L115.248 37.3569L103.36 26.3245L105.543 24.8053L119.525 34.3628Z" stroke="white" stroke-width="0.7" stroke-linecap="round" stroke-linejoin="round"/>
<path d="M122.696 30.941L119.525 34.3629L105.543 24.8053L107.15 23.0502L122.696 30.941Z" stroke="white" stroke-width="0.7" stroke-linecap="round" stroke-linejoin="round"/>
<path d="M124.643 27.2242L122.696 30.941L107.151 23.0501L108.153 21.1622L124.643 27.2242Z" stroke="white" stroke-width="0.7" stroke-linecap="round" stroke-linejoin="round"/>
<path d="M125.292 23.36L124.643 27.2243L108.153 21.1623L108.478 19.2007L125.292 23.36Z" stroke="white" stroke-width="0.7" stroke-linecap="round" stroke-linejoin="round"/>
<path d="M124.643 19.4956L125.292 23.3599L108.478 19.2006L108.153 17.2242L124.643 19.4956Z" stroke="white" stroke-width="0.7" stroke-linecap="round" stroke-linejoin="round"/>
<path d="M122.696 15.7788L124.643 19.4956L108.153 17.2242L107.151 15.3363L122.696 15.7788Z" stroke="white" stroke-width="0.7" stroke-linecap="round" stroke-linejoin="round"/>
<path d="M119.525 12.3569L122.696 15.7788L107.15 15.3363L105.543 13.5811L119.525 12.3569Z" stroke="white" stroke-width="0.7" stroke-linecap="round" stroke-linejoin="round"/>
<path d="M115.248 9.36292L119.525 12.357L105.543 13.5812L103.36 12.0473L115.248 9.36292Z" stroke="white" stroke-width="0.7" stroke-linecap="round" stroke-linejoin="round"/>
<path d="M110.056 6.88501L115.248 9.36289L103.36 12.0473L100.72 10.7936L110.056 6.88501Z" stroke="white" stroke-width="0.7" stroke-linecap="round" stroke-linejoin="round"/>
<path d="M104.127 5.05603L110.056 6.88494L100.72 10.7935L97.6962 9.86429L104.127 5.05603Z" stroke="white" stroke-width="0.7" stroke-linecap="round" stroke-linejoin="round"/>
<path d="M97.6962 3.93518L104.127 5.05612L97.6962 9.86438L94.4071 9.28916L97.6962 3.93518Z" stroke="white" stroke-width="0.7" stroke-linecap="round" stroke-linejoin="round"/>
<path d="M91.0001 3.55164L97.6962 3.93512L94.4071 9.2891L91.0001 9.09736V3.55164Z" stroke="white" stroke-width="0.7" stroke-linecap="round" stroke-linejoin="round"/>
<path d="M84.3039 3.93512L91.0001 3.55164V9.09736L87.593 9.2891L84.3039 3.93512Z" stroke="white" stroke-width="0.7" stroke-linecap="round" stroke-linejoin="round"/>
<path d="M77.8732 5.05612L84.3038 3.93518L87.5929 9.28916L84.3038 9.86438L77.8732 5.05612Z" stroke="white" stroke-width="0.7" stroke-linecap="round" stroke-linejoin="round"/>
<path d="M71.944 6.88494L77.8732 5.05603L84.3039 9.86429L81.2803 10.7935L71.944 6.88494Z" stroke="white" stroke-width="0.7" stroke-linecap="round" stroke-linejoin="round"/>
<path d="M66.7375 9.36289L71.944 6.88501L81.2803 10.7936L78.6401 12.0473L66.7375 9.36289Z" stroke="white" stroke-width="0.7" stroke-linecap="round" stroke-linejoin="round"/>
<path d="M76.4573 13.5812L78.6402 12.0472L91 17.7847L76.4573 13.5812Z" stroke="white" stroke-width="0.7" stroke-linecap="round" stroke-linejoin="round"/>
<path d="M74.8496 15.3363L76.4573 13.5812L91.0001 17.7847L74.8496 15.3363Z" stroke="white" stroke-width="0.7" stroke-linecap="round" stroke-linejoin="round"/>
<path d="M73.8467 17.2242L74.8496 15.3363L91.0001 17.7847L73.8467 17.2242Z" stroke="white" stroke-width="0.7" stroke-linecap="round" stroke-linejoin="round"/>
<path d="M73.5074 19.2006L73.8467 17.2242L91.0001 17.7847L73.5074 19.2006Z" stroke="white" stroke-width="0.7" stroke-linecap="round" stroke-linejoin="round"/>
<path d="M73.8467 21.1622L73.5074 19.2006L91.0001 17.7847L73.8467 21.1622Z" stroke="white" stroke-width="0.7" stroke-linecap="round" stroke-linejoin="round"/>
<path d="M74.8496 23.0502L73.8467 21.1622L91.0001 17.7847L74.8496 23.0502Z" stroke="white" stroke-width="0.7" stroke-linecap="round" stroke-linejoin="round"/>
<path d="M76.4573 24.8053L74.8496 23.0502L91.0001 17.7847L76.4573 24.8053Z" stroke="white" stroke-width="0.7" stroke-linecap="round" stroke-linejoin="round"/>
<path d="M78.6402 26.3245L76.4573 24.8053L91 17.7847L78.6402 26.3245Z" stroke="white" stroke-width="0.7" stroke-linecap="round" stroke-linejoin="round"/>
<path d="M81.2803 27.5929L78.6401 26.3245L91 17.7847L81.2803 27.5929Z" stroke="white" stroke-width="0.7" stroke-linecap="round" stroke-linejoin="round"/>
<path d="M84.3039 28.5221L81.2803 27.5929L91 17.7847L84.3039 28.5221Z" stroke="white" stroke-width="0.7" stroke-linecap="round" stroke-linejoin="round"/>
<path d="M87.593 29.0973L84.3039 28.5221L91.0001 17.7847L87.593 29.0973Z" stroke="white" stroke-width="0.7" stroke-linecap="round" stroke-linejoin="round"/>
<path d="M91 29.2891L87.593 29.0973L91 17.7847V29.2891Z" stroke="white" stroke-width="0.7" stroke-linecap="round" stroke-linejoin="round"/>
<path d="M94.4071 29.0973L91.0001 29.2891V17.7847L94.4071 29.0973Z" stroke="white" stroke-width="0.7" stroke-linecap="round" stroke-linejoin="round"/>
<path d="M97.6962 28.5221L94.4071 29.0973L91.0001 17.7847L97.6962 28.5221Z" stroke="white" stroke-width="0.7" stroke-linecap="round" stroke-linejoin="round"/>
<path d="M100.72 27.5929L97.6962 28.5221L91.0001 17.7847L100.72 27.5929Z" stroke="white" stroke-width="0.7" stroke-linecap="round" stroke-linejoin="round"/>
<path d="M103.36 26.3245L100.72 27.5929L91.0001 17.7847L103.36 26.3245Z" stroke="white" stroke-width="0.7" stroke-linecap="round" stroke-linejoin="round"/>
<path d="M105.543 24.8053L103.36 26.3245L91.0001 17.7847L105.543 24.8053Z" stroke="white" stroke-width="0.7" stroke-linecap="round" stroke-linejoin="round"/>
<path d="M107.151 23.0502L105.543 24.8053L91.0001 17.7847L107.151 23.0502Z" stroke="white" stroke-width="0.7" stroke-linecap="round" stroke-linejoin="round"/>
<path d="M108.153 21.1622L107.151 23.0502L91.0001 17.7847L108.153 21.1622Z" stroke="white" stroke-width="0.7" stroke-linecap="round" stroke-linejoin="round"/>
<path d="M108.478 19.2006L108.153 21.1622L91.0001 17.7847L108.478 19.2006Z" stroke="white" stroke-width="0.7" stroke-linecap="round" stroke-linejoin="round"/>
<path d="M108.153 17.2242L108.478 19.2006L91.0001 17.7847L108.153 17.2242Z" stroke="white" stroke-width="0.7" stroke-linecap="round" stroke-linejoin="round"/>
<path d="M107.151 15.3363L108.153 17.2242L91.0001 17.7847L107.151 15.3363Z" stroke="white" stroke-width="0.7" stroke-linecap="round" stroke-linejoin="round"/>
<path d="M105.543 13.5812L107.151 15.3363L91.0001 17.7847L105.543 13.5812Z" stroke="white" stroke-width="0.7" stroke-linecap="round" stroke-linejoin="round"/>
<path d="M103.36 12.0472L105.543 13.5812L91.0001 17.7847L103.36 12.0472Z" stroke="white" stroke-width="0.7" stroke-linecap="round" stroke-linejoin="round"/>
<path d="M100.72 10.7936L103.36 12.0473L91.0001 17.7847L100.72 10.7936Z" stroke="white" stroke-width="0.7" stroke-linecap="round" stroke-linejoin="round"/>
<path d="M97.6962 9.86438L100.72 10.7936L91.0001 17.7847L97.6962 9.86438Z" stroke="white" stroke-width="0.7" stroke-linecap="round" stroke-linejoin="round"/>
<path d="M94.4071 9.28918L97.6962 9.86441L91.0001 17.7848L94.4071 9.28918Z" stroke="white" stroke-width="0.7" stroke-linecap="round" stroke-linejoin="round"/>
<path d="M91.0001 9.09741L94.4071 9.28915L91.0001 17.7847V9.09741Z" stroke="white" stroke-width="0.7" stroke-linecap="round" stroke-linejoin="round"/>
<path d="M87.593 9.28915L91 9.09741V17.7847L87.593 9.28915Z" stroke="white" stroke-width="0.7" stroke-linecap="round" stroke-linejoin="round"/>
<path d="M84.3039 9.86441L87.593 9.28918L91.0001 17.7848L84.3039 9.86441Z" stroke="white" stroke-width="0.7" stroke-linecap="round" stroke-linejoin="round"/>
<path d="M81.2803 10.7936L84.3039 9.86438L91 17.7847L81.2803 10.7936Z" stroke="white" stroke-width="0.7" stroke-linecap="round" stroke-linejoin="round"/>
<path d="M78.6401 12.0473L81.2803 10.7936L91 17.7847L78.6401 12.0473Z" stroke="white" stroke-width="0.7" stroke-linecap="round" stroke-linejoin="round"/>
<path d="M55.7788 8.8024L46.1918 13.3452L38.3009 18.8909L29.0384 26.413L22.1505 33.8467L14.4956 44.6726L9.77585 53.6402L4.77585 66.7818L3.09444 76.6933L1.36877 90.9705L3.09444 105.248L4.77585 115.145L9.77585 128.301L14.4956 137.268L22.1505 148.094L29.0384 155.528L38.3009 163.05L46.1918 168.581L55.7788 173.139L63.3304 175.72L71.944 178.375L81.2803 180.012L91 180.572L100.72 180.012L110.056 178.375L118.67 175.72L126.207 173.139L135.808 168.581L143.699 163.05L152.962 155.528L159.85 148.094L167.504 137.268L172.224 128.301L177.209 115.145L178.906 105.248L180.631 90.9705L178.906 76.6933L177.209 66.7818L172.224 53.6402L167.504 44.6726L159.85 33.8467L152.962 26.413L143.699 18.8909L135.808 13.3452L126.207 8.8024L118.67 6.22128L110.056 3.56641L100.72 1.92925L91 1.36877L81.2803 1.92925L71.944 3.56641L63.3304 6.22128L55.7788 8.8024Z" stroke="white" stroke-width="0.5" stroke-linecap="round" stroke-linejoin="round"/>
<circle cx="139" cy="36" r="3" fill="white"/>
<circle cx="137" cy="102" r="3" fill="white"/>
<circle cx="66" cy="74" r="4" fill="white"/>
<circle cx="44" cy="157" r="4" fill="white"/>
<circle cx="34" cy="4" r="1" fill="white"/>
<circle cx="25.5" cy="11.5" r="2.5" fill="white"/>
<circle cx="165.5" cy="170.5" r="1.5" fill="white"/>
<circle cx="14" cy="82.5149" r="4" fill="white"/>
</g>
</g>
<defs>
<clipPath id="clip0_30_1258">
<rect width="180" height="179.941" fill="white" transform="translate(1 1)"/>
</clipPath>
</defs>
</svg>
