<svg width="182" height="182" viewBox="0 0 182 182" fill="none" xmlns="http://www.w3.org/2000/svg">
<mask id="mask0_30_1204" style="mask-type:alpha" maskUnits="userSpaceOnUse" x="0" y="0" width="182" height="182">
<rect width="182" height="182" fill="#D9D9D9"/>
</mask>
<g mask="url(#mask0_30_1204)">
<g clip-path="url(#clip0_30_1204)">
<path d="M90.9937 8.26397L10.0982 30.2573L105.199 2.31641L90.9937 8.26397Z" stroke="#B70000" stroke-width="0.5" stroke-linecap="round" stroke-linejoin="round"/>
<path d="M10.0982 30.2572L90.9937 8.26392L26.7867 91.0489L10.0982 30.2572Z" stroke="#B70000" stroke-width="0.5" stroke-linecap="round" stroke-linejoin="round"/>
<path d="M90.9937 8.26397L105.199 2.31641L180.683 45.8348L90.9937 8.26397Z" stroke="#B70000" stroke-width="0.5" stroke-linecap="round" stroke-linejoin="round"/>
<path d="M171.902 151.828L76.8015 179.769L132.227 100.666L171.902 151.828Z" stroke="#B70000" stroke-width="0.5" stroke-linecap="round" stroke-linejoin="round"/>
<path d="M132.227 100.666L76.8015 179.769L26.7867 91.049L132.227 100.666Z" stroke="#B70000" stroke-width="0.5" stroke-linecap="round" stroke-linejoin="round"/>
<path d="M171.902 151.828L132.227 100.666L180.683 45.8348L171.902 151.828Z" stroke="#B70000" stroke-width="0.5" stroke-linecap="round" stroke-linejoin="round"/>
<path d="M10.0982 30.2573L26.7867 91.049L1.31677 136.263L10.0982 30.2573Z" stroke="#B70000" stroke-width="0.5" stroke-linecap="round" stroke-linejoin="round"/>
<path d="M1.31677 136.263L26.7867 91.049L76.8015 179.769L1.31677 136.263Z" stroke="#B70000" stroke-width="0.5" stroke-linecap="round" stroke-linejoin="round"/>
<path d="M26.7867 91.0489L90.9936 8.26392L132.227 100.666L26.7867 91.0489Z" stroke="#B70000" stroke-width="0.5" stroke-linecap="round" stroke-linejoin="round"/>
<path d="M132.227 100.666L90.9937 8.26392L180.683 45.8348L132.227 100.666Z" stroke="#B70000" stroke-width="0.5" stroke-linecap="round" stroke-linejoin="round"/>
<path d="M90.9937 8.26392L79.8553 95.8955" stroke="#B70000" stroke-width="0.7" stroke-linecap="round" stroke-linejoin="round"/>
<path d="M76.8015 179.769L79.8553 95.8829" stroke="#B70000" stroke-width="0.7" stroke-linecap="round" stroke-linejoin="round"/>
<path d="M158.356 71.0929L90.9937 8.26392" stroke="#B70000" stroke-width="0.7" stroke-linecap="round" stroke-linejoin="round"/>
<path d="M172.016 150.411L158.356 71.093" stroke="#B70000" stroke-width="0.7" stroke-linecap="round" stroke-linejoin="round"/>
<path d="M132.214 100.666L128.286 164.647" stroke="#B70000" stroke-width="0.7" stroke-linecap="round" stroke-linejoin="round"/>
<path d="M26.7994 91.049L28.7761 152.081" stroke="#B70000" stroke-width="0.7" stroke-linecap="round" stroke-linejoin="round"/>
<path d="M91.0063 8.26392L18.3727 60.3747" stroke="#B70000" stroke-width="0.7" stroke-linecap="round" stroke-linejoin="round"/>
<path d="M1.31677 136.25L18.3727 60.3748" stroke="#B70000" stroke-width="0.7" stroke-linecap="round" stroke-linejoin="round"/>
<path d="M90.9937 8.26392L135.838 19.9819" stroke="#B70000" stroke-width="0.7" stroke-linecap="round" stroke-linejoin="round"/>
<path d="M132.214 100.679L137.296 27.6631" stroke="#B70000" stroke-width="0.7" stroke-linecap="round" stroke-linejoin="round"/>
<path d="M26.7867 91.0489L111.61 54.4651" stroke="#B70000" stroke-width="0.7" stroke-linecap="round" stroke-linejoin="round"/>
<path d="M10.0982 30.2573L58.3009 50.4284" stroke="#B70000" stroke-width="0.7" stroke-linecap="round" stroke-linejoin="round"/>
<path d="M180.683 45.8348L111.61 54.4651" stroke="#B70000" stroke-width="0.7" stroke-linecap="round" stroke-linejoin="round"/>
<path d="M132.227 100.666L58.3009 50.4283" stroke="#B70000" stroke-width="0.7" stroke-linecap="round" stroke-linejoin="round"/>
<path d="M26.7994 91.0489L49.3295 19.5896" stroke="#B70000" stroke-width="0.7" stroke-linecap="round" stroke-linejoin="round"/>
<path d="M105.198 2.31641L137.296 27.6631" stroke="#B70000" stroke-width="0.7" stroke-linecap="round" stroke-linejoin="round"/>
<path d="M180.683 45.8348L99.6357 4.64478" stroke="#B70000" stroke-width="0.7" stroke-linecap="round" stroke-linejoin="round"/>
<path d="M26.7993 91.0489L5.71381 83.2538" stroke="#B70000" stroke-width="0.7" stroke-linecap="round" stroke-linejoin="round"/>
<path d="M1.31677 136.25L50.7993 133.631" stroke="#B70000" stroke-width="0.7" stroke-linecap="round" stroke-linejoin="round"/>
<path d="M26.7867 91.049L104.514 140.224" stroke="#B70000" stroke-width="0.7" stroke-linecap="round" stroke-linejoin="round"/>
<path d="M76.8015 179.769L152.54 126.861" stroke="#B70000" stroke-width="0.7" stroke-linecap="round" stroke-linejoin="round"/>
<path d="M132.214 100.666L176.337 98.3125" stroke="#B70000" stroke-width="0.7" stroke-linecap="round" stroke-linejoin="round"/>
<path d="M180.683 45.8348L152.527 126.861" stroke="#B70000" stroke-width="0.7" stroke-linecap="round" stroke-linejoin="round"/>
<path d="M171.902 151.828L104.502 140.224" stroke="#B70000" stroke-width="0.7" stroke-linecap="round" stroke-linejoin="round"/>
<path d="M50.7867 133.631L132.227 100.666" stroke="#B70000" stroke-width="0.7" stroke-linecap="round" stroke-linejoin="round"/>
<path d="M10.0982 30.2573L14.0517 114.548" stroke="#B70000" stroke-width="0.7" stroke-linecap="round" stroke-linejoin="round"/>
<path d="M76.8014 179.769L14.0517 114.548" stroke="#B70000" stroke-width="0.7" stroke-linecap="round" stroke-linejoin="round"/>
<path d="M1.31689 136.263L10.0983 30.2573L105.199 2.31641L180.683 45.8348L171.902 151.828L76.8016 179.769L1.31689 136.263Z" stroke="#B70000" stroke-width="0.5" stroke-linecap="round" stroke-linejoin="round"/>
<circle cx="136" cy="50.981" r="3" fill="#B70000"/>
<circle cx="140" cy="15" r="2" fill="#B70000"/>
<circle cx="162" cy="166.305" r="2" fill="#B70000"/>
<circle cx="22" cy="159" r="2" fill="#B70000"/>
<circle cx="83" cy="66.8198" r="4" fill="#B70000"/>
<circle cx="50.5" cy="133.056" r="3.5" fill="#B70000"/>
<circle cx="163" cy="99.2653" r="4" fill="#B70000"/>
<circle cx="11" cy="30.6066" r="4" fill="#B70000"/>
</g>
</g>
<defs>
<clipPath id="clip0_30_1204">
<rect width="180" height="178.085" fill="white" transform="translate(1 2)"/>
</clipPath>
</defs>
</svg>
