<svg width="182" height="182" viewBox="0 0 182 182" fill="none" xmlns="http://www.w3.org/2000/svg">
<mask id="mask0_9_3627" style="mask-type:alpha" maskUnits="userSpaceOnUse" x="0" y="0" width="182" height="182">
<rect width="182" height="182" fill="#D9D9D9"/>
</mask>
<g mask="url(#mask0_9_3627)">
</g>
<g clip-path="url(#clip0_9_3627)">
<path d="M90.9937 7.26397L10.0982 29.2573L105.199 1.31641L90.9937 7.26397Z" stroke="#B70000" stroke-width="0.5" stroke-linecap="round" stroke-linejoin="round"/>
<path d="M10.0982 29.2572L90.9937 7.26392L26.7867 90.0489L10.0982 29.2572Z" stroke="#B70000" stroke-width="0.5" stroke-linecap="round" stroke-linejoin="round"/>
<path d="M90.9937 7.26397L105.199 1.31641L180.683 44.8348L90.9937 7.26397Z" stroke="#B70000" stroke-width="0.5" stroke-linecap="round" stroke-linejoin="round"/>
<path d="M171.902 150.828L76.8015 178.769L132.227 99.6663L171.902 150.828Z" stroke="#B70000" stroke-width="0.5" stroke-linecap="round" stroke-linejoin="round"/>
<path d="M132.227 99.6663L76.8015 178.769L26.7867 90.049L132.227 99.6663Z" stroke="#B70000" stroke-width="0.5" stroke-linecap="round" stroke-linejoin="round"/>
<path d="M171.902 150.828L132.227 99.6663L180.683 44.8348L171.902 150.828Z" stroke="#B70000" stroke-width="0.5" stroke-linecap="round" stroke-linejoin="round"/>
<path d="M10.0982 29.2573L26.7867 90.049L1.31677 135.263L10.0982 29.2573Z" stroke="#B70000" stroke-width="0.5" stroke-linecap="round" stroke-linejoin="round"/>
<path d="M1.31677 135.263L26.7867 90.049L76.8015 178.769L1.31677 135.263Z" stroke="#B70000" stroke-width="0.5" stroke-linecap="round" stroke-linejoin="round"/>
<path d="M26.7867 90.0489L90.9936 7.26392L132.227 99.6662L26.7867 90.0489Z" stroke="#B70000" stroke-width="0.5" stroke-linecap="round" stroke-linejoin="round"/>
<path d="M132.227 99.6662L90.9937 7.26392L180.683 44.8348L132.227 99.6662Z" stroke="#B70000" stroke-width="0.5" stroke-linecap="round" stroke-linejoin="round"/>
<path d="M90.9937 7.26392L79.8553 94.8955" stroke="#B70000" stroke-width="0.7" stroke-linecap="round" stroke-linejoin="round"/>
<path d="M76.8015 178.769L79.8553 94.8829" stroke="#B70000" stroke-width="0.7" stroke-linecap="round" stroke-linejoin="round"/>
<path d="M158.356 70.0929L90.9937 7.26392" stroke="#B70000" stroke-width="0.7" stroke-linecap="round" stroke-linejoin="round"/>
<path d="M172.016 149.411L158.356 70.093" stroke="#B70000" stroke-width="0.7" stroke-linecap="round" stroke-linejoin="round"/>
<path d="M132.214 99.6663L128.286 163.647" stroke="#B70000" stroke-width="0.7" stroke-linecap="round" stroke-linejoin="round"/>
<path d="M26.7994 90.049L28.7761 151.081" stroke="#B70000" stroke-width="0.7" stroke-linecap="round" stroke-linejoin="round"/>
<path d="M91.0063 7.26392L18.3727 59.3747" stroke="#B70000" stroke-width="0.7" stroke-linecap="round" stroke-linejoin="round"/>
<path d="M1.31677 135.25L18.3727 59.3748" stroke="#B70000" stroke-width="0.7" stroke-linecap="round" stroke-linejoin="round"/>
<path d="M90.9937 7.26392L135.838 18.9819" stroke="#B70000" stroke-width="0.7" stroke-linecap="round" stroke-linejoin="round"/>
<path d="M132.214 99.6789L137.296 26.6631" stroke="#B70000" stroke-width="0.7" stroke-linecap="round" stroke-linejoin="round"/>
<path d="M26.7867 90.0489L111.61 53.4651" stroke="#B70000" stroke-width="0.7" stroke-linecap="round" stroke-linejoin="round"/>
<path d="M10.0982 29.2573L58.3009 49.4284" stroke="#B70000" stroke-width="0.7" stroke-linecap="round" stroke-linejoin="round"/>
<path d="M180.683 44.8348L111.61 53.4651" stroke="#B70000" stroke-width="0.7" stroke-linecap="round" stroke-linejoin="round"/>
<path d="M132.227 99.6662L58.3009 49.4283" stroke="#B70000" stroke-width="0.7" stroke-linecap="round" stroke-linejoin="round"/>
<path d="M26.7994 90.0489L49.3295 18.5896" stroke="#B70000" stroke-width="0.7" stroke-linecap="round" stroke-linejoin="round"/>
<path d="M105.198 1.31641L137.296 26.6631" stroke="#B70000" stroke-width="0.7" stroke-linecap="round" stroke-linejoin="round"/>
<path d="M180.683 44.8348L99.6357 3.64478" stroke="#B70000" stroke-width="0.7" stroke-linecap="round" stroke-linejoin="round"/>
<path d="M26.7993 90.0489L5.71381 82.2538" stroke="#B70000" stroke-width="0.7" stroke-linecap="round" stroke-linejoin="round"/>
<path d="M1.31677 135.25L50.7993 132.631" stroke="#B70000" stroke-width="0.7" stroke-linecap="round" stroke-linejoin="round"/>
<path d="M26.7867 90.049L104.514 139.224" stroke="#B70000" stroke-width="0.7" stroke-linecap="round" stroke-linejoin="round"/>
<path d="M76.8015 178.769L152.54 125.861" stroke="#B70000" stroke-width="0.7" stroke-linecap="round" stroke-linejoin="round"/>
<path d="M132.214 99.6662L176.337 97.3125" stroke="#B70000" stroke-width="0.7" stroke-linecap="round" stroke-linejoin="round"/>
<path d="M180.683 44.8348L152.527 125.861" stroke="#B70000" stroke-width="0.7" stroke-linecap="round" stroke-linejoin="round"/>
<path d="M171.902 150.828L104.502 139.224" stroke="#B70000" stroke-width="0.7" stroke-linecap="round" stroke-linejoin="round"/>
<path d="M50.7867 132.631L132.227 99.6663" stroke="#B70000" stroke-width="0.7" stroke-linecap="round" stroke-linejoin="round"/>
<path d="M10.0982 29.2573L14.0517 113.548" stroke="#B70000" stroke-width="0.7" stroke-linecap="round" stroke-linejoin="round"/>
<path d="M76.8014 178.769L14.0517 113.548" stroke="#B70000" stroke-width="0.7" stroke-linecap="round" stroke-linejoin="round"/>
<path d="M1.31689 135.263L10.0983 29.2573L105.199 1.31641L180.683 44.8348L171.902 150.828L76.8016 178.769L1.31689 135.263Z" stroke="#B70000" stroke-width="0.5" stroke-linecap="round" stroke-linejoin="round"/>
<circle cx="136" cy="49.981" r="3" fill="#B70000"/>
<circle cx="140" cy="14" r="2" fill="#B70000"/>
<circle cx="162" cy="165.305" r="2" fill="#B70000"/>
<circle cx="22" cy="158" r="2" fill="#B70000"/>
<circle cx="83" cy="65.8198" r="4" fill="#B70000"/>
<circle cx="50.5" cy="132.056" r="3.5" fill="#B70000"/>
<circle cx="163" cy="98.2653" r="4" fill="#B70000"/>
<circle cx="11" cy="29.6066" r="4" fill="#B70000"/>
</g>
<defs>
<clipPath id="clip0_9_3627">
<rect width="180" height="178.085" fill="white" transform="translate(1 1)"/>
</clipPath>
</defs>
</svg>
