<svg width="182" height="182" viewBox="0 0 182 182" fill="none" xmlns="http://www.w3.org/2000/svg">
<mask id="mask0_9_3628" style="mask-type:alpha" maskUnits="userSpaceOnUse" x="0" y="0" width="182" height="182">
<rect width="182" height="182" fill="#D9D9D9"/>
</mask>
<g mask="url(#mask0_9_3628)">
<path d="M71.5752 178.006L62.9617 175.351L55.41 172.77L66.3687 176.147L71.5752 178.006Z" stroke="white" stroke-width="0.7" stroke-linecap="round" stroke-linejoin="round"/>
<path d="M80.9115 179.643L71.5752 178.006L66.3687 176.147L78.2714 178.242L80.9115 179.643Z" stroke="white" stroke-width="0.7" stroke-linecap="round" stroke-linejoin="round"/>
<path d="M90.6312 180.204L80.9115 179.643L78.2714 178.242L90.6312 178.935V180.204Z" stroke="white" stroke-width="0.7" stroke-linecap="round" stroke-linejoin="round"/>
<path d="M100.351 179.643L90.6313 180.204V178.935L102.991 178.242L100.351 179.643Z" stroke="white" stroke-width="0.7" stroke-linecap="round" stroke-linejoin="round"/>
<path d="M109.687 178.006L100.351 179.643L102.991 178.242L114.879 176.147L109.687 178.006Z" stroke="white" stroke-width="0.7" stroke-linecap="round" stroke-linejoin="round"/>
<path d="M118.301 175.351L109.687 178.006L114.879 176.147L125.838 172.77L118.301 175.351Z" stroke="white" stroke-width="0.7" stroke-linecap="round" stroke-linejoin="round"/>
<path d="M45.823 168.212L37.9322 162.681L28.6696 155.159L37.9322 161.678L45.823 168.212Z" stroke="white" stroke-width="0.7" stroke-linecap="round" stroke-linejoin="round"/>
<path d="M55.41 172.77L45.823 168.212L37.9321 161.678L49.2301 167.032L55.41 172.77Z" stroke="white" stroke-width="0.7" stroke-linecap="round" stroke-linejoin="round"/>
<path d="M66.3687 176.148L55.41 172.77L49.2301 167.032L62.1062 171.015L66.3687 176.148Z" stroke="white" stroke-width="0.7" stroke-linecap="round" stroke-linejoin="round"/>
<path d="M78.2714 178.242L66.3687 176.148L62.1062 171.015L76.0885 173.463L78.2714 178.242Z" stroke="white" stroke-width="0.7" stroke-linecap="round" stroke-linejoin="round"/>
<path d="M90.6313 178.935L78.2714 178.242L76.0885 173.463L90.6313 174.289V178.935Z" stroke="white" stroke-width="0.7" stroke-linecap="round" stroke-linejoin="round"/>
<path d="M102.991 178.242L90.6313 178.935V174.289L105.174 173.463L102.991 178.242Z" stroke="white" stroke-width="0.7" stroke-linecap="round" stroke-linejoin="round"/>
<path d="M114.879 176.148L102.991 178.242L105.174 173.463L119.156 171.015L114.879 176.148Z" stroke="white" stroke-width="0.7" stroke-linecap="round" stroke-linejoin="round"/>
<path d="M125.838 172.77L114.879 176.148L119.156 171.015L132.032 167.032L125.838 172.77Z" stroke="white" stroke-width="0.7" stroke-linecap="round" stroke-linejoin="round"/>
<path d="M135.44 168.212L125.838 172.77L132.032 167.032L143.33 161.678L135.44 168.212Z" stroke="white" stroke-width="0.7" stroke-linecap="round" stroke-linejoin="round"/>
<path d="M143.33 162.681L135.44 168.212L143.33 161.678L152.593 155.159L143.33 162.681Z" stroke="white" stroke-width="0.7" stroke-linecap="round" stroke-linejoin="round"/>
<path d="M28.6696 155.159L21.7817 147.726L14.1268 136.9L21.7817 145.174L28.6696 155.159Z" stroke="white" stroke-width="0.7" stroke-linecap="round" stroke-linejoin="round"/>
<path d="M37.9322 161.678L28.6696 155.159L21.7817 145.174L32.0767 152.416L37.9322 161.678Z" stroke="white" stroke-width="0.7" stroke-linecap="round" stroke-linejoin="round"/>
<path d="M49.2301 167.032L37.9322 161.678L32.0767 152.416L44.6283 158.36L49.2301 167.032Z" stroke="white" stroke-width="0.7" stroke-linecap="round" stroke-linejoin="round"/>
<path d="M62.1062 171.015L49.2301 167.032L44.6283 158.36L58.9498 162.77L62.1062 171.015Z" stroke="white" stroke-width="0.7" stroke-linecap="round" stroke-linejoin="round"/>
<path d="M76.0885 173.463L62.1062 171.015L58.9498 162.77L74.4808 165.499L76.0885 173.463Z" stroke="white" stroke-width="0.7" stroke-linecap="round" stroke-linejoin="round"/>
<path d="M90.6313 174.289L76.0885 173.463L74.4808 165.499L90.6313 166.413V174.289Z" stroke="white" stroke-width="0.7" stroke-linecap="round" stroke-linejoin="round"/>
<path d="M105.174 173.463L90.6313 174.289V166.413L106.782 165.499L105.174 173.463Z" stroke="white" stroke-width="0.7" stroke-linecap="round" stroke-linejoin="round"/>
<path d="M119.156 171.015L105.174 173.463L106.782 165.499L122.327 162.77L119.156 171.015Z" stroke="white" stroke-width="0.7" stroke-linecap="round" stroke-linejoin="round"/>
<path d="M132.032 167.032L119.156 171.015L122.327 162.77L136.634 158.36L132.032 167.032Z" stroke="white" stroke-width="0.7" stroke-linecap="round" stroke-linejoin="round"/>
<path d="M143.33 161.678L132.032 167.032L136.634 158.36L149.186 152.416L143.33 161.678Z" stroke="white" stroke-width="0.7" stroke-linecap="round" stroke-linejoin="round"/>
<path d="M152.593 155.159L143.33 161.678L149.186 152.416L159.481 145.174L152.593 155.159Z" stroke="white" stroke-width="0.7" stroke-linecap="round" stroke-linejoin="round"/>
<path d="M159.481 147.726L152.593 155.159L159.481 145.174L167.136 136.9L159.481 147.726Z" stroke="white" stroke-width="0.7" stroke-linecap="round" stroke-linejoin="round"/>
<path d="M14.1268 136.9L9.40707 127.932L4.40707 114.776L9.40707 124.304L14.1268 136.9Z" stroke="white" stroke-width="0.7" stroke-linecap="round" stroke-linejoin="round"/>
<path d="M21.7817 145.174L14.1268 136.9L9.40707 124.304L17.5339 133.08L21.7817 145.174Z" stroke="white" stroke-width="0.7" stroke-linecap="round" stroke-linejoin="round"/>
<path d="M32.0767 152.416L21.7817 145.174L17.5339 133.08L28.4631 140.764L32.0767 152.416Z" stroke="white" stroke-width="0.7" stroke-linecap="round" stroke-linejoin="round"/>
<path d="M44.6283 158.36L32.0767 152.416L28.4631 140.764L41.7965 147.077L44.6283 158.36Z" stroke="white" stroke-width="0.7" stroke-linecap="round" stroke-linejoin="round"/>
<path d="M58.9498 162.77L44.6283 158.36L41.7964 147.077L56.9882 151.767L58.9498 162.77Z" stroke="white" stroke-width="0.7" stroke-linecap="round" stroke-linejoin="round"/>
<path d="M74.4808 165.499L58.9499 162.77L56.9882 151.767L73.4779 154.658L74.4808 165.499Z" stroke="white" stroke-width="0.7" stroke-linecap="round" stroke-linejoin="round"/>
<path d="M90.6313 166.413L74.4809 165.499L73.4779 154.658L90.6313 155.631V166.413Z" stroke="white" stroke-width="0.7" stroke-linecap="round" stroke-linejoin="round"/>
<path d="M106.782 165.499L90.6313 166.413V155.631L107.785 154.658L106.782 165.499Z" stroke="white" stroke-width="0.7" stroke-linecap="round" stroke-linejoin="round"/>
<path d="M122.327 162.77L106.782 165.499L107.785 154.658L124.274 151.767L122.327 162.77Z" stroke="white" stroke-width="0.7" stroke-linecap="round" stroke-linejoin="round"/>
<path d="M136.634 158.36L122.327 162.77L124.274 151.767L139.466 147.077L136.634 158.36Z" stroke="white" stroke-width="0.7" stroke-linecap="round" stroke-linejoin="round"/>
<path d="M149.186 152.416L136.634 158.36L139.466 147.077L152.785 140.764L149.186 152.416Z" stroke="white" stroke-width="0.7" stroke-linecap="round" stroke-linejoin="round"/>
<path d="M159.481 145.174L149.186 152.416L152.785 140.764L163.729 133.08L159.481 145.174Z" stroke="white" stroke-width="0.7" stroke-linecap="round" stroke-linejoin="round"/>
<path d="M167.136 136.9L159.481 145.174L163.729 133.08L171.855 124.304L167.136 136.9Z" stroke="white" stroke-width="0.7" stroke-linecap="round" stroke-linejoin="round"/>
<path d="M171.855 127.932L167.136 136.9L171.855 124.304L176.841 114.776L171.855 127.932Z" stroke="white" stroke-width="0.7" stroke-linecap="round" stroke-linejoin="round"/>
<path d="M4.40708 114.776L2.72566 104.879L1 90.6018L2.72566 100.69L4.40708 114.776Z" stroke="white" stroke-width="0.7" stroke-linecap="round" stroke-linejoin="round"/>
<path d="M9.40709 124.304L4.40709 114.776L2.72568 100.69L7.82892 110.41L9.40709 124.304Z" stroke="white" stroke-width="0.7" stroke-linecap="round" stroke-linejoin="round"/>
<path d="M17.5339 133.08L9.40709 124.304L7.82892 110.41L16.1033 119.348L17.5339 133.08Z" stroke="white" stroke-width="0.7" stroke-linecap="round" stroke-linejoin="round"/>
<path d="M28.4631 140.764L17.5339 133.08L16.1032 119.348L27.2537 127.195L28.4631 140.764Z" stroke="white" stroke-width="0.7" stroke-linecap="round" stroke-linejoin="round"/>
<path d="M41.7964 147.077L28.4631 140.764L27.2537 127.195L40.8377 133.625L41.7964 147.077Z" stroke="white" stroke-width="0.7" stroke-linecap="round" stroke-linejoin="round"/>
<path d="M56.9882 151.767L41.7965 147.077L40.8378 133.625L56.3245 138.404L56.9882 151.767Z" stroke="white" stroke-width="0.7" stroke-linecap="round" stroke-linejoin="round"/>
<path d="M73.4779 154.658L56.9882 151.767L56.3245 138.404L73.1386 141.354L73.4779 154.658Z" stroke="white" stroke-width="0.7" stroke-linecap="round" stroke-linejoin="round"/>
<path d="M90.6313 155.631L73.4779 154.658L73.1387 141.354L90.6313 142.342V155.631Z" stroke="white" stroke-width="0.7" stroke-linecap="round" stroke-linejoin="round"/>
<path d="M107.785 154.658L90.6313 155.631V142.342L108.109 141.354L107.785 154.658Z" stroke="white" stroke-width="0.7" stroke-linecap="round" stroke-linejoin="round"/>
<path d="M124.274 151.767L107.785 154.658L108.109 141.354L124.923 138.404L124.274 151.767Z" stroke="white" stroke-width="0.7" stroke-linecap="round" stroke-linejoin="round"/>
<path d="M139.466 147.077L124.274 151.767L124.923 138.404L140.425 133.625L139.466 147.077Z" stroke="white" stroke-width="0.7" stroke-linecap="round" stroke-linejoin="round"/>
<path d="M152.785 140.764L139.466 147.077L140.425 133.625L154.009 127.195L152.785 140.764Z" stroke="white" stroke-width="0.7" stroke-linecap="round" stroke-linejoin="round"/>
<path d="M163.729 133.08L152.785 140.764L154.009 127.195L165.159 119.348L163.729 133.08Z" stroke="white" stroke-width="0.7" stroke-linecap="round" stroke-linejoin="round"/>
<path d="M171.855 124.304L163.729 133.08L165.159 119.348L173.434 110.41L171.855 124.304Z" stroke="white" stroke-width="0.7" stroke-linecap="round" stroke-linejoin="round"/>
<path d="M176.841 114.776L171.855 124.304L173.434 110.41L178.537 100.69L176.841 114.776Z" stroke="white" stroke-width="0.7" stroke-linecap="round" stroke-linejoin="round"/>
<path d="M178.537 104.879L176.841 114.776L178.537 100.69L180.263 90.6018L178.537 104.879Z" stroke="white" stroke-width="0.7" stroke-linecap="round" stroke-linejoin="round"/>
<path d="M2.72566 100.69L1 90.6017L2.72566 76.3245L4.40708 86.2212L2.72566 100.69Z" stroke="white" stroke-width="0.7" stroke-linecap="round" stroke-linejoin="round"/>
<path d="M7.82892 110.41L2.72568 100.69L4.40709 86.2212L9.40709 95.7492L7.82892 110.41Z" stroke="white" stroke-width="0.7" stroke-linecap="round" stroke-linejoin="round"/>
<path d="M16.1033 119.348L7.82892 110.41L9.40709 95.7493L17.5339 104.525L16.1033 119.348Z" stroke="white" stroke-width="0.7" stroke-linecap="round" stroke-linejoin="round"/>
<path d="M27.2537 127.195L16.1032 119.348L17.5339 104.525L28.4631 112.209L27.2537 127.195Z" stroke="white" stroke-width="0.7" stroke-linecap="round" stroke-linejoin="round"/>
<path d="M40.8377 133.625L27.2537 127.195L28.4631 112.209L41.7964 118.522L40.8377 133.625Z" stroke="white" stroke-width="0.7" stroke-linecap="round" stroke-linejoin="round"/>
<path d="M56.3245 138.404L40.8378 133.625L41.7965 118.522L56.9882 123.212L56.3245 138.404Z" stroke="white" stroke-width="0.7" stroke-linecap="round" stroke-linejoin="round"/>
<path d="M73.1386 141.354L56.3245 138.404L56.9882 123.212L73.4779 126.103L73.1386 141.354Z" stroke="white" stroke-width="0.7" stroke-linecap="round" stroke-linejoin="round"/>
<path d="M90.6313 142.342L73.1387 141.354L73.4779 126.103L90.6313 127.077V142.342Z" stroke="white" stroke-width="0.7" stroke-linecap="round" stroke-linejoin="round"/>
<path d="M108.109 141.354L90.6313 142.342V127.077L107.785 126.103L108.109 141.354Z" stroke="white" stroke-width="0.7" stroke-linecap="round" stroke-linejoin="round"/>
<path d="M124.923 138.404L108.109 141.354L107.785 126.103L124.274 123.212L124.923 138.404Z" stroke="white" stroke-width="0.7" stroke-linecap="round" stroke-linejoin="round"/>
<path d="M140.425 133.625L124.923 138.404L124.274 123.212L139.466 118.522L140.425 133.625Z" stroke="white" stroke-width="0.7" stroke-linecap="round" stroke-linejoin="round"/>
<path d="M154.009 127.195L140.425 133.625L139.466 118.522L152.785 112.209L154.009 127.195Z" stroke="white" stroke-width="0.7" stroke-linecap="round" stroke-linejoin="round"/>
<path d="M165.159 119.348L154.009 127.195L152.785 112.209L163.729 104.525L165.159 119.348Z" stroke="white" stroke-width="0.7" stroke-linecap="round" stroke-linejoin="round"/>
<path d="M173.434 110.41L165.159 119.348L163.729 104.525L171.855 95.7493L173.434 110.41Z" stroke="white" stroke-width="0.7" stroke-linecap="round" stroke-linejoin="round"/>
<path d="M178.537 100.69L173.434 110.41L171.855 95.7492L176.841 86.2212L178.537 100.69Z" stroke="white" stroke-width="0.7" stroke-linecap="round" stroke-linejoin="round"/>
<path d="M180.263 90.6017L178.537 100.69L176.841 86.2212L178.537 76.3245L180.263 90.6017Z" stroke="white" stroke-width="0.7" stroke-linecap="round" stroke-linejoin="round"/>
<path d="M2.72568 76.3245L4.40709 66.413L9.40709 53.2714L7.82892 62.5929L2.72568 76.3245Z" stroke="white" stroke-width="0.7" stroke-linecap="round" stroke-linejoin="round"/>
<path d="M4.40709 86.2212L2.72568 76.3245L7.82892 62.5929L9.40709 71.9292L4.40709 86.2212Z" stroke="white" stroke-width="0.7" stroke-linecap="round" stroke-linejoin="round"/>
<path d="M9.40707 95.7493L4.40707 86.2212L9.40707 71.9292L14.1268 80.882L9.40707 95.7493Z" stroke="white" stroke-width="0.7" stroke-linecap="round" stroke-linejoin="round"/>
<path d="M17.5339 104.525L9.40707 95.7492L14.1268 80.882L21.7817 89.1563L17.5339 104.525Z" stroke="white" stroke-width="0.7" stroke-linecap="round" stroke-linejoin="round"/>
<path d="M28.4631 112.209L17.5339 104.525L21.7817 89.1564L32.0767 96.3983L28.4631 112.209Z" stroke="white" stroke-width="0.7" stroke-linecap="round" stroke-linejoin="round"/>
<path d="M41.7965 118.522L28.4631 112.209L32.0767 96.3982L44.6283 102.342L41.7965 118.522Z" stroke="white" stroke-width="0.7" stroke-linecap="round" stroke-linejoin="round"/>
<path d="M56.9882 123.212L41.7964 118.522L44.6283 102.342L58.9498 106.767L56.9882 123.212Z" stroke="white" stroke-width="0.7" stroke-linecap="round" stroke-linejoin="round"/>
<path d="M73.4779 126.103L56.9882 123.212L58.9499 106.767L74.4808 109.481L73.4779 126.103Z" stroke="white" stroke-width="0.7" stroke-linecap="round" stroke-linejoin="round"/>
<path d="M90.6313 127.077L73.4779 126.103L74.4809 109.481L90.6313 110.41V127.077Z" stroke="white" stroke-width="0.7" stroke-linecap="round" stroke-linejoin="round"/>
<path d="M107.785 126.103L90.6313 127.077V110.41L106.782 109.481L107.785 126.103Z" stroke="white" stroke-width="0.7" stroke-linecap="round" stroke-linejoin="round"/>
<path d="M124.274 123.212L107.785 126.103L106.782 109.481L122.327 106.767L124.274 123.212Z" stroke="white" stroke-width="0.7" stroke-linecap="round" stroke-linejoin="round"/>
<path d="M139.466 118.522L124.274 123.212L122.327 106.767L136.634 102.342L139.466 118.522Z" stroke="white" stroke-width="0.7" stroke-linecap="round" stroke-linejoin="round"/>
<path d="M152.785 112.209L139.466 118.522L136.634 102.342L149.186 96.3982L152.785 112.209Z" stroke="white" stroke-width="0.7" stroke-linecap="round" stroke-linejoin="round"/>
<path d="M163.729 104.525L152.785 112.209L149.186 96.3983L159.481 89.1564L163.729 104.525Z" stroke="white" stroke-width="0.7" stroke-linecap="round" stroke-linejoin="round"/>
<path d="M171.855 95.7492L163.729 104.525L159.481 89.1563L167.136 80.882L171.855 95.7492Z" stroke="white" stroke-width="0.7" stroke-linecap="round" stroke-linejoin="round"/>
<path d="M176.841 86.2212L171.855 95.7493L167.136 80.882L171.855 71.9292L176.841 86.2212Z" stroke="white" stroke-width="0.7" stroke-linecap="round" stroke-linejoin="round"/>
<path d="M178.537 76.3245L176.841 86.2212L171.855 71.9292L173.434 62.5929L178.537 76.3245Z" stroke="white" stroke-width="0.7" stroke-linecap="round" stroke-linejoin="round"/>
<path d="M176.841 66.413L178.537 76.3245L173.434 62.5929L171.855 53.2714L176.841 66.413Z" stroke="white" stroke-width="0.7" stroke-linecap="round" stroke-linejoin="round"/>
<path d="M9.40707 53.2714L14.1268 44.3039L21.7817 33.4779L17.5339 41.5458L9.40707 53.2714Z" stroke="white" stroke-width="0.7" stroke-linecap="round" stroke-linejoin="round"/>
<path d="M7.82892 62.593L9.40709 53.2714L17.5339 41.5458L16.1033 49.9381L7.82892 62.593Z" stroke="white" stroke-width="0.7" stroke-linecap="round" stroke-linejoin="round"/>
<path d="M9.40709 71.9291L7.82892 62.5929L16.1033 49.938L17.5339 58.3451L9.40709 71.9291Z" stroke="white" stroke-width="0.7" stroke-linecap="round" stroke-linejoin="round"/>
<path d="M14.1268 80.882L9.40707 71.9292L17.5339 58.3451L21.7817 66.4129L14.1268 80.882Z" stroke="white" stroke-width="0.7" stroke-linecap="round" stroke-linejoin="round"/>
<path d="M21.7817 89.1563L14.1268 80.882L21.7817 66.413L28.6696 73.8466L21.7817 89.1563Z" stroke="white" stroke-width="0.7" stroke-linecap="round" stroke-linejoin="round"/>
<path d="M32.0767 96.3982L21.7817 89.1563L28.6696 73.8466L37.9322 80.3657L32.0767 96.3982Z" stroke="white" stroke-width="0.7" stroke-linecap="round" stroke-linejoin="round"/>
<path d="M44.6283 102.342L32.0767 96.3982L37.9322 80.3657L49.2301 85.7197L44.6283 102.342Z" stroke="white" stroke-width="0.7" stroke-linecap="round" stroke-linejoin="round"/>
<path d="M58.9498 106.767L44.6283 102.342L49.2301 85.7197L62.1062 89.6873L58.9498 106.767Z" stroke="white" stroke-width="0.7" stroke-linecap="round" stroke-linejoin="round"/>
<path d="M74.4808 109.481L58.9498 106.767L62.1062 89.6873L76.0885 92.1504L74.4808 109.481Z" stroke="white" stroke-width="0.7" stroke-linecap="round" stroke-linejoin="round"/>
<path d="M90.6313 110.41L74.4808 109.481L76.0885 92.1504L90.6313 92.9616V110.41Z" stroke="white" stroke-width="0.7" stroke-linecap="round" stroke-linejoin="round"/>
<path d="M106.782 109.481L90.6313 110.41V92.9616L105.174 92.1504L106.782 109.481Z" stroke="white" stroke-width="0.7" stroke-linecap="round" stroke-linejoin="round"/>
<path d="M122.327 106.767L106.782 109.481L105.174 92.1504L119.156 89.6873L122.327 106.767Z" stroke="white" stroke-width="0.7" stroke-linecap="round" stroke-linejoin="round"/>
<path d="M136.634 102.342L122.327 106.767L119.156 89.6873L132.032 85.7197L136.634 102.342Z" stroke="white" stroke-width="0.7" stroke-linecap="round" stroke-linejoin="round"/>
<path d="M149.186 96.3982L136.634 102.342L132.032 85.7197L143.33 80.3657L149.186 96.3982Z" stroke="white" stroke-width="0.7" stroke-linecap="round" stroke-linejoin="round"/>
<path d="M159.481 89.1563L149.186 96.3982L143.33 80.3657L152.593 73.8466L159.481 89.1563Z" stroke="white" stroke-width="0.7" stroke-linecap="round" stroke-linejoin="round"/>
<path d="M167.136 80.882L159.481 89.1563L152.593 73.8466L159.481 66.413L167.136 80.882Z" stroke="white" stroke-width="0.7" stroke-linecap="round" stroke-linejoin="round"/>
<path d="M171.855 71.9292L167.136 80.882L159.481 66.4129L163.729 58.3451L171.855 71.9292Z" stroke="white" stroke-width="0.7" stroke-linecap="round" stroke-linejoin="round"/>
<path d="M173.434 62.5929L171.855 71.9291L163.729 58.3451L165.159 49.938L173.434 62.5929Z" stroke="white" stroke-width="0.7" stroke-linecap="round" stroke-linejoin="round"/>
<path d="M171.855 53.2714L173.434 62.593L165.159 49.9381L163.729 41.5458L171.855 53.2714Z" stroke="white" stroke-width="0.7" stroke-linecap="round" stroke-linejoin="round"/>
<path d="M167.136 44.3039L171.855 53.2714L163.729 41.5458L159.481 33.4779L167.136 44.3039Z" stroke="white" stroke-width="0.7" stroke-linecap="round" stroke-linejoin="round"/>
<path d="M21.7817 33.4778L28.6696 26.0442L37.9322 18.5221L32.0767 24.8495L21.7817 33.4778Z" stroke="white" stroke-width="0.7" stroke-linecap="round" stroke-linejoin="round"/>
<path d="M17.5339 41.5458L21.7817 33.4779L32.0767 24.8496L28.4631 31.708L17.5339 41.5458Z" stroke="white" stroke-width="0.7" stroke-linecap="round" stroke-linejoin="round"/>
<path d="M16.1032 49.9381L17.5339 41.5458L28.4631 31.708L27.2537 38.8467L16.1032 49.9381Z" stroke="white" stroke-width="0.7" stroke-linecap="round" stroke-linejoin="round"/>
<path d="M17.5339 58.3451L16.1032 49.938L27.2537 38.8466L28.4631 45.9852L17.5339 58.3451Z" stroke="white" stroke-width="0.7" stroke-linecap="round" stroke-linejoin="round"/>
<path d="M21.7817 66.413L17.5339 58.3451L28.4631 45.9852L32.0767 52.8584L21.7817 66.413Z" stroke="white" stroke-width="0.7" stroke-linecap="round" stroke-linejoin="round"/>
<path d="M28.6696 73.8466L21.7817 66.413L32.0767 52.8584L37.9322 59.1858L28.6696 73.8466Z" stroke="white" stroke-width="0.7" stroke-linecap="round" stroke-linejoin="round"/>
<path d="M37.9322 80.3657L28.6696 73.8466L37.9322 59.1858L45.823 64.7168L37.9322 80.3657Z" stroke="white" stroke-width="0.7" stroke-linecap="round" stroke-linejoin="round"/>
<path d="M49.2301 85.7197L37.9321 80.3658L45.823 64.7168L55.41 69.2743L49.2301 85.7197Z" stroke="white" stroke-width="0.7" stroke-linecap="round" stroke-linejoin="round"/>
<path d="M62.1062 89.6873L49.2301 85.7197L55.41 69.2743L66.3687 72.6519L62.1062 89.6873Z" stroke="white" stroke-width="0.7" stroke-linecap="round" stroke-linejoin="round"/>
<path d="M76.0885 92.1504L62.1062 89.6873L66.3687 72.6519L78.2714 74.7462L76.0885 92.1504Z" stroke="white" stroke-width="0.7" stroke-linecap="round" stroke-linejoin="round"/>
<path d="M90.6313 92.9617L76.0885 92.1505L78.2714 74.7463L90.6313 75.4396V92.9617Z" stroke="white" stroke-width="0.7" stroke-linecap="round" stroke-linejoin="round"/>
<path d="M105.174 92.1505L90.6313 92.9617V75.4396L102.991 74.7463L105.174 92.1505Z" stroke="white" stroke-width="0.7" stroke-linecap="round" stroke-linejoin="round"/>
<path d="M119.156 89.6873L105.174 92.1504L102.991 74.7462L114.879 72.6519L119.156 89.6873Z" stroke="white" stroke-width="0.7" stroke-linecap="round" stroke-linejoin="round"/>
<path d="M132.032 85.7197L119.156 89.6873L114.879 72.6519L125.838 69.2743L132.032 85.7197Z" stroke="white" stroke-width="0.7" stroke-linecap="round" stroke-linejoin="round"/>
<path d="M143.33 80.3658L132.032 85.7197L125.838 69.2743L135.44 64.7168L143.33 80.3658Z" stroke="white" stroke-width="0.7" stroke-linecap="round" stroke-linejoin="round"/>
<path d="M152.593 73.8466L143.33 80.3657L135.44 64.7168L143.33 59.1858L152.593 73.8466Z" stroke="white" stroke-width="0.7" stroke-linecap="round" stroke-linejoin="round"/>
<path d="M159.481 66.413L152.593 73.8466L143.33 59.1858L149.186 52.8584L159.481 66.413Z" stroke="white" stroke-width="0.7" stroke-linecap="round" stroke-linejoin="round"/>
<path d="M163.729 58.3451L159.481 66.413L149.186 52.8584L152.785 45.9852L163.729 58.3451Z" stroke="white" stroke-width="0.7" stroke-linecap="round" stroke-linejoin="round"/>
<path d="M165.159 49.938L163.729 58.3451L152.785 45.9852L154.009 38.8466L165.159 49.938Z" stroke="white" stroke-width="0.7" stroke-linecap="round" stroke-linejoin="round"/>
<path d="M163.729 41.5458L165.159 49.9381L154.009 38.8467L152.785 31.708L163.729 41.5458Z" stroke="white" stroke-width="0.7" stroke-linecap="round" stroke-linejoin="round"/>
<path d="M159.481 33.4779L163.729 41.5458L152.785 31.708L149.186 24.8496L159.481 33.4779Z" stroke="white" stroke-width="0.7" stroke-linecap="round" stroke-linejoin="round"/>
<path d="M152.593 26.0442L159.481 33.4778L149.186 24.8495L143.33 18.5221L152.593 26.0442Z" stroke="white" stroke-width="0.7" stroke-linecap="round" stroke-linejoin="round"/>
<path d="M37.9321 18.5222L45.823 12.9764L55.41 9.42188L49.2301 13.7729L37.9321 18.5222Z" stroke="white" stroke-width="0.7" stroke-linecap="round" stroke-linejoin="round"/>
<path d="M32.0767 24.8495L37.9322 18.5221L49.2301 13.7728L44.6283 18.7433L32.0767 24.8495Z" stroke="white" stroke-width="0.7" stroke-linecap="round" stroke-linejoin="round"/>
<path d="M28.4631 31.708L32.0767 24.8496L44.6283 18.7434L41.7965 24.1416L28.4631 31.708Z" stroke="white" stroke-width="0.7" stroke-linecap="round" stroke-linejoin="round"/>
<path d="M27.2537 38.8466L28.4631 31.708L41.7964 24.1416L40.8377 29.7463L27.2537 38.8466Z" stroke="white" stroke-width="0.7" stroke-linecap="round" stroke-linejoin="round"/>
<path d="M28.4631 45.9853L27.2537 38.8466L40.8377 29.7463L41.7964 35.3658L28.4631 45.9853Z" stroke="white" stroke-width="0.7" stroke-linecap="round" stroke-linejoin="round"/>
<path d="M32.0767 52.8583L28.4631 45.9852L41.7965 35.3657L44.6283 40.7492L32.0767 52.8583Z" stroke="white" stroke-width="0.7" stroke-linecap="round" stroke-linejoin="round"/>
<path d="M37.9322 59.1858L32.0767 52.8584L44.6283 40.7493L49.2301 45.7198L37.9322 59.1858Z" stroke="white" stroke-width="0.7" stroke-linecap="round" stroke-linejoin="round"/>
<path d="M45.823 64.7168L37.9321 59.1858L49.2301 45.7197L55.41 50.0855L45.823 64.7168Z" stroke="white" stroke-width="0.7" stroke-linecap="round" stroke-linejoin="round"/>
<path d="M55.41 69.2744L45.823 64.7168L55.41 50.0856L62.9616 53.6549L55.41 69.2744Z" stroke="white" stroke-width="0.7" stroke-linecap="round" stroke-linejoin="round"/>
<path d="M66.3687 72.652L55.41 69.2744L62.9617 53.6549L71.5752 56.3098L66.3687 72.652Z" stroke="white" stroke-width="0.7" stroke-linecap="round" stroke-linejoin="round"/>
<path d="M78.2714 74.7463L66.3687 72.6519L71.5752 56.3097L80.9115 57.9469L78.2714 74.7463Z" stroke="white" stroke-width="0.7" stroke-linecap="round" stroke-linejoin="round"/>
<path d="M90.6312 75.4395L78.2714 74.7463L80.9115 57.9469L90.6312 58.5074V75.4395Z" stroke="white" stroke-width="0.7" stroke-linecap="round" stroke-linejoin="round"/>
<path d="M102.991 74.7463L90.6313 75.4395V58.5074L100.351 57.9469L102.991 74.7463Z" stroke="white" stroke-width="0.7" stroke-linecap="round" stroke-linejoin="round"/>
<path d="M114.879 72.6519L102.991 74.7463L100.351 57.9469L109.687 56.3097L114.879 72.6519Z" stroke="white" stroke-width="0.7" stroke-linecap="round" stroke-linejoin="round"/>
<path d="M125.838 69.2744L114.879 72.652L109.687 56.3098L118.301 53.6549L125.838 69.2744Z" stroke="white" stroke-width="0.7" stroke-linecap="round" stroke-linejoin="round"/>
<path d="M135.44 64.7168L125.838 69.2744L118.301 53.6549L125.838 50.0856L135.44 64.7168Z" stroke="white" stroke-width="0.7" stroke-linecap="round" stroke-linejoin="round"/>
<path d="M143.33 59.1858L135.44 64.7168L125.838 50.0855L132.032 45.7197L143.33 59.1858Z" stroke="white" stroke-width="0.7" stroke-linecap="round" stroke-linejoin="round"/>
<path d="M149.186 52.8584L143.33 59.1858L132.032 45.7198L136.634 40.7493L149.186 52.8584Z" stroke="white" stroke-width="0.7" stroke-linecap="round" stroke-linejoin="round"/>
<path d="M152.785 45.9852L149.186 52.8583L136.634 40.7492L139.466 35.3657L152.785 45.9852Z" stroke="white" stroke-width="0.7" stroke-linecap="round" stroke-linejoin="round"/>
<path d="M154.009 38.8466L152.785 45.9853L139.466 35.3658L140.425 29.7463L154.009 38.8466Z" stroke="white" stroke-width="0.7" stroke-linecap="round" stroke-linejoin="round"/>
<path d="M152.785 31.708L154.009 38.8466L140.425 29.7463L139.466 24.1416L152.785 31.708Z" stroke="white" stroke-width="0.7" stroke-linecap="round" stroke-linejoin="round"/>
<path d="M149.186 24.8496L152.785 31.708L139.466 24.1416L136.634 18.7434L149.186 24.8496Z" stroke="white" stroke-width="0.7" stroke-linecap="round" stroke-linejoin="round"/>
<path d="M143.33 18.5221L149.186 24.8495L136.634 18.7433L132.032 13.7728L143.33 18.5221Z" stroke="white" stroke-width="0.7" stroke-linecap="round" stroke-linejoin="round"/>
<path d="M135.44 12.9764L143.33 18.5222L132.032 13.7729L125.838 9.42188L135.44 12.9764Z" stroke="white" stroke-width="0.7" stroke-linecap="round" stroke-linejoin="round"/>
<path d="M125.838 8.43366L135.44 12.9764L125.838 9.42186L118.301 5.85254L125.838 8.43366Z" stroke="white" stroke-width="0.7" stroke-linecap="round" stroke-linejoin="round"/>
<path d="M45.823 12.9764L55.41 8.43366L62.9616 5.85254L55.41 9.42186L45.823 12.9764Z" stroke="white" stroke-width="0.7" stroke-linecap="round" stroke-linejoin="round"/>
<path d="M49.2301 13.7729L55.41 9.42187L66.3687 8.99414L62.1062 11.9882L49.2301 13.7729Z" stroke="white" stroke-width="0.7" stroke-linecap="round" stroke-linejoin="round"/>
<path d="M44.6283 18.7433L49.2301 13.7728L62.1062 11.9882L58.9498 15.41L44.6283 18.7433Z" stroke="white" stroke-width="0.7" stroke-linecap="round" stroke-linejoin="round"/>
<path d="M41.7964 24.1416L44.6283 18.7434L58.9498 15.41L56.9882 19.1268L41.7964 24.1416Z" stroke="white" stroke-width="0.7" stroke-linecap="round" stroke-linejoin="round"/>
<path d="M40.8378 29.7463L41.7965 24.1416L56.9882 19.1268L56.3245 22.9911L40.8378 29.7463Z" stroke="white" stroke-width="0.7" stroke-linecap="round" stroke-linejoin="round"/>
<path d="M41.7965 35.3658L40.8378 29.7464L56.3245 22.9912L56.9882 26.8555L41.7965 35.3658Z" stroke="white" stroke-width="0.7" stroke-linecap="round" stroke-linejoin="round"/>
<path d="M44.6283 40.7493L41.7964 35.3658L56.9882 26.8555L58.9498 30.5723L44.6283 40.7493Z" stroke="white" stroke-width="0.7" stroke-linecap="round" stroke-linejoin="round"/>
<path d="M49.2301 45.7198L44.6283 40.7493L58.9498 30.5723L62.1062 33.9941L49.2301 45.7198Z" stroke="white" stroke-width="0.7" stroke-linecap="round" stroke-linejoin="round"/>
<path d="M55.41 50.0856L49.2301 45.7198L62.1062 33.9941L66.3687 36.9882L55.41 50.0856Z" stroke="white" stroke-width="0.7" stroke-linecap="round" stroke-linejoin="round"/>
<path d="M62.9617 53.6548L55.41 50.0855L66.3687 36.9882L71.5752 39.4513L62.9617 53.6548Z" stroke="white" stroke-width="0.7" stroke-linecap="round" stroke-linejoin="round"/>
<path d="M71.5752 56.3097L62.9617 53.6548L71.5752 39.4513L77.5044 41.2802L71.5752 56.3097Z" stroke="white" stroke-width="0.7" stroke-linecap="round" stroke-linejoin="round"/>
<path d="M80.9115 57.9469L71.5752 56.3098L77.5044 41.2803L83.9351 42.416L80.9115 57.9469Z" stroke="white" stroke-width="0.7" stroke-linecap="round" stroke-linejoin="round"/>
<path d="M90.6313 58.5073L80.9115 57.9469L83.9351 42.4159L90.6313 42.7994V58.5073Z" stroke="white" stroke-width="0.7" stroke-linecap="round" stroke-linejoin="round"/>
<path d="M100.351 57.9469L90.6313 58.5073V42.7994L97.3274 42.4159L100.351 57.9469Z" stroke="white" stroke-width="0.7" stroke-linecap="round" stroke-linejoin="round"/>
<path d="M109.687 56.3098L100.351 57.9469L97.3275 42.416L103.758 41.2803L109.687 56.3098Z" stroke="white" stroke-width="0.7" stroke-linecap="round" stroke-linejoin="round"/>
<path d="M118.301 53.6548L109.687 56.3097L103.758 41.2802L109.687 39.4513L118.301 53.6548Z" stroke="white" stroke-width="0.7" stroke-linecap="round" stroke-linejoin="round"/>
<path d="M125.838 50.0855L118.301 53.6548L109.687 39.4513L114.879 36.9882L125.838 50.0855Z" stroke="white" stroke-width="0.7" stroke-linecap="round" stroke-linejoin="round"/>
<path d="M132.032 45.7198L125.838 50.0856L114.879 36.9882L119.156 33.9941L132.032 45.7198Z" stroke="white" stroke-width="0.7" stroke-linecap="round" stroke-linejoin="round"/>
<path d="M136.634 40.7493L132.032 45.7198L119.156 33.9941L122.327 30.5723L136.634 40.7493Z" stroke="white" stroke-width="0.7" stroke-linecap="round" stroke-linejoin="round"/>
<path d="M139.466 35.3658L136.634 40.7493L122.327 30.5723L124.274 26.8555L139.466 35.3658Z" stroke="white" stroke-width="0.7" stroke-linecap="round" stroke-linejoin="round"/>
<path d="M140.425 29.7464L139.466 35.3658L124.274 26.8555L124.923 22.9912L140.425 29.7464Z" stroke="white" stroke-width="0.7" stroke-linecap="round" stroke-linejoin="round"/>
<path d="M139.466 24.1416L140.425 29.7463L124.923 22.9911L124.274 19.1268L139.466 24.1416Z" stroke="white" stroke-width="0.7" stroke-linecap="round" stroke-linejoin="round"/>
<path d="M136.634 18.7434L139.466 24.1416L124.274 19.1268L122.327 15.41L136.634 18.7434Z" stroke="white" stroke-width="0.7" stroke-linecap="round" stroke-linejoin="round"/>
<path d="M132.032 13.7728L136.634 18.7433L122.327 15.41L119.156 11.9882L132.032 13.7728Z" stroke="white" stroke-width="0.7" stroke-linecap="round" stroke-linejoin="round"/>
<path d="M125.838 9.42187L132.032 13.7729L119.156 11.9882L114.879 8.99414L125.838 9.42187Z" stroke="white" stroke-width="0.7" stroke-linecap="round" stroke-linejoin="round"/>
<path d="M118.301 5.85254L125.838 9.42186L114.879 8.99413L109.687 6.51626L118.301 5.85254Z" stroke="white" stroke-width="0.7" stroke-linecap="round" stroke-linejoin="round"/>
<path d="M109.687 3.19763L118.301 5.8525L109.687 6.51622L103.758 4.68731L109.687 3.19763Z" stroke="white" stroke-width="0.7" stroke-linecap="round" stroke-linejoin="round"/>
<path d="M100.351 1.56042L109.687 3.19759L103.758 4.68727L97.3275 3.56632L100.351 1.56042Z" stroke="white" stroke-width="0.7" stroke-linecap="round" stroke-linejoin="round"/>
<path d="M90.6313 1L100.351 1.56047L97.3274 3.56637L90.6313 3.18289V1Z" stroke="white" stroke-width="0.7" stroke-linecap="round" stroke-linejoin="round"/>
<path d="M80.9115 1.56047L90.6313 1V3.18289L83.9351 3.56637L80.9115 1.56047Z" stroke="white" stroke-width="0.7" stroke-linecap="round" stroke-linejoin="round"/>
<path d="M71.5752 3.19759L80.9115 1.56042L83.9351 3.56632L77.5044 4.68727L71.5752 3.19759Z" stroke="white" stroke-width="0.7" stroke-linecap="round" stroke-linejoin="round"/>
<path d="M62.9617 5.8525L71.5752 3.19763L77.5044 4.68731L71.5752 6.51622L62.9617 5.8525Z" stroke="white" stroke-width="0.7" stroke-linecap="round" stroke-linejoin="round"/>
<path d="M55.41 9.42186L62.9617 5.85254L71.5752 6.51626L66.3687 8.99413L55.41 9.42186Z" stroke="white" stroke-width="0.7" stroke-linecap="round" stroke-linejoin="round"/>
<path d="M62.1062 11.9882L66.3687 8.99414L78.2714 11.6785L76.0885 13.2124L62.1062 11.9882Z" stroke="white" stroke-width="0.7" stroke-linecap="round" stroke-linejoin="round"/>
<path d="M58.9498 15.41L62.1062 11.9882L76.0885 13.2123L74.4808 14.9675L58.9498 15.41Z" stroke="white" stroke-width="0.7" stroke-linecap="round" stroke-linejoin="round"/>
<path d="M56.9882 19.1268L58.9499 15.41L74.4808 14.9675L73.4779 16.8554L56.9882 19.1268Z" stroke="white" stroke-width="0.7" stroke-linecap="round" stroke-linejoin="round"/>
<path d="M56.3245 22.9912L56.9882 19.1269L73.4779 16.8555L73.1386 18.8319L56.3245 22.9912Z" stroke="white" stroke-width="0.7" stroke-linecap="round" stroke-linejoin="round"/>
<path d="M56.9882 26.8555L56.3245 22.9912L73.1386 18.8319L73.4779 20.7936L56.9882 26.8555Z" stroke="white" stroke-width="0.7" stroke-linecap="round" stroke-linejoin="round"/>
<path d="M58.9499 30.5722L56.9882 26.8554L73.4779 20.7935L74.4808 22.6814L58.9499 30.5722Z" stroke="white" stroke-width="0.7" stroke-linecap="round" stroke-linejoin="round"/>
<path d="M62.1062 33.9941L58.9498 30.5723L74.4808 22.6814L76.0885 24.4366L62.1062 33.9941Z" stroke="white" stroke-width="0.7" stroke-linecap="round" stroke-linejoin="round"/>
<path d="M66.3687 36.9881L62.1062 33.994L76.0885 24.4365L78.2714 25.9557L66.3687 36.9881Z" stroke="white" stroke-width="0.7" stroke-linecap="round" stroke-linejoin="round"/>
<path d="M71.5752 39.4514L66.3687 36.9883L78.2714 25.9558L80.9115 27.2242L71.5752 39.4514Z" stroke="white" stroke-width="0.7" stroke-linecap="round" stroke-linejoin="round"/>
<path d="M77.5044 41.2803L71.5752 39.4514L80.9115 27.2242L83.9351 28.1534L77.5044 41.2803Z" stroke="white" stroke-width="0.7" stroke-linecap="round" stroke-linejoin="round"/>
<path d="M83.9351 42.416L77.5044 41.2803L83.9351 28.1534L87.2242 28.7287L83.9351 42.416Z" stroke="white" stroke-width="0.7" stroke-linecap="round" stroke-linejoin="round"/>
<path d="M90.6313 42.7994L83.9351 42.416L87.2242 28.7286L90.6313 28.9204V42.7994Z" stroke="white" stroke-width="0.7" stroke-linecap="round" stroke-linejoin="round"/>
<path d="M97.3274 42.416L90.6313 42.7994V28.9204L94.0384 28.7286L97.3274 42.416Z" stroke="white" stroke-width="0.7" stroke-linecap="round" stroke-linejoin="round"/>
<path d="M103.758 41.2803L97.3274 42.416L94.0383 28.7287L97.3274 28.1534L103.758 41.2803Z" stroke="white" stroke-width="0.7" stroke-linecap="round" stroke-linejoin="round"/>
<path d="M109.687 39.4514L103.758 41.2803L97.3275 28.1534L100.351 27.2242L109.687 39.4514Z" stroke="white" stroke-width="0.7" stroke-linecap="round" stroke-linejoin="round"/>
<path d="M114.879 36.9883L109.687 39.4514L100.351 27.2242L102.991 25.9558L114.879 36.9883Z" stroke="white" stroke-width="0.7" stroke-linecap="round" stroke-linejoin="round"/>
<path d="M119.156 33.994L114.879 36.9881L102.991 25.9557L105.174 24.4365L119.156 33.994Z" stroke="white" stroke-width="0.7" stroke-linecap="round" stroke-linejoin="round"/>
<path d="M122.327 30.5723L119.156 33.9941L105.174 24.4366L106.782 22.6814L122.327 30.5723Z" stroke="white" stroke-width="0.7" stroke-linecap="round" stroke-linejoin="round"/>
<path d="M124.274 26.8554L122.327 30.5722L106.782 22.6814L107.785 20.7935L124.274 26.8554Z" stroke="white" stroke-width="0.7" stroke-linecap="round" stroke-linejoin="round"/>
<path d="M124.923 22.9912L124.274 26.8555L107.785 20.7936L108.109 18.8319L124.923 22.9912Z" stroke="white" stroke-width="0.7" stroke-linecap="round" stroke-linejoin="round"/>
<path d="M124.274 19.1269L124.923 22.9912L108.109 18.8319L107.785 16.8555L124.274 19.1269Z" stroke="white" stroke-width="0.7" stroke-linecap="round" stroke-linejoin="round"/>
<path d="M122.327 15.41L124.274 19.1268L107.785 16.8554L106.782 14.9675L122.327 15.41Z" stroke="white" stroke-width="0.7" stroke-linecap="round" stroke-linejoin="round"/>
<path d="M119.156 11.9882L122.327 15.41L106.782 14.9675L105.174 13.2123L119.156 11.9882Z" stroke="white" stroke-width="0.7" stroke-linecap="round" stroke-linejoin="round"/>
<path d="M114.879 8.99414L119.156 11.9882L105.174 13.2124L102.991 11.6785L114.879 8.99414Z" stroke="white" stroke-width="0.7" stroke-linecap="round" stroke-linejoin="round"/>
<path d="M109.687 6.51624L114.879 8.99411L102.991 11.6785L100.351 10.4248L109.687 6.51624Z" stroke="white" stroke-width="0.7" stroke-linecap="round" stroke-linejoin="round"/>
<path d="M103.758 4.68726L109.687 6.51616L100.351 10.4247L97.3275 9.49552L103.758 4.68726Z" stroke="white" stroke-width="0.7" stroke-linecap="round" stroke-linejoin="round"/>
<path d="M97.3274 3.56641L103.758 4.68735L97.3274 9.49561L94.0383 8.92039L97.3274 3.56641Z" stroke="white" stroke-width="0.7" stroke-linecap="round" stroke-linejoin="round"/>
<path d="M90.6313 3.18286L97.3274 3.56634L94.0384 8.92032L90.6313 8.72858V3.18286Z" stroke="white" stroke-width="0.7" stroke-linecap="round" stroke-linejoin="round"/>
<path d="M83.9351 3.56634L90.6313 3.18286V8.72858L87.2242 8.92032L83.9351 3.56634Z" stroke="white" stroke-width="0.7" stroke-linecap="round" stroke-linejoin="round"/>
<path d="M77.5044 4.68735L83.9351 3.56641L87.2242 8.92039L83.9351 9.49561L77.5044 4.68735Z" stroke="white" stroke-width="0.7" stroke-linecap="round" stroke-linejoin="round"/>
<path d="M71.5752 6.51616L77.5044 4.68726L83.9351 9.49552L80.9115 10.4247L71.5752 6.51616Z" stroke="white" stroke-width="0.7" stroke-linecap="round" stroke-linejoin="round"/>
<path d="M66.3687 8.99411L71.5752 6.51624L80.9115 10.4248L78.2714 11.6785L66.3687 8.99411Z" stroke="white" stroke-width="0.7" stroke-linecap="round" stroke-linejoin="round"/>
<path d="M76.0885 13.2124L78.2714 11.6785L90.6313 17.4159L76.0885 13.2124Z" stroke="white" stroke-width="0.7" stroke-linecap="round" stroke-linejoin="round"/>
<path d="M74.4808 14.9676L76.0885 13.2124L90.6313 17.4159L74.4808 14.9676Z" stroke="white" stroke-width="0.7" stroke-linecap="round" stroke-linejoin="round"/>
<path d="M73.4779 16.8554L74.4809 14.9675L90.6313 17.4159L73.4779 16.8554Z" stroke="white" stroke-width="0.7" stroke-linecap="round" stroke-linejoin="round"/>
<path d="M73.1387 18.8319L73.4779 16.8555L90.6313 17.4159L73.1387 18.8319Z" stroke="white" stroke-width="0.7" stroke-linecap="round" stroke-linejoin="round"/>
<path d="M73.4779 20.7935L73.1387 18.8318L90.6313 17.4159L73.4779 20.7935Z" stroke="white" stroke-width="0.7" stroke-linecap="round" stroke-linejoin="round"/>
<path d="M74.4809 22.6814L73.4779 20.7935L90.6313 17.4159L74.4809 22.6814Z" stroke="white" stroke-width="0.7" stroke-linecap="round" stroke-linejoin="round"/>
<path d="M76.0885 24.4365L74.4808 22.6814L90.6313 17.4159L76.0885 24.4365Z" stroke="white" stroke-width="0.7" stroke-linecap="round" stroke-linejoin="round"/>
<path d="M78.2714 25.9557L76.0885 24.4365L90.6313 17.4159L78.2714 25.9557Z" stroke="white" stroke-width="0.7" stroke-linecap="round" stroke-linejoin="round"/>
<path d="M80.9115 27.2242L78.2714 25.9557L90.6312 17.4159L80.9115 27.2242Z" stroke="white" stroke-width="0.7" stroke-linecap="round" stroke-linejoin="round"/>
<path d="M83.9351 28.1534L80.9115 27.2242L90.6313 17.4159L83.9351 28.1534Z" stroke="white" stroke-width="0.7" stroke-linecap="round" stroke-linejoin="round"/>
<path d="M87.2242 28.7286L83.9351 28.1534L90.6313 17.4159L87.2242 28.7286Z" stroke="white" stroke-width="0.7" stroke-linecap="round" stroke-linejoin="round"/>
<path d="M90.6313 28.9203L87.2242 28.7286L90.6313 17.4159V28.9203Z" stroke="white" stroke-width="0.7" stroke-linecap="round" stroke-linejoin="round"/>
<path d="M94.0384 28.7286L90.6313 28.9203V17.4159L94.0384 28.7286Z" stroke="white" stroke-width="0.7" stroke-linecap="round" stroke-linejoin="round"/>
<path d="M97.3274 28.1534L94.0384 28.7286L90.6313 17.4159L97.3274 28.1534Z" stroke="white" stroke-width="0.7" stroke-linecap="round" stroke-linejoin="round"/>
<path d="M100.351 27.2242L97.3274 28.1534L90.6313 17.4159L100.351 27.2242Z" stroke="white" stroke-width="0.7" stroke-linecap="round" stroke-linejoin="round"/>
<path d="M102.991 25.9557L100.351 27.2242L90.6313 17.4159L102.991 25.9557Z" stroke="white" stroke-width="0.7" stroke-linecap="round" stroke-linejoin="round"/>
<path d="M105.174 24.4365L102.991 25.9557L90.6313 17.4159L105.174 24.4365Z" stroke="white" stroke-width="0.7" stroke-linecap="round" stroke-linejoin="round"/>
<path d="M106.782 22.6814L105.174 24.4365L90.6313 17.4159L106.782 22.6814Z" stroke="white" stroke-width="0.7" stroke-linecap="round" stroke-linejoin="round"/>
<path d="M107.785 20.7935L106.782 22.6814L90.6313 17.4159L107.785 20.7935Z" stroke="white" stroke-width="0.7" stroke-linecap="round" stroke-linejoin="round"/>
<path d="M108.109 18.8318L107.785 20.7935L90.6313 17.4159L108.109 18.8318Z" stroke="white" stroke-width="0.7" stroke-linecap="round" stroke-linejoin="round"/>
<path d="M107.785 16.8555L108.109 18.8319L90.6313 17.4159L107.785 16.8555Z" stroke="white" stroke-width="0.7" stroke-linecap="round" stroke-linejoin="round"/>
<path d="M106.782 14.9675L107.785 16.8554L90.6313 17.4159L106.782 14.9675Z" stroke="white" stroke-width="0.7" stroke-linecap="round" stroke-linejoin="round"/>
<path d="M105.174 13.2124L106.782 14.9676L90.6313 17.4159L105.174 13.2124Z" stroke="white" stroke-width="0.7" stroke-linecap="round" stroke-linejoin="round"/>
<path d="M102.991 11.6785L105.174 13.2124L90.6313 17.4159L102.991 11.6785Z" stroke="white" stroke-width="0.7" stroke-linecap="round" stroke-linejoin="round"/>
<path d="M100.351 10.4248L102.991 11.6785L90.6313 17.416L100.351 10.4248Z" stroke="white" stroke-width="0.7" stroke-linecap="round" stroke-linejoin="round"/>
<path d="M97.3274 9.49561L100.351 10.4248L90.6313 17.416L97.3274 9.49561Z" stroke="white" stroke-width="0.7" stroke-linecap="round" stroke-linejoin="round"/>
<path d="M94.0384 8.92041L97.3274 9.49563L90.6313 17.416L94.0384 8.92041Z" stroke="white" stroke-width="0.7" stroke-linecap="round" stroke-linejoin="round"/>
<path d="M90.6313 8.72864L94.0384 8.92038L90.6313 17.416V8.72864Z" stroke="white" stroke-width="0.7" stroke-linecap="round" stroke-linejoin="round"/>
<path d="M87.2242 8.92038L90.6313 8.72864V17.416L87.2242 8.92038Z" stroke="white" stroke-width="0.7" stroke-linecap="round" stroke-linejoin="round"/>
<path d="M83.9351 9.49563L87.2242 8.92041L90.6313 17.416L83.9351 9.49563Z" stroke="white" stroke-width="0.7" stroke-linecap="round" stroke-linejoin="round"/>
<path d="M80.9115 10.4248L83.9351 9.49561L90.6313 17.416L80.9115 10.4248Z" stroke="white" stroke-width="0.7" stroke-linecap="round" stroke-linejoin="round"/>
<path d="M78.2714 11.6785L80.9115 10.4248L90.6312 17.416L78.2714 11.6785Z" stroke="white" stroke-width="0.7" stroke-linecap="round" stroke-linejoin="round"/>
</g>
</svg>
